HanumanUI-Bold.ufo
<glyph name="bar" format="1">
  <advance width="1128"/>
  <unicode hex="007C"/>
  <outline>
    <contour>
      <point x="489" y="1556" type="line"/>
      <point x="639" y="1556" type="line"/>
      <point x="639" y="-492" type="line"/>
      <point x="489" y="-492" type="line"/>
    </contour>
  </outline>
</glyph>
<glyph name="guillemotleft" format="1">
  <advance width="997"/>
  <unicode hex="00AB"/>
  <outline>
    <contour>
      <point x="82" y="553" type="line"/>
      <point x="391" y="967" type="line"/>
      <point x="508" y="889" type="line"/>
      <point x="270" y="541" type="line"/>
      <point x="508" y="193" type="line"/>
      <point x="391" y="115" type="line"/>
      <point x="82" y="526" type="line"/>
    </contour>
    <contour>
      <point x="489" y="553" type="line"/>
      <point x="799" y="967" type="line"/>
      <point x="915" y="889" type="line"/>
      <point x="678" y="541" type="line"/>
      <point x="915" y="193" type="line"/>
      <point x="799" y="115" type="line"/>
      <point x="489" y="526" type="line"/>
    </contour>
  </outline>
</glyph>
<glyph name="guillemotright" format="1">
  <advance width="997"/>
  <unicode hex="00BB"/>
  <outline>
    <contour>
      <point x="918" y="526" type="line"/>
      <point x="608" y="115" type="line"/>
      <point x="492" y="193" type="line"/>
      <point x="729" y="541" type="line"/>
      <point x="492" y="889" type="line"/>
      <point x="608" y="967" type="line"/>
      <point x="918" y="553" type="line"/>
    </contour>
    <contour>
      <point x="510" y="526" type="line"/>
      <point x="201" y="115" type="line"/>
      <point x="84" y="193" type="line"/>
      <point x="322" y="541" type="line"/>
      <point x="84" y="889" type="line"/>
      <point x="201" y="967" type="line"/>
      <point x="510" y="553" type="line"/>
    </contour>
  </outline>
</glyph>
<glyph name="uni1781" format="1">
  <advance width="1300"/>
  <unicode hex="1781"/>
  <outline>
    <contour>
      <point x="200" y="483" type="line"/>
      <point x="850" y="770"/>
      <point x="850" y="936" type="qcurve" smooth="yes"/>
      <point x="850" y="997" type="line" smooth="yes"/>
      <point x="850" y="1192"/>
      <point x="700" y="1192" type="qcurve" smooth="yes"/>
      <point x="600" y="1192" type="line" smooth="yes"/>
      <point x="458" y="1192"/>
      <point x="450" y="1013" type="qcurve"/>
      <point x="520" y="977"/>
      <point x="520" y="897" type="qcurve" smooth="yes"/>
      <point x="520" y="780"/>
      <point x="335" y="780" type="qcurve" smooth="yes"/>
      <point x="300" y="780"/>
      <point x="236" y="811"/>
      <point x="200" y="867"/>
      <point x="200" y="897" type="qcurve" smooth="yes"/>
      <point x="200" y="1040" type="line"/>
      <point x="202" y="1040" type="line"/>
      <point x="226" y="1300"/>
      <point x="600" y="1300" type="qcurve" smooth="yes"/>
      <point x="700" y="1300" type="line" smooth="yes"/>
      <point x="1100" y="1300"/>
      <point x="1100" y="997" type="qcurve" smooth="yes"/>
      <point x="1100" y="936" type="line" smooth="yes"/>
      <point x="1100" y="741"/>
      <point x="450" y="477" type="qcurve"/>
      <point x="450" y="303" type="line" smooth="yes"/>
      <point x="450" y="108"/>
      <point x="600" y="108" type="qcurve" smooth="yes"/>
      <point x="700" y="108" type="line" smooth="yes"/>
      <point x="850" y="108"/>
      <point x="850" y="303" type="qcurve" smooth="yes"/>
      <point x="850" y="470" type="line"/>
      <point x="1036" y="575" type="line"/>
      <point x="1100" y="575" type="line"/>
      <point x="1100" y="303" type="line" smooth="yes"/>
      <point x="1100" y="0"/>
      <point x="700" y="0" type="qcurve" smooth="yes"/>
      <point x="600" y="0" type="line" smooth="yes"/>
      <point x="200" y="0"/>
      <point x="200" y="303" type="qcurve" smooth="yes"/>
    </contour>
  </outline>
</glyph>
<glyph name="uni1784" format="1">
  <advance width="1300"/>
  <unicode hex="1784"/>
  <outline>
    <contour>
      <point x="830" y="1120" type="qcurve" smooth="yes"/>
      <point x="830" y="1180"/>
      <point x="790" y="1180" type="qcurve" smooth="yes"/>
      <point x="750" y="1180"/>
      <point x="750" y="1120" type="qcurve" smooth="yes"/>
      <point x="750" y="1086"/>
      <point x="783" y="1061" type="qcurve"/>
      <point x="830" y="1083"/>
    </contour>
    <contour>
      <point x="850" y="700" type="line" smooth="yes"/>
      <point x="850" y="808"/>
      <point x="834" y="865"/>
      <point x="798" y="889" type="qcurve"/>
      <point x="686" y="800"/>
      <point x="570" y="800" type="qcurve" smooth="yes"/>
      <point x="422" y="800"/>
      <point x="200" y="944"/>
      <point x="200" y="1070" type="qcurve" smooth="yes"/>
      <point x="200" y="1145"/>
      <point x="250" y="1240"/>
      <point x="250" y="1320" type="qcurve" smooth="yes"/>
      <point x="250" y="1400"/>
      <point x="150" y="1400" type="qcurve"/>
      <point x="150" y="1500"/>
      <point x="280" y="1500" type="qcurve" smooth="yes"/>
      <point x="500" y="1500"/>
      <point x="500" y="1320" type="qcurve" smooth="yes"/>
      <point x="500" y="1245"/>
      <point x="450" y="1150"/>
      <point x="450" y="1070" type="qcurve" smooth="yes"/>
      <point x="450" y="1001"/>
      <point x="540" y="950"/>
      <point x="570" y="950" type="qcurve" smooth="yes"/>
      <point x="634" y="950"/>
      <point x="695" y="996" type="qcurve"/>
      <point x="590" y="1044"/>
      <point x="590" y="1120" type="qcurve" smooth="yes"/>
      <point x="590" y="1300"/>
      <point x="790" y="1300" type="qcurve" smooth="yes"/>
      <point x="1010" y="1300"/>
      <point x="1010" y="1120" type="qcurve" smooth="yes"/>
      <point x="1010" y="1043"/>
      <point x="902" y="972" type="qcurve"/>
      <point x="923" y="961"/>
      <point x="945" y="950" type="qcurve" smooth="yes"/>
      <point x="1100" y="863"/>
      <point x="1100" y="700" type="qcurve" smooth="yes"/>
      <point x="1100" y="0" type="line"/>
      <point x="850" y="0" type="line"/>
      <point x="650" y="193" type="line"/>
      <point x="450" y="0" type="line"/>
      <point x="200" y="0" type="line"/>
      <point x="200" y="470" type="line"/>
      <point x="100" y="504"/>
      <point x="100" y="574" type="qcurve" smooth="yes"/>
      <point x="100" y="644"/>
      <point x="180" y="730"/>
      <point x="250" y="730" type="qcurve" smooth="yes"/>
      <point x="350" y="730" type="line" smooth="yes"/>
      <point x="450" y="730"/>
      <point x="450" y="644" type="qcurve" smooth="yes"/>
      <point x="450" y="162" type="line"/>
      <point x="648" y="357" type="line"/>
      <point x="850" y="162" type="line"/>
    </contour>
  </outline>
</glyph>
<glyph name="uni1786" format="1">
  <advance width="1300"/>
  <unicode hex="1786"/>
  <outline>
    <contour>
      <point x="850" y="608" type="qcurve"/>
      <point x="850" y="750" type="line"/>
      <point x="840" y="750"/>
      <point x="790" y="707"/>
      <point x="790" y="672" type="qcurve" smooth="yes"/>
      <point x="790" y="637"/>
      <point x="809" y="622" type="qcurve" smooth="yes"/>
      <point x="823" y="610"/>
    </contour>
    <contour>
      <point x="450" y="433" type="line"/>
      <point x="700" y="433"/>
      <point x="700" y="217" type="qcurve" smooth="yes"/>
      <point x="700" y="100"/>
      <point x="780" y="100" type="qcurve" smooth="yes"/>
      <point x="850" y="100"/>
      <point x="850" y="217" type="qcurve" smooth="yes"/>
      <point x="850" y="507" type="line"/>
      <point x="773" y="511"/>
      <point x="734" y="551" type="qcurve" smooth="yes"/>
      <point x="690" y="594"/>
      <point x="690" y="672" type="qcurve" smooth="yes"/>
      <point x="690" y="750"/>
      <point x="740" y="815" type="qcurve" smooth="yes"/>
      <point x="790" y="880"/>
      <point x="850" y="880" type="qcurve" smooth="yes"/>
      <point x="1000" y="880" type="line" smooth="yes"/>
      <point x="1100" y="880"/>
      <point x="1100" y="750" type="qcurve" smooth="yes"/>
      <point x="1100" y="217" type="line" smooth="yes"/>
      <point x="1100" y="0"/>
      <point x="780" y="0" type="qcurve" smooth="yes"/>
      <point x="550" y="0"/>
      <point x="550" y="217" type="qcurve" smooth="yes"/>
      <point x="550" y="333"/>
      <point x="450" y="333" type="qcurve"/>
      <point x="450" y="173" type="line" smooth="yes"/>
      <point x="450" y="0"/>
      <point x="345" y="0" type="qcurve" smooth="yes"/>
      <point x="240" y="0" type="line" smooth="yes"/>
      <point x="100" y="0"/>
      <point x="100" y="286" type="qcurve" smooth="yes"/>
      <point x="100" y="391"/>
      <point x="200" y="425" type="qcurve"/>
      <point x="200" y="871" type="line"/>
      <point x="100" y="926"/>
      <point x="100" y="1049" type="qcurve" smooth="yes"/>
      <point x="100" y="1126"/>
      <point x="342" y="1300"/>
      <point x="394" y="1300" type="qcurve" smooth="yes"/>
      <point x="433" y="1300"/>
      <point x="539" y="1213" type="qcurve" smooth="yes"/>
      <point x="592" y="1172" type="line" smooth="yes"/>
      <point x="627" y="1147"/>
      <point x="650" y="1147" type="qcurve" smooth="yes"/>
      <point x="673" y="1147"/>
      <point x="701" y="1172" type="qcurve" smooth="yes"/>
      <point x="763" y="1226" type="line" smooth="yes"/>
      <point x="852" y="1300"/>
      <point x="888" y="1300" type="qcurve" smooth="yes"/>
      <point x="923" y="1300"/>
      <point x="982" y="1245" type="qcurve" smooth="yes"/>
      <point x="1098" y="1133" type="line" smooth="yes"/>
      <point x="1128" y="1101"/>
      <point x="1155" y="1101" type="qcurve" smooth="yes"/>
      <point x="1181" y="1101"/>
      <point x="1200" y="1116" type="qcurve"/>
      <point x="1150" y="957"/>
      <point x="1065" y="957" type="qcurve" smooth="yes"/>
      <point x="999" y="957"/>
      <point x="952" y="1001" type="qcurve" smooth="yes"/>
      <point x="889" y="1058" type="line" smooth="yes"/>
      <point x="845" y="1095"/>
      <point x="820" y="1095" type="qcurve" smooth="yes"/>
      <point x="797" y="1095"/>
      <point x="650" y="957"/>
      <point x="610" y="957" type="qcurve" smooth="yes"/>
      <point x="537" y="957"/>
      <point x="486" y="1001" type="qcurve" smooth="yes"/>
      <point x="415" y="1061" type="line"/>
      <point x="366" y="1095"/>
      <point x="337" y="1095" type="qcurve" smooth="yes"/>
      <point x="304" y="1095"/>
      <point x="250" y="1068"/>
      <point x="250" y="1034" type="qcurve" smooth="yes"/>
      <point x="250" y="993"/>
      <point x="450" y="877" type="qcurve"/>
    </contour>
  </outline>
</glyph>
<glyph name="uni1788" format="1">
  <advance width="2600"/>
  <unicode hex="1788"/>
  <outline>
    <contour>
      <point x="450" y="100" type="line"/>
      <point x="500" y="100"/>
      <point x="550" y="173"/>
      <point x="550" y="260" type="qcurve" smooth="yes"/>
      <point x="550" y="303"/>
      <point x="513" y="333"/>
      <point x="475" y="333" type="qcurve" smooth="yes"/>
      <point x="450" y="333" type="line"/>
    </contour>
    <contour>
      <point x="2150" y="817" type="line" smooth="yes"/>
      <point x="2150" y="909"/>
      <point x="2018" y="937" type="qcurve"/>
      <point x="2036" y="1024"/>
      <point x="2185" y="1300"/>
      <point x="2233" y="1300" type="qcurve" smooth="yes"/>
      <point x="2271" y="1300"/>
      <point x="2334" y="1263" type="qcurve" smooth="yes"/>
      <point x="2394" y="1225" type="line" smooth="yes"/>
      <point x="2422" y="1209"/>
      <point x="2459" y="1209" type="qcurve" smooth="yes"/>
      <point x="2478" y="1209"/>
      <point x="2500" y="1213" type="qcurve"/>
      <point x="2491" y="1153"/>
      <point x="2425" y="1017"/>
      <point x="2382" y="1011" type="qcurve"/>
      <point x="2372" y="1011" type="line" smooth="yes"/>
      <point x="2329" y="1011"/>
      <point x="2262" y="1047" type="qcurve" smooth="yes"/>
      <point x="2226" y="1065"/>
      <point x="2203" y="1065" type="qcurve" smooth="yes"/>
      <point x="2173" y="1065"/>
      <point x="2160" y="1037" type="qcurve" smooth="yes"/>
      <point x="2138" y="986" type="line"/>
      <point x="2400" y="936"/>
      <point x="2400" y="867" type="qcurve" smooth="yes"/>
      <point x="2400" y="303" type="line" smooth="yes"/>
      <point x="2400" y="0"/>
      <point x="2000" y="0" type="qcurve" smooth="yes"/>
      <point x="1900" y="0" type="line" smooth="yes"/>
      <point x="1724" y="0"/>
      <point x="1625" y="59" type="qcurve"/>
      <point x="1526" y="0"/>
      <point x="1350" y="0" type="qcurve" smooth="yes"/>
      <point x="1250" y="0" type="line" smooth="yes"/>
      <point x="850" y="0"/>
      <point x="850" y="303" type="qcurve" smooth="yes"/>
      <point x="850" y="997" type="line" smooth="yes"/>
      <point x="850" y="1200"/>
      <point x="700" y="1200" type="qcurve" smooth="yes"/>
      <point x="600" y="1200" type="line" smooth="yes"/>
      <point x="450" y="1200"/>
      <point x="450" y="997" type="qcurve" smooth="yes"/>
      <point x="450" y="433" type="line"/>
      <point x="475" y="433" type="line" smooth="yes"/>
      <point x="563" y="433"/>
      <point x="606" y="390" type="qcurve" smooth="yes"/>
      <point x="650" y="347"/>
      <point x="650" y="260" type="qcurve" smooth="yes"/>
      <point x="650" y="130"/>
      <point x="600" y="65" type="qcurve" smooth="yes"/>
      <point x="550" y="0"/>
      <point x="450" y="0" type="qcurve" smooth="yes"/>
      <point x="300" y="0" type="line" smooth="yes"/>
      <point x="200" y="0"/>
      <point x="200" y="130" type="qcurve" smooth="yes"/>
      <point x="200" y="997" type="line" smooth="yes"/>
      <point x="200" y="1300"/>
      <point x="600" y="1300" type="qcurve" smooth="yes"/>
      <point x="700" y="1300" type="line" smooth="yes"/>
      <point x="1100" y="1300"/>
      <point x="1100" y="997" type="qcurve" smooth="yes"/>
      <point x="1100" y="303" type="line" smooth="yes"/>
      <point x="1100" y="100"/>
      <point x="1250" y="100" type="qcurve" smooth="yes"/>
      <point x="1350" y="100" type="line" smooth="yes"/>
      <point x="1500" y="100"/>
      <point x="1500" y="303" type="qcurve" smooth="yes"/>
      <point x="1500" y="817" type="line" smooth="yes"/>
      <point x="1500" y="909"/>
      <point x="1368" y="937" type="qcurve"/>
      <point x="1386" y="1024"/>
      <point x="1535" y="1300"/>
      <point x="1583" y="1300" type="qcurve" smooth="yes"/>
      <point x="1621" y="1300"/>
      <point x="1684" y="1263" type="qcurve" smooth="yes"/>
      <point x="1744" y="1225" type="line" smooth="yes"/>
      <point x="1772" y="1209"/>
      <point x="1809" y="1209" type="qcurve" smooth="yes"/>
      <point x="1828" y="1209"/>
      <point x="1850" y="1213" type="qcurve"/>
      <point x="1841" y="1153"/>
      <point x="1775" y="1017"/>
      <point x="1732" y="1011" type="qcurve"/>
      <point x="1722" y="1011" type="line" smooth="yes"/>
      <point x="1679" y="1011"/>
      <point x="1612" y="1047" type="qcurve" smooth="yes"/>
      <point x="1576" y="1065"/>
      <point x="1553" y="1065" type="qcurve" smooth="yes"/>
      <point x="1523" y="1065"/>
      <point x="1510" y="1037" type="qcurve" smooth="yes"/>
      <point x="1488" y="986" type="line"/>
      <point x="1750" y="936"/>
      <point x="1750" y="867" type="qcurve" smooth="yes"/>
      <point x="1750" y="303" type="line" smooth="yes"/>
      <point x="1750" y="100"/>
      <point x="1900" y="100" type="qcurve" smooth="yes"/>
      <point x="2000" y="100" type="line" smooth="yes"/>
      <point x="2150" y="100"/>
      <point x="2150" y="303" type="qcurve" smooth="yes"/>
    </contour>
  </outline>
</glyph>
<glyph name="uni178C" format="1">
  <advance width="1300"/>
  <unicode hex="178C"/>
  <outline>
    <contour>
      <point x="1100" y="-100" type="line"/>
      <point x="850" y="-100" type="line"/>
      <point x="850" y="122" type="line"/>
      <point x="739" y="0"/>
      <point x="551" y="0" type="qcurve" smooth="yes"/>
      <point x="200" y="0"/>
      <point x="200" y="260" type="qcurve" smooth="yes"/>
      <point x="200" y="491" type="line"/>
      <point x="515" y="627" type="line"/>
      <point x="850" y="763"/>
      <point x="850" y="910" type="qcurve" smooth="yes"/>
      <point x="850" y="1040" type="line" smooth="yes"/>
      <point x="850" y="1134"/>
      <point x="790" y="1134" type="qcurve" smooth="yes"/>
      <point x="748" y="1134"/>
      <point x="650" y="1040" type="qcurve"/>
      <point x="553" y="1134"/>
      <point x="511" y="1134" type="qcurve" smooth="yes"/>
      <point x="450" y="1134"/>
      <point x="450" y="1040" type="qcurve" smooth="yes"/>
      <point x="450" y="975" type="line"/>
      <point x="526" y="975"/>
      <point x="559" y="948" type="qcurve" smooth="yes"/>
      <point x="592" y="920"/>
      <point x="592" y="867" type="qcurve" smooth="yes"/>
      <point x="592" y="737"/>
      <point x="459" y="737" type="qcurve" smooth="yes"/>
      <point x="200" y="737"/>
      <point x="200" y="823" type="qcurve" smooth="yes"/>
      <point x="200" y="1040" type="line" smooth="yes"/>
      <point x="200" y="1146"/>
      <point x="407" y="1300"/>
      <point x="460" y="1300" type="qcurve" smooth="yes"/>
      <point x="505" y="1300"/>
      <point x="650" y="1184" type="qcurve"/>
      <point x="796" y="1300"/>
      <point x="841" y="1300" type="qcurve" smooth="yes"/>
      <point x="894" y="1300"/>
      <point x="1100" y="1146"/>
      <point x="1100" y="1040" type="qcurve" smooth="yes"/>
      <point x="1100" y="910" type="line" smooth="yes"/>
      <point x="1100" y="745"/>
      <point x="628" y="543" type="qcurve"/>
      <point x="450" y="465" type="line"/>
      <point x="450" y="260" type="line" smooth="yes"/>
      <point x="450" y="101"/>
      <point x="551" y="101" type="qcurve" smooth="yes"/>
      <point x="704" y="101"/>
      <point x="850" y="285" type="qcurve"/>
      <point x="850" y="485" type="line"/>
      <point x="1100" y="572" type="line"/>
    </contour>
  </outline>
</glyph>
<glyph name="uni178D" format="1">
  <advance width="1950"/>
  <unicode hex="178D"/>
  <outline>
    <contour>
      <point x="450" y="100" type="line"/>
      <point x="470" y="100"/>
      <point x="520" y="173"/>
      <point x="520" y="260" type="qcurve" smooth="yes"/>
      <point x="520" y="303"/>
      <point x="483" y="333"/>
      <point x="450" y="333" type="qcurve"/>
    </contour>
    <contour>
      <point x="1750" y="217" type="line" smooth="yes"/>
      <point x="1750" y="0"/>
      <point x="1430" y="0" type="qcurve" smooth="yes"/>
      <point x="1200" y="0"/>
      <point x="1200" y="217" type="qcurve" smooth="yes"/>
      <point x="1200" y="333"/>
      <point x="1100" y="333" type="qcurve"/>
      <point x="1100" y="173" type="line" smooth="yes"/>
      <point x="1100" y="0"/>
      <point x="995" y="0" type="qcurve" smooth="yes"/>
      <point x="890" y="0" type="line" smooth="yes"/>
      <point x="760" y="0"/>
      <point x="760" y="286" type="qcurve" smooth="yes"/>
      <point x="760" y="391"/>
      <point x="850" y="425" type="qcurve"/>
      <point x="850" y="1000" type="line" smooth="yes"/>
      <point x="850" y="1108"/>
      <point x="790" y="1108" type="qcurve" smooth="yes"/>
      <point x="748" y="1108"/>
      <point x="650" y="1000" type="qcurve"/>
      <point x="553" y="1108"/>
      <point x="511" y="1108" type="qcurve" smooth="yes"/>
      <point x="450" y="1108"/>
      <point x="450" y="1000" type="qcurve" smooth="yes"/>
      <point x="450" y="433" type="line"/>
      <point x="533" y="433"/>
      <point x="576" y="390" type="qcurve" smooth="yes"/>
      <point x="620" y="347"/>
      <point x="620" y="260" type="qcurve" smooth="yes"/>
      <point x="620" y="130"/>
      <point x="570" y="65" type="qcurve" smooth="yes"/>
      <point x="520" y="0"/>
      <point x="450" y="0" type="qcurve" smooth="yes"/>
      <point x="300" y="0" type="line" smooth="yes"/>
      <point x="200" y="0"/>
      <point x="200" y="130" type="qcurve" smooth="yes"/>
      <point x="200" y="1000" type="line" smooth="yes"/>
      <point x="200" y="1122"/>
      <point x="407" y="1300"/>
      <point x="460" y="1300" type="qcurve" smooth="yes"/>
      <point x="505" y="1300"/>
      <point x="650" y="1166" type="qcurve"/>
      <point x="796" y="1300"/>
      <point x="841" y="1300" type="qcurve" smooth="yes"/>
      <point x="894" y="1300"/>
      <point x="1100" y="1122"/>
      <point x="1100" y="1000" type="qcurve" smooth="yes"/>
      <point x="1100" y="433" type="line"/>
      <point x="1350" y="433"/>
      <point x="1350" y="217" type="qcurve" smooth="yes"/>
      <point x="1350" y="100"/>
      <point x="1430" y="100" type="qcurve" smooth="yes"/>
      <point x="1500" y="100"/>
      <point x="1500" y="217" type="qcurve" smooth="yes"/>
      <point x="1500" y="817" type="line" smooth="yes"/>
      <point x="1500" y="909"/>
      <point x="1368" y="937" type="qcurve"/>
      <point x="1386" y="1024"/>
      <point x="1535" y="1300"/>
      <point x="1583" y="1300" type="qcurve" smooth="yes"/>
      <point x="1621" y="1300"/>
      <point x="1684" y="1263" type="qcurve" smooth="yes"/>
      <point x="1744" y="1225" type="line" smooth="yes"/>
      <point x="1772" y="1209"/>
      <point x="1809" y="1209" type="qcurve" smooth="yes"/>
      <point x="1828" y="1209"/>
      <point x="1850" y="1213" type="qcurve"/>
      <point x="1841" y="1153"/>
      <point x="1775" y="1017"/>
      <point x="1732" y="1011" type="qcurve"/>
      <point x="1722" y="1011" type="line" smooth="yes"/>
      <point x="1679" y="1011"/>
      <point x="1612" y="1047" type="qcurve" smooth="yes"/>
      <point x="1576" y="1065"/>
      <point x="1553" y="1065" type="qcurve" smooth="yes"/>
      <point x="1523" y="1065"/>
      <point x="1510" y="1037" type="qcurve" smooth="yes"/>
      <point x="1488" y="986" type="line"/>
      <point x="1750" y="936"/>
      <point x="1750" y="867" type="qcurve" smooth="yes"/>
    </contour>
  </outline>
</glyph>
<glyph name="uni178E" format="1">
  <advance width="2600"/>
  <unicode hex="178E"/>
  <outline>
    <contour>
      <point x="450" y="100" type="line"/>
      <point x="500" y="100"/>
      <point x="550" y="173"/>
      <point x="550" y="260" type="qcurve" smooth="yes"/>
      <point x="550" y="303"/>
      <point x="513" y="333"/>
      <point x="475" y="333" type="qcurve" smooth="yes"/>
      <point x="450" y="333" type="line"/>
    </contour>
    <contour>
      <point x="2400" y="0" type="line"/>
      <point x="2150" y="0" type="line"/>
      <point x="2150" y="997" type="line" smooth="yes"/>
      <point x="2150" y="1200"/>
      <point x="2000" y="1200" type="qcurve" smooth="yes"/>
      <point x="1900" y="1200" type="line" smooth="yes"/>
      <point x="1750" y="1200"/>
      <point x="1750" y="997" type="qcurve" smooth="yes"/>
      <point x="1750" y="0" type="line"/>
      <point x="1500" y="0" type="line"/>
      <point x="1300" y="193" type="line"/>
      <point x="1100" y="0" type="line"/>
      <point x="850" y="0" type="line"/>
      <point x="850" y="997" type="line" smooth="yes"/>
      <point x="850" y="1200"/>
      <point x="700" y="1200" type="qcurve" smooth="yes"/>
      <point x="600" y="1200" type="line" smooth="yes"/>
      <point x="450" y="1200"/>
      <point x="450" y="997" type="qcurve" smooth="yes"/>
      <point x="450" y="433" type="line"/>
      <point x="475" y="433" type="line" smooth="yes"/>
      <point x="563" y="433"/>
      <point x="606" y="390" type="qcurve" smooth="yes"/>
      <point x="650" y="347"/>
      <point x="650" y="260" type="qcurve" smooth="yes"/>
      <point x="650" y="130"/>
      <point x="600" y="65" type="qcurve" smooth="yes"/>
      <point x="550" y="0"/>
      <point x="450" y="0" type="qcurve" smooth="yes"/>
      <point x="300" y="0" type="line" smooth="yes"/>
      <point x="200" y="0"/>
      <point x="200" y="130" type="qcurve" smooth="yes"/>
      <point x="200" y="997" type="line" smooth="yes"/>
      <point x="200" y="1300"/>
      <point x="600" y="1300" type="qcurve" smooth="yes"/>
      <point x="700" y="1300" type="line" smooth="yes"/>
      <point x="1100" y="1300"/>
      <point x="1100" y="997" type="qcurve" smooth="yes"/>
      <point x="1100" y="172" type="line"/>
      <point x="1298" y="357" type="line"/>
      <point x="1500" y="162" type="line"/>
      <point x="1500" y="997" type="line" smooth="yes"/>
      <point x="1500" y="1300"/>
      <point x="1900" y="1300" type="qcurve" smooth="yes"/>
      <point x="2000" y="1300" type="line" smooth="yes"/>
      <point x="2400" y="1300"/>
      <point x="2400" y="997" type="qcurve" smooth="yes"/>
    </contour>
  </outline>
</glyph>
<glyph name="uni1790" format="1">
  <advance width="1300"/>
  <unicode hex="1790"/>
  <outline>
    <contour>
      <point x="450" y="303" type="line" smooth="yes"/>
      <point x="450" y="100"/>
      <point x="600" y="100" type="qcurve" smooth="yes"/>
      <point x="700" y="100" type="line" smooth="yes"/>
      <point x="850" y="100"/>
      <point x="850" y="303" type="qcurve" smooth="yes"/>
      <point x="850" y="620" type="line"/>
      <point x="750" y="655"/>
      <point x="750" y="724" type="qcurve" smooth="yes"/>
      <point x="750" y="793"/>
      <point x="830" y="880"/>
      <point x="900" y="880" type="qcurve" smooth="yes"/>
      <point x="1000" y="880" type="line" smooth="yes"/>
      <point x="1100" y="880"/>
      <point x="1100" y="793" type="qcurve" smooth="yes"/>
      <point x="1100" y="303" type="line" smooth="yes"/>
      <point x="1100" y="0"/>
      <point x="700" y="0" type="qcurve" smooth="yes"/>
      <point x="600" y="0" type="line" smooth="yes"/>
      <point x="200" y="0"/>
      <point x="200" y="303" type="qcurve" smooth="yes"/>
      <point x="200" y="891" type="line"/>
      <point x="100" y="933"/>
      <point x="100" y="1048" type="qcurve" smooth="yes"/>
      <point x="100" y="1120"/>
      <point x="302" y="1300"/>
      <point x="384" y="1300" type="qcurve" smooth="yes"/>
      <point x="473" y="1300"/>
      <point x="751" y="1146"/>
      <point x="820" y="1146" type="qcurve" smooth="yes"/>
      <point x="882" y="1146"/>
      <point x="950" y="1176"/>
      <point x="950" y="1234" type="qcurve" smooth="yes"/>
      <point x="950" y="1300"/>
      <point x="900" y="1300" type="qcurve" smooth="yes"/>
      <point x="800" y="1300"/>
      <point x="800" y="1407" type="qcurve" smooth="yes"/>
      <point x="800" y="1515"/>
      <point x="900" y="1515" type="qcurve" smooth="yes"/>
      <point x="1100" y="1515"/>
      <point x="1100" y="1277" type="qcurve" smooth="yes"/>
      <point x="1100" y="1158"/>
      <point x="939" y="987"/>
      <point x="770" y="987" type="qcurve" smooth="yes"/>
      <point x="618" y="987"/>
      <point x="461" y="1044" type="qcurve"/>
      <point x="386" y="1090"/>
      <point x="337" y="1090" type="qcurve" smooth="yes"/>
      <point x="294" y="1090"/>
      <point x="250" y="1048"/>
      <point x="250" y="1021" type="qcurve" smooth="yes"/>
      <point x="250" y="995"/>
      <point x="450" y="912" type="qcurve"/>
    </contour>
  </outline>
</glyph>
<glyph name="uni1795" format="1">
  <advance width="1300"/>
  <unicode hex="1795"/>
  <outline>
    <contour>
      <point x="850" y="608" type="qcurve"/>
      <point x="850" y="750" type="line"/>
      <point x="840" y="750"/>
      <point x="790" y="707"/>
      <point x="790" y="672" type="qcurve" smooth="yes"/>
      <point x="790" y="637"/>
      <point x="809" y="622" type="qcurve" smooth="yes"/>
      <point x="823" y="610"/>
    </contour>
    <contour>
      <point x="450" y="172" type="line"/>
      <point x="648" y="357" type="line"/>
      <point x="850" y="162" type="line"/>
      <point x="850" y="507" type="line"/>
      <point x="773" y="511"/>
      <point x="734" y="551" type="qcurve" smooth="yes"/>
      <point x="690" y="594"/>
      <point x="690" y="672" type="qcurve" smooth="yes"/>
      <point x="690" y="750"/>
      <point x="740" y="815" type="qcurve" smooth="yes"/>
      <point x="790" y="880"/>
      <point x="850" y="880" type="qcurve" smooth="yes"/>
      <point x="1000" y="880" type="line" smooth="yes"/>
      <point x="1100" y="880"/>
      <point x="1100" y="750" type="qcurve" smooth="yes"/>
      <point x="1100" y="0" type="line"/>
      <point x="850" y="0" type="line"/>
      <point x="650" y="193" type="line"/>
      <point x="450" y="0" type="line"/>
      <point x="200" y="0" type="line"/>
      <point x="200" y="891" type="line"/>
      <point x="100" y="933"/>
      <point x="100" y="1048" type="qcurve" smooth="yes"/>
      <point x="100" y="1120"/>
      <point x="302" y="1300"/>
      <point x="384" y="1300" type="qcurve" smooth="yes"/>
      <point x="473" y="1300"/>
      <point x="751" y="1146"/>
      <point x="820" y="1146" type="qcurve" smooth="yes"/>
      <point x="882" y="1146"/>
      <point x="950" y="1176"/>
      <point x="950" y="1234" type="qcurve" smooth="yes"/>
      <point x="950" y="1300"/>
      <point x="900" y="1300" type="qcurve" smooth="yes"/>
      <point x="800" y="1300"/>
      <point x="800" y="1407" type="qcurve" smooth="yes"/>
      <point x="800" y="1515"/>
      <point x="900" y="1515" type="qcurve" smooth="yes"/>
      <point x="1100" y="1515"/>
      <point x="1100" y="1277" type="qcurve" smooth="yes"/>
      <point x="1100" y="1158"/>
      <point x="939" y="987"/>
      <point x="770" y="987" type="qcurve" smooth="yes"/>
      <point x="618" y="987"/>
      <point x="461" y="1044" type="qcurve"/>
      <point x="386" y="1090"/>
      <point x="337" y="1090" type="qcurve" smooth="yes"/>
      <point x="294" y="1090"/>
      <point x="250" y="1048"/>
      <point x="250" y="1021" type="qcurve" smooth="yes"/>
      <point x="250" y="995"/>
      <point x="450" y="912" type="qcurve"/>
    </contour>
  </outline>
</glyph>
<glyph name="uni1796" format="1">
  <advance width="1300"/>
  <unicode hex="1796"/>
  <outline>
    <contour>
      <point x="450" y="100" type="line"/>
      <point x="500" y="100"/>
      <point x="550" y="173"/>
      <point x="550" y="260" type="qcurve" smooth="yes"/>
      <point x="550" y="303"/>
      <point x="513" y="333"/>
      <point x="475" y="333" type="qcurve" smooth="yes"/>
      <point x="450" y="333" type="line"/>
    </contour>
    <contour>
      <point x="450" y="433" type="line"/>
      <point x="475" y="433" type="line" smooth="yes"/>
      <point x="563" y="433"/>
      <point x="606" y="390" type="qcurve" smooth="yes"/>
      <point x="650" y="347"/>
      <point x="650" y="260" type="qcurve" smooth="yes"/>
      <point x="650" y="130"/>
      <point x="600" y="65" type="qcurve" smooth="yes"/>
      <point x="550" y="0"/>
      <point x="450" y="0" type="qcurve" smooth="yes"/>
      <point x="300" y="0" type="line" smooth="yes"/>
      <point x="200" y="0"/>
      <point x="200" y="130" type="qcurve" smooth="yes"/>
      <point x="200" y="1000" type="line" smooth="yes"/>
      <point x="200" y="1122"/>
      <point x="407" y="1300"/>
      <point x="460" y="1300" type="qcurve" smooth="yes"/>
      <point x="505" y="1300"/>
      <point x="650" y="1166" type="qcurve"/>
      <point x="796" y="1300"/>
      <point x="841" y="1300" type="qcurve" smooth="yes"/>
      <point x="894" y="1300"/>
      <point x="1100" y="1122"/>
      <point x="1100" y="1000" type="qcurve" smooth="yes"/>
      <point x="1100" y="0" type="line"/>
      <point x="850" y="0" type="line"/>
      <point x="850" y="1000" type="line" smooth="yes"/>
      <point x="850" y="1108"/>
      <point x="790" y="1108" type="qcurve" smooth="yes"/>
      <point x="748" y="1108"/>
      <point x="650" y="1000" type="qcurve"/>
      <point x="553" y="1108"/>
      <point x="511" y="1108" type="qcurve" smooth="yes"/>
      <point x="450" y="1108"/>
      <point x="450" y="1000" type="qcurve" smooth="yes"/>
    </contour>
  </outline>
</glyph>
<glyph name="uni1799" format="1">
  <advance width="1950"/>
  <unicode hex="1799"/>
  <outline>
    <contour>
      <point x="450" y="1167" type="qcurve"/>
      <point x="450" y="967" type="line"/>
      <point x="500" y="967"/>
      <point x="500" y="1083" type="qcurve" smooth="yes"/>
      <point x="500" y="1167"/>
    </contour>
    <contour>
      <point x="1500" y="817" type="line" smooth="yes"/>
      <point x="1500" y="909"/>
      <point x="1368" y="937" type="qcurve"/>
      <point x="1386" y="1024"/>
      <point x="1535" y="1300"/>
      <point x="1583" y="1300" type="qcurve" smooth="yes"/>
      <point x="1621" y="1300"/>
      <point x="1684" y="1263" type="qcurve" smooth="yes"/>
      <point x="1744" y="1225" type="line" smooth="yes"/>
      <point x="1772" y="1209"/>
      <point x="1809" y="1209" type="qcurve" smooth="yes"/>
      <point x="1828" y="1209"/>
      <point x="1850" y="1213" type="qcurve"/>
      <point x="1841" y="1153"/>
      <point x="1775" y="1017"/>
      <point x="1732" y="1011" type="qcurve"/>
      <point x="1722" y="1011" type="line" smooth="yes"/>
      <point x="1679" y="1011"/>
      <point x="1612" y="1047" type="qcurve" smooth="yes"/>
      <point x="1576" y="1065"/>
      <point x="1553" y="1065" type="qcurve" smooth="yes"/>
      <point x="1523" y="1065"/>
      <point x="1510" y="1037" type="qcurve" smooth="yes"/>
      <point x="1488" y="986" type="line"/>
      <point x="1750" y="936"/>
      <point x="1750" y="867" type="qcurve" smooth="yes"/>
      <point x="1750" y="303" type="line" smooth="yes"/>
      <point x="1750" y="0"/>
      <point x="1300" y="0" type="qcurve" smooth="yes"/>
      <point x="1062" y="0"/>
      <point x="975" y="88" type="qcurve"/>
      <point x="888" y="0"/>
      <point x="650" y="0" type="qcurve" smooth="yes"/>
      <point x="200" y="0"/>
      <point x="200" y="303" type="qcurve" smooth="yes"/>
      <point x="200" y="1200" type="line" smooth="yes"/>
      <point x="200" y="1300"/>
      <point x="310" y="1300" type="qcurve" smooth="yes"/>
      <point x="420" y="1300" type="line" smooth="yes"/>
      <point x="600" y="1300"/>
      <point x="600" y="1083" type="qcurve" smooth="yes"/>
      <point x="600" y="867"/>
      <point x="450" y="867" type="qcurve"/>
      <point x="450" y="303" type="line" smooth="yes"/>
      <point x="450" y="100"/>
      <point x="650" y="100" type="qcurve" smooth="yes"/>
      <point x="850" y="100"/>
      <point x="850" y="303" type="qcurve" smooth="yes"/>
      <point x="850" y="817" type="line" smooth="yes"/>
      <point x="850" y="909"/>
      <point x="718" y="937" type="qcurve"/>
      <point x="736" y="1024"/>
      <point x="885" y="1300"/>
      <point x="933" y="1300" type="qcurve" smooth="yes"/>
      <point x="971" y="1300"/>
      <point x="1034" y="1263" type="qcurve" smooth="yes"/>
      <point x="1094" y="1225" type="line" smooth="yes"/>
      <point x="1122" y="1209"/>
      <point x="1159" y="1209" type="qcurve" smooth="yes"/>
      <point x="1178" y="1209"/>
      <point x="1200" y="1213" type="qcurve"/>
      <point x="1191" y="1153"/>
      <point x="1125" y="1017"/>
      <point x="1082" y="1011" type="qcurve"/>
      <point x="1072" y="1011" type="line" smooth="yes"/>
      <point x="1029" y="1011"/>
      <point x="962" y="1047" type="qcurve" smooth="yes"/>
      <point x="926" y="1065"/>
      <point x="903" y="1065" type="qcurve" smooth="yes"/>
      <point x="873" y="1065"/>
      <point x="860" y="1037" type="qcurve" smooth="yes"/>
      <point x="838" y="986" type="line"/>
      <point x="1100" y="936"/>
      <point x="1100" y="867" type="qcurve" smooth="yes"/>
      <point x="1100" y="303" type="line" smooth="yes"/>
      <point x="1100" y="100"/>
      <point x="1300" y="100" type="qcurve" smooth="yes"/>
      <point x="1500" y="100"/>
      <point x="1500" y="303" type="qcurve" smooth="yes"/>
    </contour>
  </outline>
</glyph>
<glyph name="uni179C" format="1">
  <advance width="650"/>
  <unicode hex="179C"/>
  <outline>
    <contour>
      <point x="225" y="313" type="qcurve" smooth="yes"/>
      <point x="200" y="313"/>
      <point x="200" y="217" type="qcurve" smooth="yes"/>
      <point x="200" y="143"/>
      <point x="225" y="143" type="qcurve" smooth="yes"/>
      <point x="250" y="143"/>
      <point x="250" y="248" type="qcurve" smooth="yes"/>
      <point x="250" y="313"/>
    </contour>
    <contour>
      <point x="200" y="817" type="line" smooth="yes"/>
      <point x="200" y="909"/>
      <point x="82" y="937" type="qcurve"/>
      <point x="98" y="1024"/>
      <point x="238" y="1300"/>
      <point x="291" y="1300" type="qcurve" smooth="yes"/>
      <point x="332" y="1300"/>
      <point x="391" y="1246" type="qcurve" smooth="yes"/>
      <point x="407" y="1232"/>
      <point x="418" y="1232" type="qcurve" smooth="yes"/>
      <point x="427" y="1232"/>
      <point x="434" y="1240" type="qcurve" smooth="yes"/>
      <point x="450" y="1257"/>
      <point x="450" y="1300" type="qcurve" smooth="yes"/>
      <point x="450" y="1343"/>
      <point x="377" y="1343" type="qcurve" smooth="yes"/>
      <point x="287" y="1343"/>
      <point x="287" y="1473" type="qcurve" smooth="yes"/>
      <point x="287" y="1560"/>
      <point x="377" y="1560" type="qcurve" smooth="yes"/>
      <point x="532" y="1560"/>
      <point x="532" y="1300" type="qcurve"/>
      <point x="530" y="1300" type="line"/>
      <point x="530" y="1290" type="line" smooth="yes"/>
      <point x="530" y="1173"/>
      <point x="459" y="997"/>
      <point x="410" y="997" type="qcurve" smooth="yes"/>
      <point x="361" y="997"/>
      <point x="299" y="1043" type="qcurve" smooth="yes"/>
      <point x="269" y="1063"/>
      <point x="249" y="1063" type="qcurve" smooth="yes"/>
      <point x="227" y="1063"/>
      <point x="215" y="1037" type="qcurve" smooth="yes"/>
      <point x="193" y="986" type="line"/>
      <point x="450" y="936"/>
      <point x="450" y="867" type="qcurve" smooth="yes"/>
      <point x="450" y="128" type="line" smooth="yes"/>
      <point x="450" y="0"/>
      <point x="365" y="0" type="qcurve" smooth="yes"/>
      <point x="240" y="0" type="line" smooth="yes"/>
      <point x="100" y="0"/>
      <point x="100" y="217" type="qcurve" smooth="yes"/>
      <point x="100" y="393"/>
      <point x="200" y="426" type="qcurve"/>
    </contour>
  </outline>
</glyph>
<glyph name="uni179D" format="1">
  <advance width="1300"/>
  <unicode hex="179D"/>
  <outline>
    <contour>
      <point x="1100" y="477" type="line"/>
      <point x="1200" y="477" type="line"/>
      <point x="1200" y="377" type="line"/>
      <point x="1100" y="377" type="line"/>
      <point x="1100" y="0" type="line"/>
      <point x="850" y="0" type="line"/>
      <point x="850" y="377" type="line"/>
      <point x="750" y="377" type="line"/>
      <point x="750" y="477" type="line"/>
      <point x="850" y="477" type="line"/>
      <point x="850" y="650" type="line" smooth="yes"/>
      <point x="850" y="803"/>
      <point x="700" y="803" type="qcurve" smooth="yes"/>
      <point x="600" y="803" type="line" smooth="yes"/>
      <point x="450" y="803"/>
      <point x="450" y="650" type="qcurve" smooth="yes"/>
      <point x="450" y="376" type="line"/>
      <point x="494" y="426"/>
      <point x="554" y="442" type="qcurve" smooth="yes"/>
      <point x="578" y="449"/>
      <point x="599" y="449" type="qcurve" smooth="yes"/>
      <point x="687" y="449"/>
      <point x="718" y="333" type="qcurve" smooth="yes"/>
      <point x="724" y="311"/>
      <point x="724" y="293" type="qcurve" smooth="yes"/>
      <point x="724" y="223"/>
      <point x="640" y="200" type="qcurve"/>
      <point x="630" y="241"/>
      <point x="589" y="241" type="qcurve" smooth="yes"/>
      <point x="575" y="241"/>
      <point x="558" y="236" type="qcurve" smooth="yes"/>
      <point x="495" y="220"/>
      <point x="450" y="45" type="qcurve"/>
      <point x="440" y="0" type="line"/>
      <point x="200" y="0" type="line"/>
      <point x="200" y="650" type="line" smooth="yes"/>
      <point x="200" y="903"/>
      <point x="600" y="903" type="qcurve" smooth="yes"/>
      <point x="700" y="903" type="line" smooth="yes"/>
      <point x="1100" y="903"/>
      <point x="1100" y="650" type="qcurve" smooth="yes"/>
    </contour>
    <contour>
      <point x="252" y="850" type="line"/>
      <point x="100" y="897"/>
      <point x="100" y="1049" type="qcurve" smooth="yes"/>
      <point x="100" y="1126"/>
      <point x="342" y="1300"/>
      <point x="394" y="1300" type="qcurve" smooth="yes"/>
      <point x="433" y="1300"/>
      <point x="539" y="1213" type="qcurve" smooth="yes"/>
      <point x="592" y="1172" type="line" smooth="yes"/>
      <point x="627" y="1147"/>
      <point x="650" y="1147" type="qcurve" smooth="yes"/>
      <point x="673" y="1147"/>
      <point x="701" y="1172" type="qcurve" smooth="yes"/>
      <point x="763" y="1226" type="line" smooth="yes"/>
      <point x="852" y="1300"/>
      <point x="888" y="1300" type="qcurve" smooth="yes"/>
      <point x="923" y="1300"/>
      <point x="982" y="1245" type="qcurve" smooth="yes"/>
      <point x="1098" y="1133" type="line" smooth="yes"/>
      <point x="1128" y="1101"/>
      <point x="1155" y="1101" type="qcurve" smooth="yes"/>
      <point x="1181" y="1101"/>
      <point x="1200" y="1116" type="qcurve"/>
      <point x="1150" y="957"/>
      <point x="1065" y="957" type="qcurve" smooth="yes"/>
      <point x="999" y="957"/>
      <point x="952" y="1001" type="qcurve" smooth="yes"/>
      <point x="889" y="1058" type="line" smooth="yes"/>
      <point x="845" y="1095"/>
      <point x="820" y="1095" type="qcurve" smooth="yes"/>
      <point x="797" y="1095"/>
      <point x="650" y="957"/>
      <point x="610" y="957" type="qcurve" smooth="yes"/>
      <point x="537" y="957"/>
      <point x="486" y="1001" type="qcurve" smooth="yes"/>
      <point x="415" y="1061" type="line"/>
      <point x="366" y="1095"/>
      <point x="337" y="1095" type="qcurve" smooth="yes"/>
      <point x="304" y="1095"/>
      <point x="250" y="1068"/>
      <point x="250" y="1034" type="qcurve" smooth="yes"/>
      <point x="250" y="1013"/>
      <point x="362" y="944" type="qcurve"/>
    </contour>
  </outline>
</glyph>
<glyph name="uni17A3" format="1">
  <advance width="1300"/>
  <unicode hex="17A3"/>
  <outline>
    <contour>
      <point x="875" y="313" type="qcurve" smooth="yes"/>
      <point x="850" y="313"/>
      <point x="850" y="217" type="qcurve" smooth="yes"/>
      <point x="850" y="143"/>
      <point x="875" y="143" type="qcurve" smooth="yes"/>
      <point x="900" y="143"/>
      <point x="900" y="248" type="qcurve" smooth="yes"/>
      <point x="900" y="313"/>
    </contour>
    <contour>
      <point x="225" y="313" type="qcurve" smooth="yes"/>
      <point x="200" y="313"/>
      <point x="200" y="217" type="qcurve" smooth="yes"/>
      <point x="200" y="143"/>
      <point x="225" y="143" type="qcurve" smooth="yes"/>
      <point x="250" y="143"/>
      <point x="250" y="248" type="qcurve" smooth="yes"/>
      <point x="250" y="313"/>
    </contour>
    <contour>
      <point x="850" y="677" type="line"/>
      <point x="850" y="817" type="line" smooth="yes"/>
      <point x="850" y="909"/>
      <point x="718" y="937" type="qcurve"/>
      <point x="736" y="1024"/>
      <point x="885" y="1300"/>
      <point x="933" y="1300" type="qcurve" smooth="yes"/>
      <point x="971" y="1300"/>
      <point x="1034" y="1263" type="qcurve" smooth="yes"/>
      <point x="1094" y="1225" type="line" smooth="yes"/>
      <point x="1122" y="1209"/>
      <point x="1159" y="1209" type="qcurve" smooth="yes"/>
      <point x="1178" y="1209"/>
      <point x="1200" y="1213" type="qcurve"/>
      <point x="1191" y="1153"/>
      <point x="1125" y="1017"/>
      <point x="1082" y="1011" type="qcurve"/>
      <point x="1072" y="1011" type="line" smooth="yes"/>
      <point x="1029" y="1011"/>
      <point x="962" y="1047" type="qcurve" smooth="yes"/>
      <point x="926" y="1065"/>
      <point x="903" y="1065" type="qcurve" smooth="yes"/>
      <point x="873" y="1065"/>
      <point x="860" y="1037" type="qcurve" smooth="yes"/>
      <point x="838" y="986" type="line"/>
      <point x="1100" y="936"/>
      <point x="1100" y="867" type="qcurve" smooth="yes"/>
      <point x="1100" y="128" type="line" smooth="yes"/>
      <point x="1100" y="0"/>
      <point x="1015" y="0" type="qcurve" smooth="yes"/>
      <point x="890" y="0" type="line" smooth="yes"/>
      <point x="750" y="0"/>
      <point x="750" y="217" type="qcurve" smooth="yes"/>
      <point x="750" y="393"/>
      <point x="850" y="426" type="qcurve"/>
      <point x="850" y="577" type="line"/>
      <point x="450" y="577" type="line"/>
      <point x="450" y="128" type="line" smooth="yes"/>
      <point x="450" y="0"/>
      <point x="365" y="0" type="qcurve" smooth="yes"/>
      <point x="240" y="0" type="line" smooth="yes"/>
      <point x="100" y="0"/>
      <point x="100" y="217" type="qcurve" smooth="yes"/>
      <point x="100" y="393"/>
      <point x="200" y="426" type="qcurve"/>
      <point x="200" y="817" type="line" smooth="yes"/>
      <point x="200" y="909"/>
      <point x="68" y="937" type="qcurve"/>
      <point x="86" y="1024"/>
      <point x="235" y="1300"/>
      <point x="283" y="1300" type="qcurve" smooth="yes"/>
      <point x="321" y="1300"/>
      <point x="384" y="1263" type="qcurve" smooth="yes"/>
      <point x="444" y="1225" type="line" smooth="yes"/>
      <point x="472" y="1209"/>
      <point x="509" y="1209" type="qcurve" smooth="yes"/>
      <point x="528" y="1209"/>
      <point x="550" y="1213" type="qcurve"/>
      <point x="541" y="1153"/>
      <point x="475" y="1017"/>
      <point x="432" y="1011" type="qcurve"/>
      <point x="422" y="1011" type="line" smooth="yes"/>
      <point x="379" y="1011"/>
      <point x="312" y="1047" type="qcurve" smooth="yes"/>
      <point x="276" y="1065"/>
      <point x="253" y="1065" type="qcurve" smooth="yes"/>
      <point x="223" y="1065"/>
      <point x="210" y="1037" type="qcurve" smooth="yes"/>
      <point x="188" y="986" type="line"/>
      <point x="450" y="936"/>
      <point x="450" y="867" type="qcurve" smooth="yes"/>
      <point x="450" y="677" type="line"/>
    </contour>
  </outline>
</glyph>
<glyph name="uni17A5" format="1">
  <advance width="1300"/>
  <unicode hex="17A5"/>
  <outline>
    <contour>
      <point x="100" y="1044" type="qcurve" smooth="yes"/>
      <point x="100" y="1117"/>
      <point x="302" y="1300"/>
      <point x="384" y="1300" type="qcurve" smooth="yes"/>
      <point x="473" y="1300"/>
      <point x="751" y="1143"/>
      <point x="820" y="1143" type="qcurve" smooth="yes"/>
      <point x="882" y="1143"/>
      <point x="950" y="1174"/>
      <point x="950" y="1233" type="qcurve" smooth="yes"/>
      <point x="950" y="1300"/>
      <point x="900" y="1300" type="qcurve" smooth="yes"/>
      <point x="800" y="1300"/>
      <point x="800" y="1409" type="qcurve" smooth="yes"/>
      <point x="800" y="1518"/>
      <point x="900" y="1518" type="qcurve" smooth="yes"/>
      <point x="1100" y="1518"/>
      <point x="1100" y="1277" type="qcurve" smooth="yes"/>
      <point x="1100" y="1156"/>
      <point x="939" y="983"/>
      <point x="770" y="983" type="qcurve" smooth="yes"/>
      <point x="618" y="983"/>
      <point x="461" y="1041" type="qcurve"/>
      <point x="386" y="1086"/>
      <point x="337" y="1086" type="qcurve" smooth="yes"/>
      <point x="294" y="1086"/>
      <point x="250" y="1044"/>
      <point x="250" y="1017" type="qcurve" smooth="yes"/>
      <point x="250" y="997"/>
      <point x="362" y="944" type="qcurve"/>
      <point x="227" y="868" type="line"/>
      <point x="100" y="931"/>
    </contour>
    <contour>
      <point x="450" y="433" type="line"/>
      <point x="475" y="433" type="line" smooth="yes"/>
      <point x="563" y="433"/>
      <point x="606" y="390" type="qcurve" smooth="yes"/>
      <point x="650" y="347"/>
      <point x="650" y="260" type="qcurve" smooth="yes"/>
      <point x="650" y="130"/>
      <point x="600" y="65" type="qcurve" smooth="yes"/>
      <point x="550" y="0"/>
      <point x="450" y="0" type="qcurve" smooth="yes"/>
      <point x="300" y="0" type="line" smooth="yes"/>
      <point x="200" y="0"/>
      <point x="200" y="130" type="qcurve" smooth="yes"/>
      <point x="200" y="650" type="line" smooth="yes"/>
      <point x="200" y="903"/>
      <point x="600" y="903" type="qcurve" smooth="yes"/>
      <point x="700" y="903" type="line" smooth="yes"/>
      <point x="1100" y="903"/>
      <point x="1100" y="650" type="qcurve" smooth="yes"/>
      <point x="1100" y="0" type="line"/>
      <point x="850" y="0" type="line"/>
      <point x="850" y="650" type="line" smooth="yes"/>
      <point x="850" y="803"/>
      <point x="700" y="803" type="qcurve" smooth="yes"/>
      <point x="600" y="803" type="line" smooth="yes"/>
      <point x="450" y="803"/>
      <point x="450" y="650" type="qcurve" smooth="yes"/>
    </contour>
    <contour>
      <point x="450" y="100" type="line"/>
      <point x="500" y="100"/>
      <point x="550" y="173"/>
      <point x="550" y="260" type="qcurve" smooth="yes"/>
      <point x="550" y="303"/>
      <point x="513" y="333"/>
      <point x="475" y="333" type="qcurve" smooth="yes"/>
      <point x="450" y="333" type="line"/>
    </contour>
  </outline>
</glyph>
<glyph name="uni17A6" format="1">
  <advance width="1950"/>
  <unicode hex="17A6"/>
  <outline>
    <contour>
      <point x="450" y="-426" type="line"/>
      <point x="490" y="-426"/>
      <point x="490" y="-369" type="qcurve" smooth="yes"/>
      <point x="490" y="-343"/>
      <point x="450" y="-343" type="qcurve"/>
    </contour>
    <contour>
      <point x="450" y="100" type="line"/>
      <point x="500" y="100"/>
      <point x="550" y="173"/>
      <point x="550" y="260" type="qcurve" smooth="yes"/>
      <point x="550" y="303"/>
      <point x="513" y="333"/>
      <point x="475" y="333" type="qcurve" smooth="yes"/>
      <point x="450" y="333" type="line"/>
    </contour>
    <contour>
      <point x="1100" y="0" type="line"/>
      <point x="850" y="0" type="line"/>
      <point x="850" y="997" type="line" smooth="yes"/>
      <point x="850" y="1200"/>
      <point x="700" y="1200" type="qcurve" smooth="yes"/>
      <point x="600" y="1200" type="line" smooth="yes"/>
      <point x="450" y="1200"/>
      <point x="450" y="997" type="qcurve" smooth="yes"/>
      <point x="450" y="433" type="line"/>
      <point x="475" y="433" type="line" smooth="yes"/>
      <point x="563" y="433"/>
      <point x="606" y="390" type="qcurve" smooth="yes"/>
      <point x="650" y="347"/>
      <point x="650" y="260" type="qcurve" smooth="yes"/>
      <point x="650" y="130"/>
      <point x="600" y="65" type="qcurve" smooth="yes"/>
      <point x="550" y="0"/>
      <point x="450" y="0" type="qcurve" smooth="yes"/>
      <point x="300" y="0" type="line" smooth="yes"/>
      <point x="200" y="0"/>
      <point x="200" y="130" type="qcurve" smooth="yes"/>
      <point x="200" y="997" type="line" smooth="yes"/>
      <point x="200" y="1300"/>
      <point x="600" y="1300" type="qcurve" smooth="yes"/>
      <point x="700" y="1300" type="line" smooth="yes"/>
      <point x="1100" y="1300"/>
      <point x="1100" y="997" type="qcurve" smooth="yes"/>
    </contour>
    <contour>
      <point x="1500" y="1370" type="line" smooth="yes"/>
      <point x="1500" y="1550"/>
      <point x="1316" y="1550" type="qcurve" smooth="yes"/>
      <point x="1100" y="1550" type="line" smooth="yes"/>
      <point x="900" y="1550"/>
      <point x="900" y="1721" type="qcurve" smooth="yes"/>
      <point x="900" y="1754"/>
      <point x="920" y="1823"/>
      <point x="920" y="1875" type="qcurve" smooth="yes"/>
      <point x="920" y="1906"/>
      <point x="880" y="1926" type="qcurve"/>
      <point x="880" y="2000"/>
      <point x="986" y="2000" type="qcurve" smooth="yes"/>
      <point x="1170" y="2000"/>
      <point x="1170" y="1875" type="qcurve" smooth="yes"/>
      <point x="1170" y="1812"/>
      <point x="1150" y="1758"/>
      <point x="1150" y="1721" type="qcurve" smooth="yes"/>
      <point x="1150" y="1650"/>
      <point x="1250" y="1650" type="qcurve" smooth="yes"/>
      <point x="1316" y="1650" type="line" smooth="yes"/>
      <point x="1750" y="1650"/>
      <point x="1750" y="1370" type="qcurve" smooth="yes"/>
      <point x="1750" y="-339" type="line" smooth="yes"/>
      <point x="1750" y="-510"/>
      <point x="1275" y="-510" type="qcurve" smooth="yes"/>
      <point x="850" y="-510"/>
      <point x="850" y="-339" type="qcurve" smooth="yes"/>
      <point x="850" y="-217" type="line" smooth="yes"/>
      <point x="850" y="-175"/>
      <point x="775" y="-134"/>
      <point x="650" y="-134" type="qcurve" smooth="yes"/>
      <point x="525" y="-134"/>
      <point x="450" y="-175"/>
      <point x="450" y="-217" type="qcurve" smooth="yes"/>
      <point x="450" y="-259" type="line"/>
      <point x="590" y="-259"/>
      <point x="590" y="-368" type="qcurve" smooth="yes"/>
      <point x="590" y="-510"/>
      <point x="450" y="-510" type="qcurve" smooth="yes"/>
      <point x="350" y="-510" type="line" smooth="yes"/>
      <point x="250" y="-510"/>
      <point x="250" y="-426" type="qcurve" smooth="yes"/>
      <point x="250" y="-217" type="line" smooth="yes"/>
      <point x="250" y="-134"/>
      <point x="350" y="-92" type="qcurve" smooth="yes"/>
      <point x="450" y="-50"/>
      <point x="650" y="-50" type="qcurve" smooth="yes"/>
      <point x="850" y="-50"/>
      <point x="950" y="-92" type="qcurve" smooth="yes"/>
      <point x="1050" y="-134"/>
      <point x="1050" y="-217" type="qcurve" smooth="yes"/>
      <point x="1050" y="-339" type="line" smooth="yes"/>
      <point x="1050" y="-426"/>
      <point x="1275" y="-426" type="qcurve" smooth="yes"/>
      <point x="1500" y="-426"/>
      <point x="1500" y="-339" type="qcurve" smooth="yes"/>
    </contour>
  </outline>
</glyph>
<glyph name="uni17A8" format="1">
  <advance width="1300"/>
  <unicode hex="17A8"/>
  <outline>
    <contour>
      <point x="252" y="1233" type="line"/>
      <point x="100" y="1287"/>
      <point x="100" y="1460" type="qcurve" smooth="yes"/>
      <point x="100" y="1547"/>
      <point x="342" y="1745"/>
      <point x="394" y="1745" type="qcurve" smooth="yes"/>
      <point x="433" y="1745"/>
      <point x="539" y="1645" type="qcurve"/>
      <point x="592" y="1600" type="line" smooth="yes"/>
      <point x="627" y="1571"/>
      <point x="650" y="1571" type="qcurve" smooth="yes"/>
      <point x="673" y="1571"/>
      <point x="701" y="1600" type="qcurve" smooth="yes"/>
      <point x="763" y="1661" type="line" smooth="yes"/>
      <point x="852" y="1745"/>
      <point x="888" y="1745" type="qcurve" smooth="yes"/>
      <point x="923" y="1745"/>
      <point x="982" y="1682" type="qcurve" smooth="yes"/>
      <point x="1098" y="1555" type="line" smooth="yes"/>
      <point x="1128" y="1518"/>
      <point x="1155" y="1518" type="qcurve" smooth="yes"/>
      <point x="1181" y="1518"/>
      <point x="1200" y="1535" type="qcurve"/>
      <point x="1150" y="1355"/>
      <point x="1065" y="1355" type="qcurve" smooth="yes"/>
      <point x="999" y="1355"/>
      <point x="952" y="1405" type="qcurve" smooth="yes"/>
      <point x="889" y="1470" type="line" smooth="yes"/>
      <point x="845" y="1512"/>
      <point x="820" y="1512" type="qcurve" smooth="yes"/>
      <point x="797" y="1512"/>
      <point x="650" y="1355"/>
      <point x="610" y="1355" type="qcurve" smooth="yes"/>
      <point x="537" y="1355"/>
      <point x="486" y="1405" type="qcurve" smooth="yes"/>
      <point x="415" y="1473" type="line"/>
      <point x="366" y="1512"/>
      <point x="337" y="1512" type="qcurve" smooth="yes"/>
      <point x="304" y="1512"/>
      <point x="250" y="1480"/>
      <point x="250" y="1443" type="qcurve" smooth="yes"/>
      <point x="250" y="1419"/>
      <point x="362" y="1340" type="qcurve"/>
    </contour>
    <contour>
      <point x="850" y="94" type="line"/>
      <point x="842" y="89"/>
      <point x="833" y="85" type="qcurve"/>
      <point x="759" y="0"/>
      <point x="650" y="0" type="qcurve" smooth="yes"/>
      <point x="498" y="0"/>
      <point x="200" y="201"/>
      <point x="200" y="273" type="qcurve" smooth="yes"/>
      <point x="200" y="407"/>
      <point x="427" y="504" type="qcurve"/>
      <point x="714" y="655" type="line"/>
      <point x="850" y="715"/>
      <point x="850" y="913" type="qcurve" smooth="yes"/>
      <point x="850" y="997" type="line" smooth="yes"/>
      <point x="850" y="1192"/>
      <point x="700" y="1192" type="qcurve" smooth="yes"/>
      <point x="600" y="1192" type="line" smooth="yes"/>
      <point x="458" y="1192"/>
      <point x="450" y="1013" type="qcurve"/>
      <point x="520" y="977"/>
      <point x="520" y="897" type="qcurve" smooth="yes"/>
      <point x="520" y="780"/>
      <point x="335" y="780" type="qcurve" smooth="yes"/>
      <point x="300" y="780"/>
      <point x="236" y="811"/>
      <point x="200" y="867"/>
      <point x="200" y="897" type="qcurve" smooth="yes"/>
      <point x="200" y="1040" type="line"/>
      <point x="202" y="1040" type="line"/>
      <point x="226" y="1300"/>
      <point x="600" y="1300" type="qcurve" smooth="yes"/>
      <point x="700" y="1300" type="line" smooth="yes"/>
      <point x="1100" y="1300"/>
      <point x="1100" y="997" type="qcurve" smooth="yes"/>
      <point x="1100" y="913" type="line" smooth="yes"/>
      <point x="1100" y="702"/>
      <point x="776" y="551" type="qcurve"/>
      <point x="503" y="399" type="line" smooth="yes"/>
      <point x="450" y="372"/>
      <point x="450" y="273" type="qcurve" smooth="yes"/>
      <point x="450" y="209"/>
      <point x="581" y="163"/>
      <point x="660" y="163" type="qcurve" smooth="yes"/>
      <point x="730" y="163"/>
      <point x="850" y="302"/>
      <point x="850" y="366" type="qcurve" smooth="yes"/>
      <point x="850" y="460" type="line"/>
      <point x="1054" y="569" type="line"/>
      <point x="1100" y="569" type="line"/>
      <point x="1100" y="-100" type="line"/>
      <point x="850" y="-100" type="line"/>
    </contour>
  </outline>
</glyph>
<glyph name="uni17A9" format="1">
  <advance width="1300"/>
  <unicode hex="17A9"/>
  <outline>
    <contour>
      <point x="1200" y="550" type="line"/>
      <point x="1350" y="550" type="line"/>
      <point x="1350" y="-100" type="line"/>
      <point x="1200" y="-100" type="line"/>
    </contour>
    <contour>
      <point x="850" y="94" type="line"/>
      <point x="842" y="89"/>
      <point x="833" y="85" type="qcurve"/>
      <point x="759" y="0"/>
      <point x="650" y="0" type="qcurve" smooth="yes"/>
      <point x="498" y="0"/>
      <point x="200" y="201"/>
      <point x="200" y="273" type="qcurve" smooth="yes"/>
      <point x="200" y="407"/>
      <point x="427" y="504" type="qcurve"/>
      <point x="714" y="655" type="line"/>
      <point x="850" y="715"/>
      <point x="850" y="913" type="qcurve" smooth="yes"/>
      <point x="850" y="997" type="line" smooth="yes"/>
      <point x="850" y="1192"/>
      <point x="700" y="1192" type="qcurve" smooth="yes"/>
      <point x="600" y="1192" type="line" smooth="yes"/>
      <point x="458" y="1192"/>
      <point x="450" y="1013" type="qcurve"/>
      <point x="520" y="977"/>
      <point x="520" y="897" type="qcurve" smooth="yes"/>
      <point x="520" y="780"/>
      <point x="335" y="780" type="qcurve" smooth="yes"/>
      <point x="300" y="780"/>
      <point x="236" y="811"/>
      <point x="200" y="867"/>
      <point x="200" y="897" type="qcurve" smooth="yes"/>
      <point x="200" y="1040" type="line"/>
      <point x="202" y="1040" type="line"/>
      <point x="226" y="1300"/>
      <point x="600" y="1300" type="qcurve" smooth="yes"/>
      <point x="700" y="1300" type="line" smooth="yes"/>
      <point x="1100" y="1300"/>
      <point x="1100" y="997" type="qcurve" smooth="yes"/>
      <point x="1100" y="913" type="line" smooth="yes"/>
      <point x="1100" y="702"/>
      <point x="776" y="551" type="qcurve"/>
      <point x="503" y="399" type="line" smooth="yes"/>
      <point x="450" y="372"/>
      <point x="450" y="273" type="qcurve" smooth="yes"/>
      <point x="450" y="209"/>
      <point x="581" y="163"/>
      <point x="660" y="163" type="qcurve" smooth="yes"/>
      <point x="730" y="163"/>
      <point x="850" y="302"/>
      <point x="850" y="366" type="qcurve" smooth="yes"/>
      <point x="850" y="460" type="line"/>
      <point x="1054" y="569" type="line"/>
      <point x="1100" y="569" type="line"/>
      <point x="1100" y="-100" type="line"/>
      <point x="850" y="-100" type="line"/>
    </contour>
  </outline>
</glyph>
<glyph name="uni17AA" format="1">
  <advance width="1300"/>
  <unicode hex="17AA"/>
  <outline>
    <contour>
      <point x="100" y="1421" type="qcurve" smooth="yes"/>
      <point x="100" y="1499"/>
      <point x="302" y="1694"/>
      <point x="384" y="1694" type="qcurve" smooth="yes"/>
      <point x="473" y="1694"/>
      <point x="751" y="1527"/>
      <point x="820" y="1527" type="qcurve" smooth="yes"/>
      <point x="882" y="1527"/>
      <point x="950" y="1560"/>
      <point x="950" y="1623" type="qcurve" smooth="yes"/>
      <point x="950" y="1694"/>
      <point x="900" y="1694" type="qcurve" smooth="yes"/>
      <point x="800" y="1694"/>
      <point x="800" y="1810" type="qcurve" smooth="yes"/>
      <point x="800" y="1927"/>
      <point x="900" y="1927" type="qcurve" smooth="yes"/>
      <point x="1100" y="1927"/>
      <point x="1100" y="1669" type="qcurve" smooth="yes"/>
      <point x="1100" y="1541"/>
      <point x="939" y="1355"/>
      <point x="770" y="1355" type="qcurve" smooth="yes"/>
      <point x="618" y="1355"/>
      <point x="461" y="1417" type="qcurve"/>
      <point x="386" y="1466"/>
      <point x="337" y="1466" type="qcurve" smooth="yes"/>
      <point x="294" y="1466"/>
      <point x="250" y="1421"/>
      <point x="250" y="1392" type="qcurve" smooth="yes"/>
      <point x="250" y="1371"/>
      <point x="362" y="1315" type="qcurve"/>
      <point x="227" y="1233" type="line"/>
      <point x="100" y="1301"/>
    </contour>
    <contour>
      <point x="850" y="94" type="line"/>
      <point x="842" y="89"/>
      <point x="833" y="85" type="qcurve"/>
      <point x="759" y="0"/>
      <point x="650" y="0" type="qcurve" smooth="yes"/>
      <point x="498" y="0"/>
      <point x="200" y="201"/>
      <point x="200" y="273" type="qcurve" smooth="yes"/>
      <point x="200" y="407"/>
      <point x="427" y="504" type="qcurve"/>
      <point x="714" y="655" type="line"/>
      <point x="850" y="715"/>
      <point x="850" y="913" type="qcurve" smooth="yes"/>
      <point x="850" y="997" type="line" smooth="yes"/>
      <point x="850" y="1192"/>
      <point x="700" y="1192" type="qcurve" smooth="yes"/>
      <point x="600" y="1192" type="line" smooth="yes"/>
      <point x="458" y="1192"/>
      <point x="450" y="1013" type="qcurve"/>
      <point x="520" y="977"/>
      <point x="520" y="897" type="qcurve" smooth="yes"/>
      <point x="520" y="780"/>
      <point x="335" y="780" type="qcurve" smooth="yes"/>
      <point x="300" y="780"/>
      <point x="236" y="811"/>
      <point x="200" y="867"/>
      <point x="200" y="897" type="qcurve" smooth="yes"/>
      <point x="200" y="1040" type="line"/>
      <point x="202" y="1040" type="line"/>
      <point x="226" y="1300"/>
      <point x="600" y="1300" type="qcurve" smooth="yes"/>
      <point x="700" y="1300" type="line" smooth="yes"/>
      <point x="1100" y="1300"/>
      <point x="1100" y="997" type="qcurve" smooth="yes"/>
      <point x="1100" y="913" type="line" smooth="yes"/>
      <point x="1100" y="702"/>
      <point x="776" y="551" type="qcurve"/>
      <point x="503" y="399" type="line" smooth="yes"/>
      <point x="450" y="372"/>
      <point x="450" y="273" type="qcurve" smooth="yes"/>
      <point x="450" y="209"/>
      <point x="581" y="163"/>
      <point x="660" y="163" type="qcurve" smooth="yes"/>
      <point x="730" y="163"/>
      <point x="850" y="302"/>
      <point x="850" y="366" type="qcurve" smooth="yes"/>
      <point x="850" y="460" type="line"/>
      <point x="1054" y="569" type="line"/>
      <point x="1100" y="569" type="line"/>
      <point x="1100" y="-100" type="line"/>
      <point x="850" y="-100" type="line"/>
    </contour>
  </outline>
</glyph>
<glyph name="uni17AD" format="1">
  <advance width="1300"/>
  <unicode hex="17AD"/>
  <outline>
    <contour>
      <point x="450" y="100" type="line"/>
      <point x="500" y="100"/>
      <point x="550" y="173"/>
      <point x="550" y="260" type="qcurve" smooth="yes"/>
      <point x="550" y="303"/>
      <point x="513" y="333"/>
      <point x="475" y="333" type="qcurve" smooth="yes"/>
      <point x="450" y="333" type="line"/>
    </contour>
    <contour>
      <point x="450" y="433" type="line"/>
      <point x="475" y="433" type="line" smooth="yes"/>
      <point x="563" y="433"/>
      <point x="606" y="390" type="qcurve" smooth="yes"/>
      <point x="650" y="347"/>
      <point x="650" y="260" type="qcurve" smooth="yes"/>
      <point x="650" y="130"/>
      <point x="600" y="65" type="qcurve" smooth="yes"/>
      <point x="550" y="0"/>
      <point x="450" y="0" type="qcurve" smooth="yes"/>
      <point x="300" y="0" type="line" smooth="yes"/>
      <point x="200" y="0"/>
      <point x="200" y="130" type="qcurve" smooth="yes"/>
      <point x="200" y="1000" type="line" smooth="yes"/>
      <point x="200" y="1122"/>
      <point x="407" y="1300"/>
      <point x="460" y="1300" type="qcurve" smooth="yes"/>
      <point x="505" y="1300"/>
      <point x="650" y="1166" type="qcurve"/>
      <point x="796" y="1300"/>
      <point x="841" y="1300" type="qcurve" smooth="yes"/>
      <point x="894" y="1300"/>
      <point x="1100" y="1122"/>
      <point x="1100" y="1000" type="qcurve" smooth="yes"/>
      <point x="1100" y="0" type="line"/>
      <point x="850" y="0" type="line"/>
      <point x="850" y="1000" type="line" smooth="yes"/>
      <point x="850" y="1108"/>
      <point x="790" y="1108" type="qcurve" smooth="yes"/>
      <point x="748" y="1108"/>
      <point x="650" y="1000" type="qcurve"/>
      <point x="553" y="1108"/>
      <point x="511" y="1108" type="qcurve" smooth="yes"/>
      <point x="450" y="1108"/>
      <point x="450" y="1000" type="qcurve" smooth="yes"/>
    </contour>
    <contour>
      <point x="766" y="-103" type="qcurve" smooth="yes"/>
      <point x="766" y="-50"/>
      <point x="896" y="-50" type="qcurve" smooth="yes"/>
      <point x="1016" y="-50"/>
      <point x="1067" y="-95" type="qcurve" smooth="yes"/>
      <point x="1100" y="-126"/>
      <point x="1100" y="-174" type="qcurve" smooth="yes"/>
      <point x="1100" y="-200"/>
      <point x="1091" y="-230" type="qcurve" smooth="yes"/>
      <point x="1056" y="-345"/>
      <point x="845" y="-427" type="qcurve" smooth="yes"/>
      <point x="634" y="-510"/>
      <point x="266" y="-510" type="qcurve" smooth="yes"/>
      <point x="66" y="-510"/>
      <point x="66" y="-474" type="qcurve"/>
      <point x="310" y="-449"/>
      <point x="557" y="-407"/>
      <point x="820" y="-278"/>
      <point x="842" y="-215" type="qcurve" smooth="yes"/>
      <point x="846" y="-201"/>
      <point x="846" y="-190" type="qcurve" smooth="yes"/>
      <point x="846" y="-156"/>
      <point x="806" y="-156" type="qcurve" smooth="yes"/>
      <point x="766" y="-156"/>
    </contour>
  </outline>
</glyph>
<glyph name="uni17AF" format="1">
  <advance width="1300"/>
  <unicode hex="17AF"/>
  <outline>
    <contour>
      <point x="850" y="1081" type="line"/>
      <point x="835" y="1173"/>
      <point x="750" y="1200"/>
      <point x="700" y="1200" type="qcurve" smooth="yes"/>
      <point x="640" y="1200"/>
      <point x="450" y="1090"/>
      <point x="450" y="1030" type="qcurve" smooth="yes"/>
      <point x="450" y="940" type="line"/>
      <point x="200" y="940"/>
      <point x="200" y="1030" type="qcurve" smooth="yes"/>
      <point x="200" y="1188"/>
      <point x="225" y="1253" type="qcurve" smooth="yes"/>
      <point x="250" y="1318"/>
      <point x="250" y="1390" type="qcurve" smooth="yes"/>
      <point x="250" y="1480"/>
      <point x="150" y="1480" type="qcurve"/>
      <point x="150" y="1570"/>
      <point x="250" y="1570" type="qcurve" smooth="yes"/>
      <point x="500" y="1570"/>
      <point x="500" y="1390" type="qcurve" smooth="yes"/>
      <point x="500" y="1305"/>
      <point x="475" y="1249" type="qcurve" smooth="yes"/>
      <point x="469" y="1234"/>
      <point x="464" y="1219" type="qcurve"/>
      <point x="468" y="1221"/>
      <point x="473" y="1224" type="qcurve" smooth="yes"/>
      <point x="570" y="1300"/>
      <point x="700" y="1300" type="qcurve" smooth="yes"/>
      <point x="850" y="1300"/>
      <point x="963" y="1251" type="qcurve" smooth="yes"/>
      <point x="1075" y="1201"/>
      <point x="1100" y="1081" type="qcurve"/>
      <point x="1100" y="0" type="line"/>
      <point x="850" y="0" type="line"/>
      <point x="650" y="193" type="line"/>
      <point x="450" y="0" type="line"/>
      <point x="200" y="0" type="line"/>
      <point x="200" y="520" type="line"/>
      <point x="100" y="554"/>
      <point x="100" y="624" type="qcurve" smooth="yes"/>
      <point x="100" y="694"/>
      <point x="180" y="780"/>
      <point x="250" y="780" type="qcurve" smooth="yes"/>
      <point x="350" y="780" type="line" smooth="yes"/>
      <point x="450" y="780"/>
      <point x="450" y="694" type="qcurve" smooth="yes"/>
      <point x="450" y="172" type="line"/>
      <point x="648" y="357" type="line"/>
      <point x="850" y="162" type="line"/>
    </contour>
  </outline>
</glyph>
<glyph name="uni17B0" format="1">
  <advance width="1300"/>
  <unicode hex="17B0"/>
  <outline>
    <contour>
      <point x="694" y="-184" type="qcurve"/>
      <point x="735" y="-195"/>
      <point x="764" y="-195" type="qcurve" smooth="yes"/>
      <point x="783" y="-195"/>
      <point x="797" y="-190" type="qcurve" smooth="yes"/>
      <point x="821" y="-180"/>
      <point x="856" y="-83" type="qcurve"/>
      <point x="775" y="-139"/>
    </contour>
    <contour>
      <point x="542" y="-366" type="qcurve" smooth="yes"/>
      <point x="568" y="-344"/>
      <point x="568" y="-283" type="qcurve" smooth="yes"/>
      <point x="568" y="-266"/>
      <point x="566" y="-246" type="qcurve"/>
      <point x="453" y="-297"/>
      <point x="338" y="-327" type="qcurve"/>
      <point x="409" y="-399"/>
      <point x="455" y="-399" type="qcurve" smooth="yes"/>
      <point x="500" y="-399"/>
    </contour>
    <contour>
      <point x="450" y="100" type="line"/>
      <point x="500" y="100"/>
      <point x="550" y="173"/>
      <point x="550" y="260" type="qcurve" smooth="yes"/>
      <point x="550" y="303"/>
      <point x="513" y="333"/>
      <point x="475" y="333" type="qcurve" smooth="yes"/>
      <point x="450" y="333" type="line"/>
    </contour>
    <contour>
      <point x="850" y="1000" type="line" smooth="yes"/>
      <point x="850" y="1108"/>
      <point x="790" y="1108" type="qcurve" smooth="yes"/>
      <point x="748" y="1108"/>
      <point x="650" y="1000" type="qcurve"/>
      <point x="553" y="1108"/>
      <point x="511" y="1108" type="qcurve" smooth="yes"/>
      <point x="450" y="1108"/>
      <point x="450" y="1000" type="qcurve" smooth="yes"/>
      <point x="450" y="433" type="line"/>
      <point x="475" y="433" type="line" smooth="yes"/>
      <point x="563" y="433"/>
      <point x="606" y="390" type="qcurve" smooth="yes"/>
      <point x="650" y="347"/>
      <point x="650" y="260" type="qcurve" smooth="yes"/>
      <point x="650" y="130"/>
      <point x="600" y="65" type="qcurve" smooth="yes"/>
      <point x="550" y="0"/>
      <point x="450" y="0" type="qcurve" smooth="yes"/>
      <point x="300" y="0" type="line" smooth="yes"/>
      <point x="200" y="0"/>
      <point x="200" y="130" type="qcurve" smooth="yes"/>
      <point x="200" y="1000" type="line" smooth="yes"/>
      <point x="200" y="1122"/>
      <point x="407" y="1300"/>
      <point x="460" y="1300" type="qcurve" smooth="yes"/>
      <point x="505" y="1300"/>
      <point x="650" y="1166" type="qcurve"/>
      <point x="796" y="1300"/>
      <point x="841" y="1300" type="qcurve" smooth="yes"/>
      <point x="894" y="1300"/>
      <point x="1100" y="1122"/>
      <point x="1100" y="1000" type="qcurve" smooth="yes"/>
      <point x="1100" y="33" type="line"/>
      <point x="1080" y="-9"/>
      <point x="1060" y="-75" type="qcurve" smooth="yes"/>
      <point x="1009" y="-243"/>
      <point x="922" y="-283" type="qcurve" smooth="yes"/>
      <point x="879" y="-303"/>
      <point x="831" y="-303" type="qcurve" smooth="yes"/>
      <point x="775" y="-303"/>
      <point x="713" y="-275" type="qcurve"/>
      <point x="724" y="-307"/>
      <point x="724" y="-335" type="qcurve" smooth="yes"/>
      <point x="724" y="-401"/>
      <point x="662" y="-451" type="qcurve" smooth="yes"/>
      <point x="573" y="-521"/>
      <point x="486" y="-521" type="qcurve" smooth="yes"/>
      <point x="398" y="-521"/>
      <point x="300" y="-464" type="qcurve" smooth="yes"/>
      <point x="200" y="-407"/>
      <point x="200" y="-345" type="qcurve" smooth="yes"/>
      <point x="200" y="-228"/>
      <point x="309" y="-204" type="qcurve"/>
      <point x="601" y="-125"/>
      <point x="850" y="41" type="qcurve"/>
    </contour>
  </outline>
</glyph>
<glyph name="uni17B1" format="1">
  <advance width="1300"/>
  <unicode hex="17B1"/>
  <outline>
    <contour>
      <point x="308" y="1232" type="qcurve"/>
      <point x="150" y="1316"/>
      <point x="150" y="1409" type="qcurve" smooth="yes"/>
      <point x="150" y="1478" type="line" smooth="yes"/>
      <point x="150" y="1527"/>
      <point x="215" y="1585" type="qcurve" smooth="yes"/>
      <point x="281" y="1641" type="line" smooth="yes"/>
      <point x="380" y="1728"/>
      <point x="509" y="1728" type="qcurve" smooth="yes"/>
      <point x="551" y="1728"/>
      <point x="597" y="1719" type="qcurve" smooth="yes"/>
      <point x="1150" y="1601"/>
      <point x="1150" y="1337" type="qcurve" smooth="yes"/>
      <point x="1150" y="1206"/>
      <point x="1075" y="1206" type="qcurve" smooth="yes"/>
      <point x="1000" y="1206"/>
      <point x="1000" y="1337" type="qcurve" smooth="yes"/>
      <point x="1000" y="1422"/>
      <point x="590" y="1521" type="qcurve"/>
      <point x="522" y="1525"/>
      <point x="471" y="1525" type="qcurve" smooth="yes"/>
      <point x="338" y="1525"/>
      <point x="300" y="1478"/>
      <point x="300" y="1443" type="qcurve" smooth="yes"/>
      <point x="300" y="1404"/>
      <point x="433" y="1283" type="qcurve"/>
      <point x="505" y="1300"/>
      <point x="600" y="1300" type="qcurve" smooth="yes"/>
      <point x="700" y="1300" type="line" smooth="yes"/>
      <point x="1100" y="1300"/>
      <point x="1100" y="997" type="qcurve" smooth="yes"/>
      <point x="1100" y="913" type="line" smooth="yes"/>
      <point x="1100" y="702"/>
      <point x="776" y="551" type="qcurve"/>
      <point x="503" y="399" type="line" smooth="yes"/>
      <point x="450" y="372"/>
      <point x="450" y="273" type="qcurve" smooth="yes"/>
      <point x="450" y="209"/>
      <point x="581" y="163"/>
      <point x="660" y="163" type="qcurve" smooth="yes"/>
      <point x="730" y="163"/>
      <point x="850" y="302"/>
      <point x="850" y="366" type="qcurve" smooth="yes"/>
      <point x="850" y="460" type="line"/>
      <point x="1054" y="569" type="line"/>
      <point x="1100" y="569" type="line"/>
      <point x="1100" y="-100" type="line"/>
      <point x="850" y="-100" type="line"/>
      <point x="850" y="94" type="line"/>
      <point x="842" y="89"/>
      <point x="833" y="85" type="qcurve"/>
      <point x="759" y="0"/>
      <point x="650" y="0" type="qcurve" smooth="yes"/>
      <point x="498" y="0"/>
      <point x="200" y="201"/>
      <point x="200" y="273" type="qcurve" smooth="yes"/>
      <point x="200" y="407"/>
      <point x="427" y="504" type="qcurve"/>
      <point x="714" y="655" type="line"/>
      <point x="850" y="715"/>
      <point x="850" y="913" type="qcurve" smooth="yes"/>
      <point x="850" y="997" type="line" smooth="yes"/>
      <point x="850" y="1192"/>
      <point x="700" y="1192" type="qcurve" smooth="yes"/>
      <point x="600" y="1192" type="line" smooth="yes"/>
      <point x="458" y="1192"/>
      <point x="450" y="1013" type="qcurve"/>
      <point x="520" y="977"/>
      <point x="520" y="897" type="qcurve" smooth="yes"/>
      <point x="520" y="780"/>
      <point x="335" y="780" type="qcurve" smooth="yes"/>
      <point x="300" y="780"/>
      <point x="236" y="811"/>
      <point x="200" y="867"/>
      <point x="200" y="897" type="qcurve" smooth="yes"/>
      <point x="200" y="1040" type="line"/>
      <point x="202" y="1040" type="line"/>
      <point x="214" y="1167"/>
    </contour>
  </outline>
</glyph>
<glyph name="uni17B2" format="1">
  <advance width="1300"/>
  <unicode hex="17B2"/>
  <outline>
    <contour>
      <point x="977" y="532" type="qcurve"/>
      <point x="1024" y="514"/>
      <point x="1053" y="482" type="qcurve" smooth="yes"/>
      <point x="1100" y="429"/>
      <point x="1100" y="338" type="qcurve" smooth="yes"/>
      <point x="1100" y="303" type="line" smooth="yes"/>
      <point x="1100" y="0"/>
      <point x="700" y="0" type="qcurve" smooth="yes"/>
      <point x="600" y="0" type="line" smooth="yes"/>
      <point x="200" y="0"/>
      <point x="200" y="303" type="qcurve" smooth="yes"/>
      <point x="200" y="1089" type="line"/>
      <point x="225" y="1205"/>
      <point x="338" y="1252" type="qcurve" smooth="yes"/>
      <point x="450" y="1300"/>
      <point x="650" y="1300" type="qcurve" smooth="yes"/>
      <point x="850" y="1300"/>
      <point x="963" y="1252" type="qcurve" smooth="yes"/>
      <point x="1075" y="1205"/>
      <point x="1100" y="1089" type="qcurve"/>
      <point x="1100" y="1040"/>
      <point x="1025" y="1040" type="qcurve" smooth="yes"/>
      <point x="950" y="1040"/>
      <point x="950" y="1069" type="qcurve"/>
      <point x="935" y="1159"/>
      <point x="750" y="1200"/>
      <point x="650" y="1200" type="qcurve" smooth="yes"/>
      <point x="550" y="1200"/>
      <point x="465" y="1139"/>
      <point x="450" y="1069" type="qcurve"/>
      <point x="450" y="303" type="line" smooth="yes"/>
      <point x="450" y="100"/>
      <point x="600" y="100" type="qcurve" smooth="yes"/>
      <point x="700" y="100" type="line" smooth="yes"/>
      <point x="850" y="100"/>
      <point x="850" y="303" type="qcurve" smooth="yes"/>
      <point x="850" y="338" type="line" smooth="yes"/>
      <point x="850" y="387"/>
      <point x="833" y="418" type="qcurve"/>
      <point x="698" y="314" type="line" smooth="yes"/>
      <point x="679" y="299"/>
      <point x="660" y="299" type="qcurve" smooth="yes"/>
      <point x="633" y="299"/>
      <point x="607" y="331" type="qcurve" smooth="yes"/>
      <point x="586" y="358"/>
      <point x="586" y="379" type="qcurve" smooth="yes"/>
      <point x="586" y="400"/>
      <point x="607" y="416" type="qcurve" smooth="yes"/>
      <point x="720" y="500" type="line" smooth="yes"/>
      <point x="861" y="604"/>
      <point x="900" y="720"/>
      <point x="900" y="750" type="qcurve" smooth="yes"/>
      <point x="900" y="796"/>
      <point x="863" y="837"/>
      <point x="825" y="837" type="qcurve" smooth="yes"/>
      <point x="765" y="837"/>
      <point x="734" y="817" type="qcurve" smooth="yes"/>
      <point x="700" y="795"/>
      <point x="700" y="750" type="qcurve" smooth="yes"/>
      <point x="700" y="698"/>
      <point x="810" y="698" type="qcurve"/>
      <point x="750" y="620"/>
      <point x="687" y="620" type="qcurve" smooth="yes"/>
      <point x="628" y="620"/>
      <point x="589" y="653" type="qcurve" smooth="yes"/>
      <point x="550" y="685"/>
      <point x="550" y="750" type="qcurve" smooth="yes"/>
      <point x="550" y="838"/>
      <point x="690" y="983"/>
      <point x="825" y="983" type="qcurve" smooth="yes"/>
      <point x="959" y="983"/>
      <point x="1100" y="839"/>
      <point x="1100" y="750" type="qcurve" smooth="yes"/>
      <point x="1100" y="702"/>
      <point x="1070" y="649" type="qcurve" smooth="yes"/>
      <point x="1039" y="594"/>
    </contour>
  </outline>
</glyph>
<glyph name="uni17B3" format="1">
  <advance width="1300"/>
  <unicode hex="17B3"/>
  <outline>
    <contour>
      <point x="321" y="1240" type="qcurve"/>
      <point x="150" y="1326"/>
      <point x="150" y="1423" type="qcurve" smooth="yes"/>
      <point x="150" y="1491" type="line" smooth="yes"/>
      <point x="150" y="1540"/>
      <point x="215" y="1596" type="qcurve" smooth="yes"/>
      <point x="281" y="1652" type="line" smooth="yes"/>
      <point x="380" y="1738"/>
      <point x="509" y="1738" type="qcurve" smooth="yes"/>
      <point x="551" y="1738"/>
      <point x="597" y="1730" type="qcurve" smooth="yes"/>
      <point x="686" y="1710"/>
      <point x="761" y="1687" type="qcurve"/>
      <point x="811" y="1898"/>
      <point x="1100" y="1898" type="qcurve" smooth="yes"/>
      <point x="1150" y="1898"/>
      <point x="1150" y="1803" type="qcurve" smooth="yes"/>
      <point x="1150" y="1707"/>
      <point x="1100" y="1707" type="qcurve" smooth="yes"/>
      <point x="918" y="1707"/>
      <point x="918" y="1643" type="qcurve" smooth="yes"/>
      <point x="918" y="1637"/>
      <point x="920" y="1630" type="qcurve"/>
      <point x="1150" y="1517"/>
      <point x="1150" y="1351" type="qcurve" smooth="yes"/>
      <point x="1150" y="1220"/>
      <point x="1075" y="1220" type="qcurve" smooth="yes"/>
      <point x="1036" y="1220"/>
      <point x="1003" y="1227" type="qcurve" smooth="yes"/>
      <point x="998" y="1228"/>
      <point x="994" y="1229" type="qcurve"/>
      <point x="1100" y="1153"/>
      <point x="1100" y="997" type="qcurve" smooth="yes"/>
      <point x="1100" y="913" type="line" smooth="yes"/>
      <point x="1100" y="702"/>
      <point x="776" y="551" type="qcurve"/>
      <point x="503" y="399" type="line" smooth="yes"/>
      <point x="450" y="372"/>
      <point x="450" y="273" type="qcurve" smooth="yes"/>
      <point x="450" y="209"/>
      <point x="581" y="163"/>
      <point x="660" y="163" type="qcurve" smooth="yes"/>
      <point x="730" y="163"/>
      <point x="850" y="302"/>
      <point x="850" y="366" type="qcurve" smooth="yes"/>
      <point x="850" y="460" type="line"/>
      <point x="1054" y="569" type="line"/>
      <point x="1100" y="569" type="line"/>
      <point x="1100" y="-100" type="line"/>
      <point x="850" y="-100" type="line"/>
      <point x="850" y="94" type="line"/>
      <point x="842" y="89"/>
      <point x="833" y="85" type="qcurve"/>
      <point x="759" y="0"/>
      <point x="650" y="0" type="qcurve" smooth="yes"/>
      <point x="498" y="0"/>
      <point x="200" y="201"/>
      <point x="200" y="273" type="qcurve" smooth="yes"/>
      <point x="200" y="407"/>
      <point x="427" y="504" type="qcurve"/>
      <point x="714" y="655" type="line"/>
      <point x="850" y="715"/>
      <point x="850" y="913" type="qcurve" smooth="yes"/>
      <point x="850" y="997" type="line" smooth="yes"/>
      <point x="850" y="1192"/>
      <point x="700" y="1192" type="qcurve" smooth="yes"/>
      <point x="600" y="1192" type="line" smooth="yes"/>
      <point x="458" y="1192"/>
      <point x="450" y="1013" type="qcurve"/>
      <point x="520" y="977"/>
      <point x="520" y="897" type="qcurve" smooth="yes"/>
      <point x="520" y="780"/>
      <point x="335" y="780" type="qcurve" smooth="yes"/>
      <point x="300" y="780"/>
      <point x="236" y="811"/>
      <point x="200" y="867"/>
      <point x="200" y="897" type="qcurve" smooth="yes"/>
      <point x="200" y="1040" type="line"/>
      <point x="202" y="1040" type="line"/>
      <point x="214" y="1175"/>
    </contour>
    <contour>
      <point x="854" y="1286" type="qcurve"/>
      <point x="765" y="1349"/>
      <point x="752" y="1467" type="qcurve"/>
      <point x="681" y="1517"/>
      <point x="513" y="1517" type="qcurve" smooth="yes"/>
      <point x="344" y="1517"/>
      <point x="300" y="1479"/>
      <point x="300" y="1445" type="qcurve" smooth="yes"/>
      <point x="300" y="1414"/>
      <point x="445" y="1286" type="qcurve"/>
      <point x="513" y="1300"/>
      <point x="600" y="1300" type="qcurve" smooth="yes"/>
      <point x="700" y="1300" type="line" smooth="yes"/>
      <point x="786" y="1300"/>
    </contour>
  </outline>
</glyph>
<glyph name="uni17B6" format="1">
  <advance width="650"/>
  <unicode hex="17B6"/>
  <outline>
    <contour>
      <point x="200" y="928" type="line" smooth="yes"/>
      <point x="200" y="972"/>
      <point x="144" y="1007" type="qcurve" smooth="yes"/>
      <point x="38" y="1069" type="line" smooth="yes"/>
      <point x="-44" y="1119"/>
      <point x="-117" y="1119" type="qcurve" smooth="yes"/>
      <point x="-174" y="1119"/>
      <point x="-272" y="1065" type="qcurve"/>
      <point x="-295" y="1143"/>
      <point x="-295" y="1169" type="qcurve" smooth="yes"/>
      <point x="-295" y="1210"/>
      <point x="-240" y="1244" type="qcurve" smooth="yes"/>
      <point x="-148" y="1300"/>
      <point x="-57" y="1300" type="qcurve" smooth="yes"/>
      <point x="47" y="1300"/>
      <point x="151" y="1238" type="qcurve" smooth="yes"/>
      <point x="297" y="1151" type="line" smooth="yes"/>
      <point x="450" y="1060"/>
      <point x="450" y="928" type="qcurve" smooth="yes"/>
      <point x="450" y="0" type="line"/>
      <point x="200" y="0" type="line"/>
    </contour>
  </outline>
</glyph>
<glyph name="uni17B7" format="1">
  <advance width="0"/>
  <unicode hex="17B7"/>
  <outline>
    <contour>
      <point x="-1085" y="1750" type="qcurve" smooth="yes"/>
      <point x="-1085" y="1950"/>
      <point x="-765" y="1950" type="qcurve" smooth="yes"/>
      <point x="-565" y="1950"/>
      <point x="-390" y="1800" type="qcurve" smooth="yes"/>
      <point x="-259" y="1688" type="line" smooth="yes"/>
      <point x="-215" y="1650"/>
      <point x="-215" y="1600" type="qcurve" smooth="yes"/>
      <point x="-215" y="1550"/>
      <point x="-285" y="1550" type="qcurve" smooth="yes"/>
      <point x="-835" y="1550" type="line" smooth="yes"/>
      <point x="-1085" y="1550"/>
    </contour>
    <contour>
      <point x="-835" y="1700" type="qcurve" smooth="yes"/>
      <point x="-485" y="1700" type="line"/>
      <point x="-594" y="1800"/>
      <point x="-765" y="1800" type="qcurve" smooth="yes"/>
      <point x="-925" y="1800"/>
      <point x="-925" y="1750" type="qcurve" smooth="yes"/>
      <point x="-925" y="1700"/>
    </contour>
  </outline>
</glyph>
<glyph name="uni17B9" format="1">
  <advance width="0"/>
  <unicode hex="17B9"/>
  <outline>
    <contour>
      <point x="-835" y="1700" type="qcurve" smooth="yes"/>
      <point x="-485" y="1700" type="line"/>
      <point x="-594" y="1800"/>
      <point x="-765" y="1800" type="qcurve" smooth="yes"/>
      <point x="-925" y="1800"/>
      <point x="-925" y="1750" type="qcurve" smooth="yes"/>
      <point x="-925" y="1700"/>
    </contour>
    <contour>
      <point x="-553" y="1905" type="qcurve"/>
      <point x="-542" y="1935"/>
      <point x="-521" y="1956" type="qcurve" smooth="yes"/>
      <point x="-477" y="2000"/>
      <point x="-390" y="2000" type="qcurve" smooth="yes"/>
      <point x="-302" y="2000"/>
      <point x="-258" y="1956" type="qcurve" smooth="yes"/>
      <point x="-215" y="1913"/>
      <point x="-215" y="1825" type="qcurve" smooth="yes"/>
      <point x="-215" y="1737"/>
      <point x="-258" y="1694" type="qcurve" smooth="yes"/>
      <point x="-260" y="1692"/>
      <point x="-261" y="1691" type="qcurve" smooth="yes"/>
      <point x="-259" y="1688" type="line"/>
      <point x="-215" y="1650"/>
      <point x="-215" y="1600" type="qcurve" smooth="yes"/>
      <point x="-215" y="1550"/>
      <point x="-285" y="1550" type="qcurve" smooth="yes"/>
      <point x="-835" y="1550" type="line" smooth="yes"/>
      <point x="-1085" y="1550"/>
      <point x="-1085" y="1750" type="qcurve" smooth="yes"/>
      <point x="-1085" y="1950"/>
      <point x="-765" y="1950" type="qcurve" smooth="yes"/>
      <point x="-655" y="1950"/>
    </contour>
    <contour>
      <point x="-427" y="1839" type="qcurve" smooth="yes"/>
      <point x="-427" y="1814"/>
      <point x="-414" y="1801" type="qcurve" smooth="yes"/>
      <point x="-401" y="1789"/>
      <point x="-377" y="1789" type="qcurve" smooth="yes"/>
      <point x="-351" y="1789"/>
      <point x="-339" y="1801" type="qcurve" smooth="yes"/>
      <point x="-327" y="1814"/>
      <point x="-327" y="1839" type="qcurve" smooth="yes"/>
      <point x="-327" y="1864"/>
      <point x="-339" y="1876" type="qcurve" smooth="yes"/>
      <point x="-351" y="1889"/>
      <point x="-377" y="1889" type="qcurve" smooth="yes"/>
      <point x="-401" y="1889"/>
      <point x="-414" y="1876" type="qcurve" smooth="yes"/>
      <point x="-427" y="1864"/>
    </contour>
  </outline>
</glyph>
<glyph name="uni17BA" format="1">
  <advance width="0"/>
  <unicode hex="17BA"/>
  <outline>
    <contour>
      <point x="-835" y="1700" type="qcurve" smooth="yes"/>
      <point x="-485" y="1700" type="line"/>
      <point x="-594" y="1800"/>
      <point x="-765" y="1800" type="qcurve" smooth="yes"/>
      <point x="-925" y="1800"/>
      <point x="-925" y="1750" type="qcurve" smooth="yes"/>
      <point x="-925" y="1700"/>
    </contour>
    <contour>
      <point x="-365" y="1779" type="line"/>
      <point x="-365" y="1950" type="line"/>
      <point x="-215" y="1950" type="line"/>
      <point x="-215" y="1600" type="line" smooth="yes"/>
      <point x="-215" y="1550"/>
      <point x="-285" y="1550" type="qcurve" smooth="yes"/>
      <point x="-835" y="1550" type="line" smooth="yes"/>
      <point x="-1085" y="1550"/>
      <point x="-1085" y="1750" type="qcurve" smooth="yes"/>
      <point x="-1085" y="1950"/>
      <point x="-765" y="1950" type="qcurve" smooth="yes"/>
      <point x="-683" y="1950"/>
      <point x="-605" y="1925" type="qcurve"/>
      <point x="-605" y="2000" type="line"/>
      <point x="-455" y="2000" type="line"/>
      <point x="-455" y="1850" type="line"/>
      <point x="-422" y="1827"/>
      <point x="-390" y="1800" type="qcurve" smooth="yes"/>
    </contour>
  </outline>
</glyph>
<glyph name="uni17BC" format="1">
  <advance width="0"/>
  <unicode hex="17BC"/>
  <outline>
    <contour>
      <point x="-500" y="-510" type="qcurve" smooth="yes"/>
      <point x="-683" y="-510"/>
      <point x="-728" y="-455" type="qcurve" smooth="yes"/>
      <point x="-760" y="-416"/>
      <point x="-760" y="-377" type="qcurve" smooth="yes"/>
      <point x="-760" y="-360"/>
      <point x="-754" y="-344" type="qcurve" smooth="yes"/>
      <point x="-704" y="-217" type="line"/>
      <point x="-784" y="-217"/>
      <point x="-784" y="-134" type="qcurve" smooth="yes"/>
      <point x="-784" y="-50"/>
      <point x="-614" y="-50" type="qcurve" smooth="yes"/>
      <point x="-491" y="-50"/>
      <point x="-491" y="-155" type="qcurve" smooth="yes"/>
      <point x="-491" y="-198"/>
      <point x="-512" y="-259" type="qcurve" smooth="yes"/>
      <point x="-533" y="-325" type="line" smooth="yes"/>
      <point x="-540" y="-340"/>
      <point x="-540" y="-352" type="qcurve" smooth="yes"/>
      <point x="-540" y="-385"/>
      <point x="-500" y="-385" type="qcurve" smooth="yes"/>
      <point x="-427" y="-385"/>
      <point x="-262" y="-50"/>
      <point x="-208" y="-50" type="qcurve" smooth="yes"/>
      <point x="-133" y="-50"/>
      <point x="-133" y="-108" type="qcurve" smooth="yes"/>
      <point x="-133" y="-180"/>
      <point x="-269" y="-510"/>
    </contour>
  </outline>
</glyph>
<glyph name="uni17BD" format="1">
  <advance width="0"/>
  <unicode hex="17BD"/>
  <outline>
    <contour>
      <point x="-501" y="-421" type="qcurve"/>
      <point x="-618" y="-510"/>
      <point x="-713" y="-510" type="qcurve" smooth="yes"/>
      <point x="-849" y="-510"/>
      <point x="-849" y="-402" type="qcurve" smooth="yes"/>
      <point x="-849" y="-338"/>
      <point x="-739" y="-217" type="qcurve" smooth="yes"/>
      <point x="-718" y="-196"/>
      <point x="-718" y="-179" type="qcurve" smooth="yes"/>
      <point x="-718" y="-150"/>
      <point x="-760" y="-134" type="qcurve"/>
      <point x="-760" y="-50"/>
      <point x="-613" y="-50" type="qcurve" smooth="yes"/>
      <point x="-500" y="-50"/>
      <point x="-500" y="-106" type="qcurve" smooth="yes"/>
      <point x="-500" y="-163"/>
      <point x="-662" y="-347"/>
      <point x="-662" y="-375" type="qcurve" smooth="yes"/>
      <point x="-662" y="-385"/>
      <point x="-653" y="-385" type="qcurve" smooth="yes"/>
      <point x="-621" y="-385"/>
      <point x="-450" y="-249" type="qcurve"/>
      <point x="-369" y="-385"/>
      <point x="-343" y="-385" type="qcurve" smooth="yes"/>
      <point x="-310" y="-385"/>
      <point x="-275" y="-226" type="qcurve"/>
      <point x="-251" y="-50"/>
      <point x="-162" y="-50" type="qcurve" smooth="yes"/>
      <point x="-103" y="-50"/>
      <point x="-103" y="-132" type="qcurve" smooth="yes"/>
      <point x="-103" y="-214"/>
      <point x="-120" y="-299" type="qcurve" smooth="yes"/>
      <point x="-157" y="-510"/>
      <point x="-343" y="-510" type="qcurve" smooth="yes"/>
      <point x="-426" y="-510"/>
    </contour>
  </outline>
</glyph>
<glyph name="uni17BE" format="1">
  <advance width="0"/>
  <unicode hex="17BE"/>
  <outline>
    <contour>
      <point x="-835" y="1700" type="qcurve" smooth="yes"/>
      <point x="-485" y="1700" type="line"/>
      <point x="-594" y="1800"/>
      <point x="-765" y="1800" type="qcurve" smooth="yes"/>
      <point x="-925" y="1800"/>
      <point x="-925" y="1750" type="qcurve" smooth="yes"/>
      <point x="-925" y="1700"/>
    </contour>
    <contour>
      <point x="-385" y="1796" type="line"/>
      <point x="-385" y="1950" type="line"/>
      <point x="-215" y="1950" type="line"/>
      <point x="-215" y="1600" type="line" smooth="yes"/>
      <point x="-215" y="1550"/>
      <point x="-285" y="1550" type="qcurve" smooth="yes"/>
      <point x="-835" y="1550" type="line" smooth="yes"/>
      <point x="-1085" y="1550"/>
      <point x="-1085" y="1750" type="qcurve" smooth="yes"/>
      <point x="-1085" y="1950"/>
      <point x="-765" y="1950" type="qcurve" smooth="yes"/>
      <point x="-565" y="1950"/>
      <point x="-390" y="1800" type="qcurve"/>
    </contour>
  </outline>
</glyph>
<glyph name="uni17C0" format="1">
  <advance width="650"/>
  <unicode hex="17C0"/>
  <outline>
    <contour>
      <point x="450" y="-280" type="line" smooth="yes"/>
      <point x="450" y="-530"/>
      <point x="0" y="-530" type="qcurve" smooth="yes"/>
      <point x="-450" y="-530"/>
      <point x="-450" y="-280" type="qcurve" smooth="yes"/>
      <point x="-450" y="-50" type="line"/>
      <point x="-200" y="-50" type="line"/>
      <point x="-200" y="-280" type="line" smooth="yes"/>
      <point x="-200" y="-430"/>
      <point x="0" y="-430" type="qcurve" smooth="yes"/>
      <point x="200" y="-430"/>
      <point x="200" y="-280" type="qcurve" smooth="yes"/>
      <point x="200" y="1370" type="line" smooth="yes"/>
      <point x="200" y="1550"/>
      <point x="16" y="1550" type="qcurve" smooth="yes"/>
      <point x="-200" y="1550" type="line" smooth="yes"/>
      <point x="-400" y="1550"/>
      <point x="-400" y="1721" type="qcurve" smooth="yes"/>
      <point x="-400" y="1754"/>
      <point x="-380" y="1823"/>
      <point x="-380" y="1875" type="qcurve" smooth="yes"/>
      <point x="-380" y="1906"/>
      <point x="-420" y="1926" type="qcurve"/>
      <point x="-420" y="2000"/>
      <point x="-314" y="2000" type="qcurve" smooth="yes"/>
      <point x="-130" y="2000"/>
      <point x="-130" y="1875" type="qcurve" smooth="yes"/>
      <point x="-130" y="1812"/>
      <point x="-150" y="1758"/>
      <point x="-150" y="1721" type="qcurve" smooth="yes"/>
      <point x="-150" y="1650"/>
      <point x="-50" y="1650" type="qcurve" smooth="yes"/>
      <point x="16" y="1650" type="line" smooth="yes"/>
      <point x="450" y="1650"/>
      <point x="450" y="1370" type="qcurve" smooth="yes"/>
    </contour>
  </outline>
</glyph>
<glyph name="uni17C2" format="1">
  <advance width="650"/>
  <unicode hex="17C2"/>
  <outline>
    <contour>
      <point x="270" y="1586" type="qcurve"/>
      <point x="215" y="1586"/>
      <point x="215" y="1564" type="qcurve" smooth="yes"/>
      <point x="215" y="1541"/>
      <point x="270" y="1541" type="qcurve" smooth="yes"/>
      <point x="317" y="1541"/>
      <point x="400" y="1597"/>
      <point x="400" y="1646" type="qcurve" smooth="yes"/>
      <point x="400" y="1695"/>
      <point x="370" y="1730" type="qcurve" smooth="yes"/>
      <point x="340" y="1764"/>
      <point x="250" y="1794"/>
      <point x="250" y="1832" type="qcurve" smooth="yes"/>
      <point x="250" y="1900"/>
      <point x="340" y="1900" type="qcurve" smooth="yes"/>
      <point x="452" y="1900"/>
      <point x="526" y="1835" type="qcurve" smooth="yes"/>
      <point x="600" y="1768"/>
      <point x="600" y="1645" type="qcurve" smooth="yes"/>
      <point x="600" y="1550"/>
      <point x="528" y="1475" type="qcurve" smooth="yes"/>
      <point x="455" y="1400"/>
      <point x="270" y="1400" type="qcurve" smooth="yes"/>
      <point x="188" y="1400"/>
      <point x="119" y="1428" type="qcurve" smooth="yes"/>
      <point x="50" y="1456"/>
      <point x="50" y="1564" type="qcurve" smooth="yes"/>
      <point x="50" y="1621"/>
      <point x="78" y="1649" type="qcurve" smooth="yes"/>
      <point x="105" y="1677"/>
      <point x="160" y="1677" type="qcurve" smooth="yes"/>
      <point x="215" y="1677"/>
      <point x="242" y="1655" type="qcurve" smooth="yes"/>
      <point x="270" y="1632"/>
    </contour>
    <contour>
      <point x="400" y="248" type="qcurve" smooth="yes"/>
      <point x="400" y="143"/>
      <point x="450" y="143" type="qcurve" smooth="yes"/>
      <point x="500" y="143"/>
      <point x="500" y="217" type="qcurve" smooth="yes"/>
      <point x="500" y="313"/>
      <point x="450" y="313" type="qcurve" smooth="yes"/>
      <point x="400" y="313"/>
    </contour>
    <contour>
      <point x="450" y="432" type="line"/>
      <point x="600" y="419"/>
      <point x="600" y="217" type="qcurve" smooth="yes"/>
      <point x="600" y="0"/>
      <point x="394" y="0" type="qcurve" smooth="yes"/>
      <point x="200" y="0"/>
      <point x="200" y="248" type="qcurve" smooth="yes"/>
      <point x="200" y="817" type="line" smooth="yes"/>
      <point x="200" y="909"/>
      <point x="68" y="937" type="qcurve"/>
      <point x="86" y="1024"/>
      <point x="235" y="1300"/>
      <point x="283" y="1300" type="qcurve" smooth="yes"/>
      <point x="321" y="1300"/>
      <point x="384" y="1263" type="qcurve" smooth="yes"/>
      <point x="444" y="1225" type="line" smooth="yes"/>
      <point x="472" y="1209"/>
      <point x="509" y="1209" type="qcurve" smooth="yes"/>
      <point x="528" y="1209"/>
      <point x="550" y="1213" type="qcurve"/>
      <point x="541" y="1153"/>
      <point x="475" y="1017"/>
      <point x="432" y="1011" type="qcurve"/>
      <point x="422" y="1011" type="line" smooth="yes"/>
      <point x="379" y="1011"/>
      <point x="312" y="1047" type="qcurve" smooth="yes"/>
      <point x="276" y="1065"/>
      <point x="253" y="1065" type="qcurve" smooth="yes"/>
      <point x="223" y="1065"/>
      <point x="210" y="1037" type="qcurve" smooth="yes"/>
      <point x="188" y="986" type="line"/>
      <point x="450" y="936"/>
      <point x="450" y="867" type="qcurve" smooth="yes"/>
    </contour>
  </outline>
</glyph>
<glyph name="uni17C3" format="1">
  <advance width="650"/>
  <unicode hex="17C3"/>
  <outline>
    <contour>
      <point x="175" y="1652" type="qcurve" smooth="yes"/>
      <point x="250" y="1652"/>
      <point x="250" y="1588" type="qcurve" smooth="yes"/>
      <point x="250" y="1542"/>
      <point x="290" y="1542" type="qcurve" smooth="yes"/>
      <point x="320" y="1542"/>
      <point x="370" y="1588"/>
      <point x="370" y="1633" type="qcurve" smooth="yes"/>
      <point x="370" y="1668"/>
      <point x="320" y="1713"/>
      <point x="290" y="1713" type="qcurve" smooth="yes"/>
      <point x="250" y="1713" type="line" smooth="yes"/>
      <point x="100" y="1713"/>
      <point x="100" y="1835" type="qcurve" smooth="yes"/>
      <point x="100" y="1908"/>
      <point x="0" y="1908" type="qcurve"/>
      <point x="0" y="2000"/>
      <point x="130" y="2000" type="qcurve" smooth="yes"/>
      <point x="208" y="2000"/>
      <point x="244" y="1959" type="qcurve" smooth="yes"/>
      <point x="280" y="1918"/>
      <point x="280" y="1835" type="qcurve"/>
      <point x="300" y="1835" type="line" smooth="yes"/>
      <point x="438" y="1835"/>
      <point x="494" y="1789" type="qcurve" smooth="yes"/>
      <point x="550" y="1743"/>
      <point x="550" y="1633" type="qcurve" smooth="yes"/>
      <point x="550" y="1522"/>
      <point x="438" y="1400"/>
      <point x="290" y="1400" type="qcurve" smooth="yes"/>
      <point x="100" y="1400"/>
      <point x="100" y="1578" type="qcurve" smooth="yes"/>
      <point x="100" y="1652"/>
    </contour>
    <contour>
      <point x="400" y="248" type="qcurve" smooth="yes"/>
      <point x="400" y="143"/>
      <point x="450" y="143" type="qcurve" smooth="yes"/>
      <point x="500" y="143"/>
      <point x="500" y="217" type="qcurve" smooth="yes"/>
      <point x="500" y="313"/>
      <point x="450" y="313" type="qcurve" smooth="yes"/>
      <point x="400" y="313"/>
    </contour>
    <contour>
      <point x="450" y="432" type="line"/>
      <point x="600" y="419"/>
      <point x="600" y="217" type="qcurve" smooth="yes"/>
      <point x="600" y="0"/>
      <point x="394" y="0" type="qcurve" smooth="yes"/>
      <point x="200" y="0"/>
      <point x="200" y="248" type="qcurve" smooth="yes"/>
      <point x="200" y="817" type="line" smooth="yes"/>
      <point x="200" y="909"/>
      <point x="68" y="937" type="qcurve"/>
      <point x="86" y="1024"/>
      <point x="235" y="1300"/>
      <point x="283" y="1300" type="qcurve" smooth="yes"/>
      <point x="321" y="1300"/>
      <point x="384" y="1263" type="qcurve" smooth="yes"/>
      <point x="444" y="1225" type="line" smooth="yes"/>
      <point x="472" y="1209"/>
      <point x="509" y="1209" type="qcurve" smooth="yes"/>
      <point x="528" y="1209"/>
      <point x="550" y="1213" type="qcurve"/>
      <point x="541" y="1153"/>
      <point x="475" y="1017"/>
      <point x="432" y="1011" type="qcurve"/>
      <point x="422" y="1011" type="line" smooth="yes"/>
      <point x="379" y="1011"/>
      <point x="312" y="1047" type="qcurve" smooth="yes"/>
      <point x="276" y="1065"/>
      <point x="253" y="1065" type="qcurve" smooth="yes"/>
      <point x="223" y="1065"/>
      <point x="210" y="1037" type="qcurve" smooth="yes"/>
      <point x="188" y="986" type="line"/>
      <point x="450" y="936"/>
      <point x="450" y="867" type="qcurve" smooth="yes"/>
    </contour>
  </outline>
</glyph>
<glyph name="uni17C5" format="1">
  <advance width="650"/>
  <unicode hex="17C5"/>
  <outline>
    <contour>
      <point x="250" y="1179" type="line"/>
      <point x="250" y="1474" type="line" smooth="yes"/>
      <point x="250" y="1560"/>
      <point x="150" y="1560" type="qcurve"/>
      <point x="150" y="1647"/>
      <point x="275" y="1647" type="qcurve" smooth="yes"/>
      <point x="388" y="1647" type="line" smooth="yes"/>
      <point x="500" y="1647"/>
      <point x="500" y="1474" type="qcurve" smooth="yes"/>
      <point x="500" y="1214" type="line" smooth="yes"/>
      <point x="500" y="1143"/>
      <point x="424" y="1030" type="qcurve"/>
      <point x="450" y="983"/>
      <point x="450" y="928" type="qcurve" smooth="yes"/>
      <point x="450" y="0" type="line"/>
      <point x="200" y="0" type="line"/>
      <point x="200" y="928" type="line" smooth="yes"/>
      <point x="200" y="972"/>
      <point x="144" y="1007" type="qcurve" smooth="yes"/>
      <point x="38" y="1069" type="line" smooth="yes"/>
      <point x="-44" y="1119"/>
      <point x="-117" y="1119" type="qcurve" smooth="yes"/>
      <point x="-174" y="1119"/>
      <point x="-272" y="1065" type="qcurve"/>
      <point x="-295" y="1143"/>
      <point x="-295" y="1169" type="qcurve" smooth="yes"/>
      <point x="-295" y="1210"/>
      <point x="-240" y="1244" type="qcurve" smooth="yes"/>
      <point x="-148" y="1300"/>
      <point x="-57" y="1300" type="qcurve" smooth="yes"/>
      <point x="47" y="1300"/>
      <point x="151" y="1238" type="qcurve" smooth="yes"/>
    </contour>
  </outline>
</glyph>
<glyph name="uni17C6" format="1">
  <advance width="0"/>
  <unicode hex="17C6"/>
  <outline>
    <contour>
      <point x="-698" y="1781"/>
      <point x="-715" y="1745"/>
      <point x="-715" y="1725" type="qcurve" smooth="yes"/>
      <point x="-715" y="1706"/>
      <point x="-698" y="1670"/>
      <point x="-666" y="1650"/>
      <point x="-650" y="1650" type="qcurve" smooth="yes"/>
      <point x="-633" y="1650"/>
      <point x="-601" y="1670"/>
      <point x="-585" y="1706"/>
      <point x="-585" y="1725" type="qcurve" smooth="yes"/>
      <point x="-585" y="1745"/>
      <point x="-602" y="1781"/>
      <point x="-633" y="1800"/>
      <point x="-650" y="1800" type="qcurve" smooth="yes"/>
      <point x="-666" y="1800"/>
    </contour>
    <contour>
      <point x="-650" y="1950" type="qcurve" smooth="yes"/>
      <point x="-587" y="1950"/>
      <point x="-467" y="1892"/>
      <point x="-400" y="1784"/>
      <point x="-400" y="1725" type="qcurve" smooth="yes"/>
      <point x="-400" y="1667"/>
      <point x="-466" y="1559"/>
      <point x="-584" y="1500"/>
      <point x="-650" y="1500" type="qcurve" smooth="yes"/>
      <point x="-714" y="1500"/>
      <point x="-833" y="1559"/>
      <point x="-900" y="1667"/>
      <point x="-900" y="1725" type="qcurve" smooth="yes"/>
      <point x="-900" y="1784"/>
      <point x="-832" y="1892"/>
      <point x="-713" y="1950"/>
    </contour>
  </outline>
</glyph>
<glyph name="uni17C7" format="1">
  <advance width="900"/>
  <unicode hex="17C7"/>
  <outline>
    <contour>
      <point x="402" y="281"/>
      <point x="385" y="245"/>
      <point x="385" y="225" type="qcurve" smooth="yes"/>
      <point x="385" y="206"/>
      <point x="402" y="170"/>
      <point x="434" y="150"/>
      <point x="450" y="150" type="qcurve" smooth="yes"/>
      <point x="467" y="150"/>
      <point x="499" y="170"/>
      <point x="515" y="206"/>
      <point x="515" y="225" type="qcurve" smooth="yes"/>
      <point x="515" y="245"/>
      <point x="498" y="281"/>
      <point x="467" y="300"/>
      <point x="450" y="300" type="qcurve" smooth="yes"/>
      <point x="434" y="300"/>
    </contour>
    <contour>
      <point x="450" y="450" type="qcurve" smooth="yes"/>
      <point x="513" y="450"/>
      <point x="633" y="392"/>
      <point x="700" y="284"/>
      <point x="700" y="225" type="qcurve" smooth="yes"/>
      <point x="700" y="167"/>
      <point x="634" y="59"/>
      <point x="516" y="0"/>
      <point x="450" y="0" type="qcurve" smooth="yes"/>
      <point x="386" y="0"/>
      <point x="267" y="59"/>
      <point x="200" y="167"/>
      <point x="200" y="225" type="qcurve" smooth="yes"/>
      <point x="200" y="284"/>
      <point x="268" y="392"/>
      <point x="387" y="450"/>
    </contour>
    <contour>
      <point x="402" y="1081"/>
      <point x="385" y="1045"/>
      <point x="385" y="1025" type="qcurve" smooth="yes"/>
      <point x="385" y="1006"/>
      <point x="402" y="970"/>
      <point x="434" y="950"/>
      <point x="450" y="950" type="qcurve" smooth="yes"/>
      <point x="467" y="950"/>
      <point x="499" y="970"/>
      <point x="515" y="1006"/>
      <point x="515" y="1025" type="qcurve" smooth="yes"/>
      <point x="515" y="1045"/>
      <point x="498" y="1081"/>
      <point x="467" y="1100"/>
      <point x="450" y="1100" type="qcurve" smooth="yes"/>
      <point x="434" y="1100"/>
    </contour>
    <contour>
      <point x="450" y="1250" type="qcurve" smooth="yes"/>
      <point x="513" y="1250"/>
      <point x="633" y="1192"/>
      <point x="700" y="1084"/>
      <point x="700" y="1025" type="qcurve" smooth="yes"/>
      <point x="700" y="967"/>
      <point x="634" y="859"/>
      <point x="516" y="800"/>
      <point x="450" y="800" type="qcurve" smooth="yes"/>
      <point x="386" y="800"/>
      <point x="267" y="859"/>
      <point x="200" y="967"/>
      <point x="200" y="1025" type="qcurve" smooth="yes"/>
      <point x="200" y="1084"/>
      <point x="268" y="1192"/>
      <point x="387" y="1250"/>
    </contour>
  </outline>
</glyph>
<glyph name="uni17C8" format="1">
  <advance width="700"/>
  <unicode hex="17C8"/>
  <outline>
    <contour>
      <point x="350" y="300" type="qcurve" smooth="yes"/>
      <point x="388" y="300"/>
      <point x="459" y="261"/>
      <point x="500" y="189"/>
      <point x="500" y="150" type="qcurve" smooth="yes"/>
      <point x="500" y="111"/>
      <point x="460" y="40"/>
      <point x="390" y="0"/>
      <point x="350" y="0" type="qcurve" smooth="yes"/>
      <point x="312" y="0"/>
      <point x="240" y="40"/>
      <point x="200" y="111"/>
      <point x="200" y="150" type="qcurve" smooth="yes"/>
      <point x="200" y="189"/>
      <point x="240" y="261"/>
      <point x="312" y="300"/>
    </contour>
    <contour>
      <point x="350" y="1250" type="qcurve" smooth="yes"/>
      <point x="388" y="1250"/>
      <point x="459" y="1211"/>
      <point x="500" y="1139"/>
      <point x="500" y="1100" type="qcurve" smooth="yes"/>
      <point x="500" y="1061"/>
      <point x="460" y="990"/>
      <point x="390" y="950"/>
      <point x="350" y="950" type="qcurve" smooth="yes"/>
      <point x="312" y="950"/>
      <point x="240" y="990"/>
      <point x="200" y="1061"/>
      <point x="200" y="1100" type="qcurve" smooth="yes"/>
      <point x="200" y="1139"/>
      <point x="240" y="1211"/>
      <point x="312" y="1250"/>
    </contour>
  </outline>
</glyph>
<glyph name="uni17C9" format="1">
  <advance width="0"/>
  <unicode hex="17C9"/>
  <outline>
    <contour>
      <point x="-737" y="1900" type="line"/>
      <point x="-737" y="1600" type="line" smooth="yes"/>
      <point x="-737" y="1520"/>
      <point x="-811" y="1500" type="qcurve"/>
      <point x="-887" y="1520"/>
      <point x="-887" y="1600" type="qcurve" smooth="yes"/>
      <point x="-887" y="1900" type="line"/>
    </contour>
    <contour>
      <point x="-412" y="1900" type="line"/>
      <point x="-412" y="1600" type="line" smooth="yes"/>
      <point x="-412" y="1520"/>
      <point x="-486" y="1500" type="qcurve"/>
      <point x="-562" y="1520"/>
      <point x="-562" y="1600" type="qcurve" smooth="yes"/>
      <point x="-562" y="1900" type="line"/>
    </contour>
  </outline>
</glyph>
<glyph name="uni17CA" format="1">
  <advance width="0"/>
  <unicode hex="17CA"/>
  <outline>
    <contour>
      <point x="-1106" y="1320" type="line"/>
      <point x="-1225" y="1364"/>
      <point x="-1225" y="1425" type="qcurve" smooth="yes"/>
      <point x="-1225" y="1466"/>
      <point x="-1160" y="1513" type="qcurve" smooth="yes"/>
      <point x="-1094" y="1561" type="line" smooth="yes"/>
      <point x="-963" y="1658"/>
      <point x="-931" y="1658" type="qcurve" smooth="yes"/>
      <point x="-897" y="1658"/>
      <point x="-786" y="1583" type="qcurve"/>
      <point x="-730" y="1551" type="line"/>
      <point x="-703" y="1529"/>
      <point x="-675" y="1529" type="qcurve" smooth="yes"/>
      <point x="-650" y="1529"/>
      <point x="-624" y="1551" type="qcurve"/>
      <point x="-574" y="1583" type="line"/>
      <point x="-473" y="1658"/>
      <point x="-437" y="1658" type="qcurve" smooth="yes"/>
      <point x="-402" y="1658"/>
      <point x="-345" y="1615" type="qcurve" smooth="yes"/>
      <point x="-231" y="1537" type="line" smooth="yes"/>
      <point x="-198" y="1513"/>
      <point x="-149" y="1513" type="qcurve" smooth="yes"/>
      <point x="-116" y="1513"/>
      <point x="-75" y="1526" type="qcurve"/>
      <point x="-175" y="1366"/>
      <point x="-240" y="1366" type="qcurve" smooth="yes"/>
      <point x="-306" y="1366"/>
      <point x="-342" y="1398" type="qcurve"/>
      <point x="-415" y="1436" type="line"/>
      <point x="-452" y="1468"/>
      <point x="-495" y="1468" type="qcurve" smooth="yes"/>
      <point x="-538" y="1468"/>
      <point x="-606" y="1417" type="qcurve" smooth="yes"/>
      <point x="-675" y="1366"/>
      <point x="-715" y="1366" type="qcurve" smooth="yes"/>
      <point x="-782" y="1366"/>
      <point x="-823" y="1393" type="qcurve" smooth="yes"/>
      <point x="-904" y="1442" type="line" smooth="yes"/>
      <point x="-945" y="1468"/>
      <point x="-988" y="1468" type="qcurve" smooth="yes"/>
      <point x="-1021" y="1468"/>
      <point x="-1075" y="1446"/>
      <point x="-1075" y="1417" type="qcurve" smooth="yes"/>
      <point x="-1075" y="1391"/>
      <point x="-1001" y="1358" type="qcurve"/>
    </contour>
  </outline>
</glyph>
<glyph name="uni17CB" format="1">
  <advance width="0"/>
  <unicode hex="17CB"/>
  <outline>
    <contour>
      <point x="-550" y="1950" type="line"/>
      <point x="-550" y="1600" type="line" smooth="yes"/>
      <point x="-550" y="1520"/>
      <point x="-650" y="1500" type="qcurve"/>
      <point x="-750" y="1520"/>
      <point x="-750" y="1600" type="qcurve" smooth="yes"/>
      <point x="-750" y="1950" type="line"/>
    </contour>
  </outline>
</glyph>
<glyph name="uni17CC" format="1">
  <advance width="0"/>
  <unicode hex="17CC"/>
  <outline>
    <contour>
      <point x="-830" y="1444" type="qcurve" smooth="yes"/>
      <point x="-891" y="1400"/>
      <point x="-929" y="1400" type="qcurve" smooth="yes"/>
      <point x="-961" y="1400"/>
      <point x="-981" y="1422" type="qcurve" smooth="yes"/>
      <point x="-994" y="1438"/>
      <point x="-994" y="1453" type="qcurve" smooth="yes"/>
      <point x="-994" y="1537"/>
      <point x="-930" y="1573" type="qcurve" smooth="yes"/>
      <point x="-886" y="1596" type="line"/>
      <point x="-744" y="1655"/>
      <point x="-687" y="1769" type="qcurve" smooth="yes"/>
      <point x="-631" y="1883"/>
      <point x="-631" y="1918" type="qcurve" smooth="yes"/>
      <point x="-631" y="2000"/>
      <point x="-506" y="2000" type="qcurve" smooth="yes"/>
      <point x="-432" y="2000"/>
      <point x="-432" y="1918" type="qcurve" smooth="yes"/>
      <point x="-433" y="1859"/>
      <point x="-495" y="1767" type="qcurve"/>
      <point x="-527" y="1704"/>
      <point x="-585" y="1634" type="qcurve"/>
      <point x="-533" y="1638"/>
      <point x="-507" y="1638" type="qcurve" smooth="yes"/>
      <point x="-479" y="1638"/>
      <point x="-357" y="1606"/>
      <point x="-296" y="1539" type="qcurve"/>
      <point x="-276" y="1511"/>
      <point x="-276" y="1489" type="qcurve"/>
      <point x="-306" y="1428"/>
      <point x="-344" y="1411" type="qcurve" smooth="yes"/>
      <point x="-365" y="1400"/>
      <point x="-385" y="1400" type="qcurve" smooth="yes"/>
      <point x="-423" y="1400"/>
      <point x="-453" y="1441" type="qcurve" smooth="yes"/>
      <point x="-497" y="1502"/>
      <point x="-565" y="1510" type="qcurve" smooth="yes"/>
      <point x="-606" y="1513"/>
      <point x="-637" y="1513" type="qcurve" smooth="yes"/>
      <point x="-698" y="1513"/>
      <point x="-726" y="1503" type="qcurve" smooth="yes"/>
      <point x="-769" y="1487"/>
    </contour>
  </outline>
</glyph>
<glyph name="uni17CD" format="1">
  <advance width="0"/>
  <unicode hex="17CD"/>
  <outline>
    <contour>
      <point x="-805" y="1676" type="qcurve" smooth="yes"/>
      <point x="-805" y="1631"/>
      <point x="-745" y="1631" type="qcurve" smooth="yes"/>
      <point x="-695" y="1631"/>
      <point x="-625" y="1650" type="qcurve"/>
      <point x="-555" y="1650"/>
      <point x="-555" y="1619" type="qcurve" smooth="yes"/>
      <point x="-555" y="1560"/>
      <point x="-599" y="1530" type="qcurve" smooth="yes"/>
      <point x="-643" y="1500"/>
      <point x="-740" y="1500" type="qcurve" smooth="yes"/>
      <point x="-877" y="1500"/>
      <point x="-1005" y="1588"/>
      <point x="-1005" y="1695" type="qcurve" smooth="yes"/>
      <point x="-1005" y="1782"/>
      <point x="-895" y="1920"/>
      <point x="-735" y="1920" type="qcurve" smooth="yes"/>
      <point x="-608" y="1920"/>
      <point x="-540" y="1841" type="qcurve"/>
      <point x="-494" y="1866"/>
      <point x="-435" y="1923"/>
      <point x="-393" y="2000" type="qcurve"/>
      <point x="-283" y="2000"/>
      <point x="-264" y="1960" type="qcurve" smooth="yes"/>
      <point x="-256" y="1944"/>
      <point x="-256" y="1929" type="qcurve" smooth="yes"/>
      <point x="-256" y="1905"/>
      <point x="-273" y="1884" type="qcurve" smooth="yes"/>
      <point x="-302" y="1847"/>
      <point x="-362" y="1797" type="qcurve" smooth="yes"/>
      <point x="-423" y="1748"/>
      <point x="-498" y="1711" type="qcurve"/>
      <point x="-534" y="1700"/>
      <point x="-568" y="1700" type="qcurve"/>
      <point x="-642" y="1770"/>
      <point x="-705" y="1770" type="qcurve" smooth="yes"/>
      <point x="-750" y="1770"/>
      <point x="-805" y="1733"/>
    </contour>
  </outline>
</glyph>
<glyph name="uni17CE" format="1">
  <advance width="0"/>
  <unicode hex="17CE"/>
  <outline>
    <contour>
      <point x="-730" y="1649" type="line"/>
      <point x="-880" y="1649" type="line"/>
      <point x="-880" y="1810" type="line"/>
      <point x="-730" y="1810" type="line"/>
      <point x="-730" y="1959" type="line"/>
      <point x="-570" y="1959" type="line"/>
      <point x="-570" y="1810" type="line"/>
      <point x="-420" y="1810" type="line"/>
      <point x="-420" y="1649" type="line"/>
      <point x="-570" y="1649" type="line"/>
      <point x="-570" y="1500" type="line"/>
      <point x="-730" y="1500" type="line"/>
    </contour>
  </outline>
</glyph>
<glyph name="uni17CF" format="1">
  <advance width="0"/>
  <unicode hex="17CF"/>
  <outline>
    <contour>
      <point x="-480" y="1970" type="qcurve" smooth="yes"/>
      <point x="-331" y="1970"/>
      <point x="-331" y="1907" type="qcurve" smooth="yes"/>
      <point x="-331" y="1843"/>
      <point x="-430" y="1843" type="qcurve" smooth="yes"/>
      <point x="-495" y="1843"/>
      <point x="-512" y="1758" type="qcurve"/>
      <point x="-518" y="1716" type="line"/>
      <point x="-630" y="1716" type="line" smooth="yes"/>
      <point x="-810" y="1716"/>
      <point x="-810" y="1589" type="qcurve" smooth="yes"/>
      <point x="-810" y="1555"/>
      <point x="-770" y="1555" type="qcurve" smooth="yes"/>
      <point x="-730" y="1555"/>
      <point x="-650" y="1620" type="qcurve"/>
      <point x="-570" y="1555"/>
      <point x="-530" y="1555" type="qcurve" smooth="yes"/>
      <point x="-490" y="1555"/>
      <point x="-490" y="1582" type="qcurve"/>
      <point x="-510" y="1609" type="line"/>
      <point x="-510" y="1674"/>
      <point x="-410" y="1674" type="qcurve" smooth="yes"/>
      <point x="-310" y="1674"/>
      <point x="-310" y="1547" type="qcurve" smooth="yes"/>
      <point x="-310" y="1420"/>
      <point x="-515" y="1420" type="qcurve" smooth="yes"/>
      <point x="-580" y="1420"/>
      <point x="-650" y="1475" type="qcurve"/>
      <point x="-720" y="1420"/>
      <point x="-775" y="1420" type="qcurve" smooth="yes"/>
      <point x="-990" y="1420"/>
      <point x="-990" y="1589" type="qcurve" smooth="yes"/>
      <point x="-990" y="1851"/>
      <point x="-630" y="1851" type="qcurve"/>
      <point x="-607" y="1970"/>
    </contour>
  </outline>
</glyph>
<glyph name="uni17D0" format="1">
  <advance width="0"/>
  <unicode hex="17D0"/>
  <outline>
    <contour>
      <point x="-500" y="1828" type="qcurve" smooth="yes"/>
      <point x="-370" y="1828"/>
      <point x="-370" y="1720" type="qcurve" smooth="yes"/>
      <point x="-370" y="1640"/>
      <point x="-445" y="1640" type="qcurve" smooth="yes"/>
      <point x="-510" y="1640"/>
      <point x="-520" y="1682" type="qcurve"/>
      <point x="-520" y="1598"/>
      <point x="-420" y="1598" type="qcurve" smooth="yes"/>
      <point x="-325" y="1598"/>
      <point x="-262" y="1643" type="qcurve" smooth="yes"/>
      <point x="-200" y="1688"/>
      <point x="-200" y="1777" type="qcurve" smooth="yes"/>
      <point x="-200" y="1849"/>
      <point x="-300" y="1879"/>
      <point x="-300" y="1925" type="qcurve" smooth="yes"/>
      <point x="-300" y="1970"/>
      <point x="-250" y="1970" type="qcurve" smooth="yes"/>
      <point x="-125" y="1970"/>
      <point x="0" y="1870"/>
      <point x="0" y="1777" type="qcurve" smooth="yes"/>
      <point x="0" y="1645"/>
      <point x="-225" y="1493"/>
      <point x="-420" y="1493" type="qcurve" smooth="yes"/>
      <point x="-575" y="1493"/>
      <point x="-700" y="1597"/>
      <point x="-700" y="1682" type="qcurve" smooth="yes"/>
      <point x="-700" y="1828"/>
    </contour>
  </outline>
</glyph>
<glyph name="uni17D1" format="1">
  <advance width="0"/>
  <unicode hex="17D1"/>
  <outline>
    <contour>
      <point x="-275" y="1800" type="line"/>
      <point x="-275" y="1700" type="line"/>
      <point x="-1025" y="1700" type="line"/>
      <point x="-1025" y="1800" type="line"/>
    </contour>
  </outline>
</glyph>
<glyph name="uni17D2" format="1">
  <advance width="0"/>
  <unicode hex="17D2"/>
  <outline>
    <contour>
      <point x="-450" y="-450" type="line"/>
      <point x="-600" y="-450" type="line"/>
      <point x="-600" y="-600" type="line"/>
      <point x="-700" y="-600" type="line"/>
      <point x="-700" y="-450" type="line"/>
      <point x="-850" y="-450" type="line"/>
      <point x="-850" y="-350" type="line"/>
      <point x="-700" y="-350" type="line"/>
      <point x="-700" y="-200" type="line"/>
      <point x="-600" y="-200" type="line"/>
      <point x="-600" y="-350" type="line"/>
      <point x="-450" y="-350" type="line"/>
    </contour>
  </outline>
</glyph>
<glyph name="uni17D3" format="1">
  <advance width="0"/>
  <unicode hex="17D3"/>
  <outline>
    <contour>
      <point x="-800" y="1750" type="qcurve" smooth="yes"/>
      <point x="-800" y="1700"/>
      <point x="-763" y="1675" type="qcurve" smooth="yes"/>
      <point x="-725" y="1650"/>
      <point x="-650" y="1650" type="qcurve" smooth="yes"/>
      <point x="-575" y="1650"/>
      <point x="-537" y="1675" type="qcurve" smooth="yes"/>
      <point x="-500" y="1700"/>
      <point x="-500" y="1750" type="qcurve" smooth="yes"/>
      <point x="-500" y="1800"/>
      <point x="-537" y="1825" type="qcurve" smooth="yes"/>
      <point x="-575" y="1850"/>
      <point x="-650" y="1850" type="qcurve" smooth="yes"/>
      <point x="-725" y="1850"/>
      <point x="-763" y="1825" type="qcurve" smooth="yes"/>
      <point x="-800" y="1800"/>
    </contour>
    <contour>
      <point x="-400" y="1750" type="qcurve" smooth="yes"/>
      <point x="-400" y="1650"/>
      <point x="-463" y="1600" type="qcurve" smooth="yes"/>
      <point x="-525" y="1550"/>
      <point x="-650" y="1550" type="qcurve" smooth="yes"/>
      <point x="-775" y="1550"/>
      <point x="-837" y="1600" type="qcurve" smooth="yes"/>
      <point x="-900" y="1650"/>
      <point x="-900" y="1750" type="qcurve" smooth="yes"/>
      <point x="-900" y="1850"/>
      <point x="-837" y="1900" type="qcurve" smooth="yes"/>
      <point x="-775" y="1950"/>
      <point x="-650" y="1950" type="qcurve" smooth="yes"/>
      <point x="-525" y="1950"/>
      <point x="-463" y="1900" type="qcurve" smooth="yes"/>
      <point x="-400" y="1850"/>
    </contour>
  </outline>
</glyph>
<glyph name="uni17D4" format="1">
  <advance width="1350"/>
  <unicode hex="17D4"/>
  <outline>
    <contour>
      <point x="900" y="1206" type="qcurve"/>
      <point x="900" y="1300" type="line"/>
      <point x="1150" y="1300" type="line"/>
      <point x="1150" y="178" type="line" smooth="yes"/>
      <point x="1150" y="76"/>
      <point x="955" y="0"/>
      <point x="860" y="0" type="qcurve" smooth="yes"/>
      <point x="805" y="0"/>
      <point x="778" y="22" type="qcurve" smooth="yes"/>
      <point x="750" y="43"/>
      <point x="750" y="88" type="qcurve"/>
      <point x="813" y="88"/>
      <point x="900" y="120"/>
      <point x="900" y="178" type="qcurve" smooth="yes"/>
      <point x="900" y="988" type="line"/>
      <point x="712" y="797"/>
      <point x="550" y="797" type="qcurve" smooth="yes"/>
      <point x="200" y="797"/>
      <point x="200" y="1033" type="qcurve" smooth="yes"/>
      <point x="200" y="1300"/>
      <point x="530" y="1300" type="qcurve" smooth="yes"/>
      <point x="600" y="1300"/>
      <point x="600" y="1225" type="qcurve" smooth="yes"/>
      <point x="600" y="1150"/>
      <point x="530" y="1150" type="qcurve" smooth="yes"/>
      <point x="450" y="1150"/>
      <point x="450" y="1033" type="qcurve" smooth="yes"/>
      <point x="450" y="950"/>
      <point x="550" y="950" type="qcurve" smooth="yes"/>
      <point x="718" y="950"/>
    </contour>
  </outline>
</glyph>
<glyph name="uni17D7" format="1">
  <advance width="1500"/>
  <unicode hex="17D7"/>
  <outline>
    <contour>
      <point x="488" y="789" type="qcurve" smooth="yes"/>
      <point x="308" y="789"/>
      <point x="200" y="922"/>
      <point x="200" y="1048" type="qcurve"/>
      <point x="231" y="1110"/>
      <point x="299" y="1173" type="qcurve"/>
      <point x="377" y="1237"/>
      <point x="522" y="1300" type="qcurve"/>
      <point x="784" y="1118" type="line"/>
      <point x="1073" y="1299" type="line"/>
      <point x="1300" y="1299" type="line"/>
      <point x="1300" y="303" type="line" smooth="yes"/>
      <point x="1300" y="152"/>
      <point x="992" y="0"/>
      <point x="784" y="0" type="qcurve" smooth="yes"/>
      <point x="577" y="0"/>
      <point x="473" y="38" type="qcurve" smooth="yes"/>
      <point x="369" y="75"/>
      <point x="369" y="152" type="qcurve" smooth="yes"/>
      <point x="369" y="202"/>
      <point x="428" y="252"/>
      <point x="488" y="252" type="qcurve"/>
      <point x="488" y="150"/>
      <point x="784" y="150" type="qcurve" smooth="yes"/>
      <point x="1050" y="150"/>
      <point x="1050" y="303" type="qcurve" smooth="yes"/>
      <point x="1050" y="1110" type="line"/>
      <point x="786" y="960" type="line"/>
      <point x="562" y="1110" type="line"/>
      <point x="425" y="998" type="line"/>
      <point x="425" y="972"/>
      <point x="441" y="960" type="qcurve" smooth="yes"/>
      <point x="456" y="947"/>
      <point x="488" y="947" type="qcurve" smooth="yes"/>
      <point x="517" y="947"/>
      <point x="532" y="958" type="qcurve" smooth="yes"/>
      <point x="547" y="968"/>
      <point x="547" y="990" type="qcurve"/>
      <point x="577" y="990"/>
      <point x="591" y="972" type="qcurve" smooth="yes"/>
      <point x="606" y="953"/>
      <point x="606" y="890" type="qcurve" smooth="yes"/>
      <point x="606" y="826"/>
      <point x="577" y="807" type="qcurve" smooth="yes"/>
      <point x="547" y="789"/>
    </contour>
  </outline>
</glyph>
<glyph name="uni17D8" format="1">
  <advance width="4650"/>
  <unicode hex="17D8"/>
  <outline>
    <contour>
      <point x="900" y="1206" type="qcurve"/>
      <point x="900" y="1300" type="line"/>
      <point x="1150" y="1300" type="line"/>
      <point x="1150" y="178" type="line" smooth="yes"/>
      <point x="1150" y="76"/>
      <point x="955" y="0"/>
      <point x="860" y="0" type="qcurve" smooth="yes"/>
      <point x="805" y="0"/>
      <point x="778" y="22" type="qcurve" smooth="yes"/>
      <point x="750" y="43"/>
      <point x="750" y="88" type="qcurve"/>
      <point x="813" y="88"/>
      <point x="900" y="120"/>
      <point x="900" y="178" type="qcurve" smooth="yes"/>
      <point x="900" y="988" type="line"/>
      <point x="712" y="797"/>
      <point x="550" y="797" type="qcurve" smooth="yes"/>
      <point x="200" y="797"/>
      <point x="200" y="1033" type="qcurve" smooth="yes"/>
      <point x="200" y="1300"/>
      <point x="530" y="1300" type="qcurve" smooth="yes"/>
      <point x="600" y="1300"/>
      <point x="600" y="1225" type="qcurve" smooth="yes"/>
      <point x="600" y="1150"/>
      <point x="530" y="1150" type="qcurve" smooth="yes"/>
      <point x="450" y="1150"/>
      <point x="450" y="1033" type="qcurve" smooth="yes"/>
      <point x="450" y="950"/>
      <point x="550" y="950" type="qcurve" smooth="yes"/>
      <point x="718" y="950"/>
    </contour>
    <contour>
      <point x="1800" y="100" type="line"/>
      <point x="1850" y="100"/>
      <point x="1900" y="173"/>
      <point x="1900" y="260" type="qcurve" smooth="yes"/>
      <point x="1900" y="303"/>
      <point x="1863" y="333"/>
      <point x="1825" y="333" type="qcurve" smooth="yes"/>
      <point x="1800" y="333" type="line"/>
    </contour>
    <contour>
      <point x="3100" y="303" type="line" smooth="yes"/>
      <point x="3100" y="0"/>
      <point x="2700" y="0" type="qcurve" smooth="yes"/>
      <point x="2600" y="0" type="line" smooth="yes"/>
      <point x="2200" y="0"/>
      <point x="2200" y="303" type="qcurve" smooth="yes"/>
      <point x="2200" y="997" type="line" smooth="yes"/>
      <point x="2200" y="1150"/>
      <point x="2050" y="1150" type="qcurve" smooth="yes"/>
      <point x="1950" y="1150" type="line" smooth="yes"/>
      <point x="1800" y="1150"/>
      <point x="1800" y="997" type="qcurve" smooth="yes"/>
      <point x="1800" y="433" type="line"/>
      <point x="1825" y="433" type="line" smooth="yes"/>
      <point x="1913" y="433"/>
      <point x="1956" y="390" type="qcurve" smooth="yes"/>
      <point x="2000" y="347"/>
      <point x="2000" y="260" type="qcurve" smooth="yes"/>
      <point x="2000" y="130"/>
      <point x="1950" y="65" type="qcurve" smooth="yes"/>
      <point x="1900" y="0"/>
      <point x="1800" y="0" type="qcurve" smooth="yes"/>
      <point x="1650" y="0" type="line" smooth="yes"/>
      <point x="1550" y="0"/>
      <point x="1550" y="130" type="qcurve" smooth="yes"/>
      <point x="1550" y="997" type="line" smooth="yes"/>
      <point x="1550" y="1300"/>
      <point x="1950" y="1300" type="qcurve" smooth="yes"/>
      <point x="2050" y="1300" type="line" smooth="yes"/>
      <point x="2450" y="1300"/>
      <point x="2450" y="997" type="qcurve" smooth="yes"/>
      <point x="2450" y="303" type="line" smooth="yes"/>
      <point x="2450" y="150"/>
      <point x="2600" y="150" type="qcurve" smooth="yes"/>
      <point x="2700" y="150" type="line" smooth="yes"/>
      <point x="2850" y="150"/>
      <point x="2850" y="303" type="qcurve" smooth="yes"/>
      <point x="2850" y="891" type="line"/>
      <point x="2750" y="942" type="line"/>
      <point x="2750" y="1084" type="line"/>
      <point x="2832" y="1192" type="line" smooth="yes"/>
      <point x="2913" y="1300"/>
      <point x="2943" y="1300" type="qcurve" smooth="yes"/>
      <point x="2962" y="1300"/>
      <point x="3005" y="1268" type="qcurve"/>
      <point x="3096" y="1212" type="line" smooth="yes"/>
      <point x="3132" y="1192"/>
      <point x="3152" y="1192" type="qcurve" smooth="yes"/>
      <point x="3172" y="1192"/>
      <point x="3200" y="1201" type="qcurve"/>
      <point x="3172" y="1053"/>
      <point x="3087" y="1036" type="qcurve" smooth="yes"/>
      <point x="3073" y="1035"/>
      <point x="3060" y="1035" type="qcurve" smooth="yes"/>
      <point x="3023" y="1035"/>
      <point x="2988" y="1050" type="qcurve" smooth="yes"/>
      <point x="2916" y="1080" type="line"/>
      <point x="2888" y="1043" type="line" smooth="yes"/>
      <point x="2878" y="1032"/>
      <point x="2878" y="1022" type="qcurve" smooth="yes"/>
      <point x="2878" y="1010"/>
      <point x="2893" y="1000" type="qcurve" smooth="yes"/>
      <point x="3064" y="922" type="line" smooth="yes"/>
      <point x="3100" y="904"/>
      <point x="3100" y="860" type="qcurve" smooth="yes"/>
    </contour>
    <contour>
      <point x="4200" y="1206" type="qcurve"/>
      <point x="4200" y="1300" type="line"/>
      <point x="4450" y="1300" type="line"/>
      <point x="4450" y="178" type="line" smooth="yes"/>
      <point x="4450" y="76"/>
      <point x="4255" y="0"/>
      <point x="4160" y="0" type="qcurve" smooth="yes"/>
      <point x="4105" y="0"/>
      <point x="4078" y="22" type="qcurve" smooth="yes"/>
      <point x="4050" y="43"/>
      <point x="4050" y="88" type="qcurve"/>
      <point x="4113" y="88"/>
      <point x="4200" y="120"/>
      <point x="4200" y="178" type="qcurve" smooth="yes"/>
      <point x="4200" y="988" type="line"/>
      <point x="4012" y="797"/>
      <point x="3850" y="797" type="qcurve" smooth="yes"/>
      <point x="3500" y="797"/>
      <point x="3500" y="1033" type="qcurve" smooth="yes"/>
      <point x="3500" y="1300"/>
      <point x="3830" y="1300" type="qcurve" smooth="yes"/>
      <point x="3900" y="1300"/>
      <point x="3900" y="1225" type="qcurve" smooth="yes"/>
      <point x="3900" y="1150"/>
      <point x="3830" y="1150" type="qcurve" smooth="yes"/>
      <point x="3750" y="1150"/>
      <point x="3750" y="1033" type="qcurve" smooth="yes"/>
      <point x="3750" y="950"/>
      <point x="3850" y="950" type="qcurve" smooth="yes"/>
      <point x="4018" y="950"/>
    </contour>
  </outline>
</glyph>
<glyph name="uni17D9" format="1">
  <advance width="1700"/>
  <unicode hex="17D9"/>
  <outline>
    <contour>
      <point x="850" y="0" type="qcurve" smooth="yes"/>
      <point x="526" y="0"/>
      <point x="363" y="163" type="qcurve" smooth="yes"/>
      <point x="200" y="325"/>
      <point x="200" y="650" type="qcurve" smooth="yes"/>
      <point x="200" y="975"/>
      <point x="363" y="1138" type="qcurve" smooth="yes"/>
      <point x="526" y="1300"/>
      <point x="850" y="1300" type="qcurve" smooth="yes"/>
      <point x="1174" y="1300"/>
      <point x="1338" y="1138" type="qcurve" smooth="yes"/>
      <point x="1500" y="975"/>
      <point x="1500" y="650" type="qcurve" smooth="yes"/>
      <point x="1500" y="325"/>
      <point x="1338" y="163" type="qcurve" smooth="yes"/>
      <point x="1174" y="0"/>
    </contour>
    <contour>
      <point x="850" y="1161" type="qcurve" smooth="yes"/>
      <point x="339" y="1161"/>
      <point x="339" y="650" type="qcurve" smooth="yes"/>
      <point x="339" y="139"/>
      <point x="850" y="139" type="qcurve" smooth="yes"/>
      <point x="1361" y="139"/>
      <point x="1361" y="650" type="qcurve" smooth="yes"/>
      <point x="1361" y="1161"/>
    </contour>
    <contour>
      <point x="850" y="279" type="qcurve" smooth="yes"/>
      <point x="663" y="279"/>
      <point x="571" y="371" type="qcurve" smooth="yes"/>
      <point x="479" y="464"/>
      <point x="479" y="650" type="qcurve" smooth="yes"/>
      <point x="479" y="836"/>
      <point x="571" y="929" type="qcurve" smooth="yes"/>
      <point x="663" y="1021"/>
      <point x="850" y="1021" type="qcurve" smooth="yes"/>
      <point x="1037" y="1021"/>
      <point x="1129" y="929" type="qcurve" smooth="yes"/>
      <point x="1221" y="836"/>
      <point x="1221" y="650" type="qcurve" smooth="yes"/>
      <point x="1221" y="464"/>
      <point x="1129" y="371" type="qcurve" smooth="yes"/>
      <point x="1037" y="279"/>
    </contour>
    <contour>
      <point x="850" y="882" type="qcurve" smooth="yes"/>
      <point x="735" y="882"/>
      <point x="676" y="825" type="qcurve" smooth="yes"/>
      <point x="618" y="766"/>
      <point x="618" y="650" type="qcurve" smooth="yes"/>
      <point x="618" y="534"/>
      <point x="676" y="476" type="qcurve" smooth="yes"/>
      <point x="735" y="418"/>
      <point x="850" y="418" type="qcurve" smooth="yes"/>
      <point x="965" y="418"/>
      <point x="1024" y="476" type="qcurve" smooth="yes"/>
      <point x="1082" y="534"/>
      <point x="1082" y="650" type="qcurve" smooth="yes"/>
      <point x="1082" y="766"/>
      <point x="1024" y="825" type="qcurve" smooth="yes"/>
      <point x="965" y="882"/>
    </contour>
  </outline>
</glyph>
<glyph name="uni17DA" format="1">
  <advance width="3850"/>
  <unicode hex="17DA"/>
  <outline>
    <contour>
      <point x="3105" y="444" type="qcurve" smooth="yes"/>
      <point x="3105" y="441"/>
      <point x="3106" y="439" type="qcurve" smooth="yes"/>
      <point x="3111" y="432"/>
      <point x="3118" y="432" type="qcurve" smooth="yes"/>
      <point x="3124" y="432"/>
      <point x="3131" y="438" type="qcurve" smooth="yes"/>
      <point x="3132" y="439"/>
      <point x="3132" y="441" type="qcurve" smooth="yes"/>
      <point x="3132" y="447"/>
      <point x="3121" y="466" type="qcurve"/>
      <point x="3105" y="452"/>
    </contour>
    <contour>
      <point x="1854" y="963" type="qcurve" smooth="yes"/>
      <point x="1854" y="974"/>
      <point x="1847" y="980" type="qcurve" smooth="yes"/>
      <point x="1823" y="1001"/>
      <point x="1800" y="1001" type="qcurve" smooth="yes"/>
      <point x="1772" y="1001"/>
      <point x="1746" y="971" type="qcurve" smooth="yes"/>
      <point x="1739" y="963"/>
      <point x="1739" y="951" type="qcurve" smooth="yes"/>
      <point x="1739" y="920"/>
      <point x="1781" y="864" type="qcurve" smooth="yes"/>
      <point x="1786" y="856"/>
      <point x="1793" y="848" type="qcurve"/>
      <point x="1854" y="930"/>
    </contour>
    <contour>
      <point x="2027" y="310" type="qcurve" smooth="yes"/>
      <point x="2027" y="304"/>
      <point x="2031" y="301" type="qcurve" smooth="yes"/>
      <point x="2050" y="282"/>
      <point x="2072" y="282" type="qcurve" smooth="yes"/>
      <point x="2090" y="282"/>
      <point x="2109" y="295" type="qcurve" smooth="yes"/>
      <point x="2115" y="298"/>
      <point x="2115" y="306" type="qcurve" smooth="yes"/>
      <point x="2115" y="328"/>
      <point x="2071" y="380" type="qcurve"/>
      <point x="2027" y="332"/>
    </contour>
    <contour>
      <point x="2451" y="942" type="qcurve" smooth="yes"/>
      <point x="2451" y="946"/>
      <point x="2449" y="948" type="qcurve" smooth="yes"/>
      <point x="2434" y="965"/>
      <point x="2416" y="965" type="qcurve" smooth="yes"/>
      <point x="2402" y="965"/>
      <point x="2386" y="955" type="qcurve" smooth="yes"/>
      <point x="2381" y="952"/>
      <point x="2381" y="944" type="qcurve" smooth="yes"/>
      <point x="2381" y="926"/>
      <point x="2411" y="882" type="qcurve"/>
      <point x="2451" y="926"/>
    </contour>
    <contour>
      <point x="2617" y="380" type="qcurve"/>
      <point x="2618" y="379" type="line" smooth="yes"/>
      <point x="2625" y="372"/>
      <point x="2634" y="372" type="qcurve" smooth="yes"/>
      <point x="2642" y="372"/>
      <point x="2650" y="376" type="qcurve" smooth="yes"/>
      <point x="2652" y="377"/>
      <point x="2652" y="380" type="qcurve" smooth="yes"/>
      <point x="2652" y="387"/>
      <point x="2638" y="406" type="qcurve"/>
      <point x="2617" y="387"/>
    </contour>
    <contour>
      <point x="3007" y="875" type="qcurve" smooth="yes"/>
      <point x="3007" y="876"/>
      <point x="3006" y="876" type="qcurve" smooth="yes"/>
      <point x="3001" y="881"/>
      <point x="2995" y="881" type="qcurve" smooth="yes"/>
      <point x="2986" y="881"/>
      <point x="2976" y="873" type="qcurve" smooth="yes"/>
      <point x="2974" y="871"/>
      <point x="2974" y="868" type="qcurve" smooth="yes"/>
      <point x="2974" y="861"/>
      <point x="2982" y="848" type="qcurve"/>
      <point x="3007" y="870"/>
    </contour>
    <contour>
      <point x="3156" y="640" type="qcurve"/>
      <point x="3197" y="655"/>
      <point x="3243" y="666" type="qcurve" smooth="yes"/>
      <point x="3358" y="693"/>
      <point x="3505" y="693" type="qcurve" smooth="yes"/>
      <point x="3600" y="693"/>
      <point x="3600" y="628" type="qcurve" smooth="yes"/>
      <point x="3600" y="563"/>
      <point x="3501" y="563" type="qcurve" smooth="yes"/>
      <point x="3381" y="563" type="line" smooth="yes"/>
      <point x="3295" y="563"/>
      <point x="3229" y="535" type="qcurve"/>
      <point x="3249" y="499"/>
      <point x="3258" y="469" type="qcurve" smooth="yes"/>
      <point x="3265" y="444"/>
      <point x="3265" y="423" type="qcurve" smooth="yes"/>
      <point x="3265" y="369"/>
      <point x="3218" y="338" type="qcurve" smooth="yes"/>
      <point x="3161" y="301"/>
      <point x="3110" y="301" type="qcurve" smooth="yes"/>
      <point x="3102" y="301"/>
      <point x="3094" y="302" type="qcurve" smooth="yes"/>
      <point x="3035" y="308"/>
      <point x="2984" y="363" type="qcurve" smooth="yes"/>
      <point x="2945" y="406"/>
      <point x="2945" y="449" type="qcurve" smooth="yes"/>
      <point x="2945" y="461"/>
      <point x="2948" y="474" type="qcurve" smooth="yes"/>
      <point x="2963" y="526"/>
      <point x="3037" y="578" type="qcurve"/>
      <point x="3022" y="597"/>
      <point x="3005" y="618" type="qcurve" smooth="yes"/>
      <point x="2987" y="637"/>
      <point x="2972" y="655" type="qcurve"/>
      <point x="2926" y="619"/>
      <point x="2870" y="580" type="qcurve" smooth="yes"/>
      <point x="2792" y="524"/>
      <point x="2737" y="484" type="qcurve"/>
      <point x="2757" y="452"/>
      <point x="2769" y="423" type="qcurve" smooth="yes"/>
      <point x="2785" y="383"/>
      <point x="2785" y="352" type="qcurve" smooth="yes"/>
      <point x="2785" y="302"/>
      <point x="2743" y="275" type="qcurve" smooth="yes"/>
      <point x="2685" y="237"/>
      <point x="2633" y="237" type="qcurve" smooth="yes"/>
      <point x="2624" y="237"/>
      <point x="2615" y="238" type="qcurve" smooth="yes"/>
      <point x="2554" y="246"/>
      <point x="2502" y="304" type="qcurve" smooth="yes"/>
      <point x="2479" y="330"/>
      <point x="2479" y="364" type="qcurve" smooth="yes"/>
      <point x="2479" y="405"/>
      <point x="2514" y="458" type="qcurve" smooth="yes"/>
      <point x="2531" y="482"/>
      <point x="2555" y="509" type="qcurve"/>
      <point x="2519" y="551"/>
      <point x="2469" y="607" type="qcurve" smooth="yes"/>
      <point x="2400" y="681" type="line"/>
      <point x="2351" y="633"/>
      <point x="2288" y="578" type="qcurve" smooth="yes"/>
      <point x="2213" y="516"/>
      <point x="2159" y="467" type="qcurve"/>
      <point x="2203" y="411"/>
      <point x="2226" y="364" type="qcurve" smooth="yes"/>
      <point x="2249" y="316"/>
      <point x="2249" y="280" type="qcurve" smooth="yes"/>
      <point x="2249" y="228"/>
      <point x="2203" y="198" type="qcurve" smooth="yes"/>
      <point x="2131" y="150"/>
      <point x="2066" y="150" type="qcurve" smooth="yes"/>
      <point x="2059" y="150"/>
      <point x="2053" y="151" type="qcurve" smooth="yes"/>
      <point x="1982" y="156"/>
      <point x="1919" y="220" type="qcurve" smooth="yes"/>
      <point x="1888" y="252"/>
      <point x="1888" y="296" type="qcurve" smooth="yes"/>
      <point x="1888" y="340"/>
      <point x="1920" y="397" type="qcurve" smooth="yes"/>
      <point x="1942" y="436"/>
      <point x="1978" y="480" type="qcurve"/>
      <point x="1935" y="522"/>
      <point x="1879" y="574" type="qcurve" smooth="yes"/>
      <point x="1840" y="609"/>
      <point x="1806" y="643" type="qcurve"/>
      <point x="1739" y="560"/>
      <point x="1646" y="463" type="qcurve" smooth="yes"/>
      <point x="1423" y="231"/>
      <point x="1228" y="116" type="qcurve" smooth="yes"/>
      <point x="1032" y="0"/>
      <point x="865" y="0" type="qcurve" smooth="yes"/>
      <point x="658" y="0"/>
      <point x="554" y="162" type="qcurve" smooth="yes"/>
      <point x="450" y="325"/>
      <point x="450" y="650" type="qcurve" smooth="yes"/>
      <point x="450" y="975"/>
      <point x="569" y="1137" type="qcurve" smooth="yes"/>
      <point x="688" y="1300"/>
      <point x="925" y="1300" type="qcurve" smooth="yes"/>
      <point x="1163" y="1300"/>
      <point x="1282" y="1214" type="qcurve" smooth="yes"/>
      <point x="1400" y="1128"/>
      <point x="1400" y="957" type="qcurve" smooth="yes"/>
      <point x="1400" y="781"/>
      <point x="1314" y="674" type="qcurve" smooth="yes"/>
      <point x="1227" y="567"/>
      <point x="1054" y="529" type="qcurve" smooth="yes"/>
      <point x="1033" y="523"/>
      <point x="1016" y="523" type="qcurve" smooth="yes"/>
      <point x="965" y="523"/>
      <point x="950" y="570" type="qcurve" smooth="yes"/>
      <point x="946" y="582"/>
      <point x="946" y="593" type="qcurve" smooth="yes"/>
      <point x="946" y="637"/>
      <point x="1015" y="653" type="qcurve" smooth="yes"/>
      <point x="1132" y="679"/>
      <point x="1191" y="754" type="qcurve" smooth="yes"/>
      <point x="1250" y="829"/>
      <point x="1250" y="951" type="qcurve" smooth="yes"/>
      <point x="1250" y="1060"/>
      <point x="1169" y="1115" type="qcurve" smooth="yes"/>
      <point x="1087" y="1170"/>
      <point x="925" y="1170" type="qcurve" smooth="yes"/>
      <point x="763" y="1170"/>
      <point x="682" y="1040" type="qcurve" smooth="yes"/>
      <point x="601" y="912"/>
      <point x="601" y="656" type="qcurve" smooth="yes"/>
      <point x="601" y="650" type="line" smooth="yes"/>
      <point x="601" y="390"/>
      <point x="667" y="260" type="qcurve" smooth="yes"/>
      <point x="733" y="130"/>
      <point x="866" y="130" type="qcurve" smooth="yes"/>
      <point x="998" y="130"/>
      <point x="1160" y="231" type="qcurve" smooth="yes"/>
      <point x="1322" y="331"/>
      <point x="1515" y="532" type="qcurve" smooth="yes"/>
      <point x="1635" y="657"/>
      <point x="1712" y="748" type="qcurve"/>
      <point x="1658" y="815"/>
      <point x="1632" y="871" type="qcurve" smooth="yes"/>
      <point x="1607" y="925"/>
      <point x="1607" y="970" type="qcurve" smooth="yes"/>
      <point x="1607" y="1027"/>
      <point x="1649" y="1069" type="qcurve" smooth="yes"/>
      <point x="1723" y="1142"/>
      <point x="1797" y="1143" type="qcurve" smooth="yes"/>
      <point x="1799" y="1143" type="line" smooth="yes"/>
      <point x="1871" y="1143"/>
      <point x="1944" y="1071" type="qcurve" smooth="yes"/>
      <point x="1981" y="1035"/>
      <point x="1981" y="979" type="qcurve" smooth="yes"/>
      <point x="1981" y="923"/>
      <point x="1943" y="847" type="qcurve" smooth="yes"/>
      <point x="1920" y="801"/>
      <point x="1884" y="748" type="qcurve"/>
      <point x="1926" y="705"/>
      <point x="1979" y="657" type="qcurve" smooth="yes"/>
      <point x="2026" y="614"/>
      <point x="2065" y="574" type="qcurve"/>
      <point x="2114" y="621"/>
      <point x="2176" y="674" type="qcurve" smooth="yes"/>
      <point x="2257" y="740"/>
      <point x="2314" y="791" type="qcurve"/>
      <point x="2282" y="842"/>
      <point x="2260" y="900" type="qcurve" smooth="yes"/>
      <point x="2244" y="941"/>
      <point x="2244" y="974" type="qcurve" smooth="yes"/>
      <point x="2244" y="1032"/>
      <point x="2293" y="1064" type="qcurve" smooth="yes"/>
      <point x="2361" y="1108"/>
      <point x="2420" y="1108" type="qcurve" smooth="yes"/>
      <point x="2436" y="1108" type="line"/>
      <point x="2503" y="1101"/>
      <point x="2560" y="1037" type="qcurve" smooth="yes"/>
      <point x="2586" y="1009"/>
      <point x="2586" y="969" type="qcurve" smooth="yes"/>
      <point x="2586" y="922"/>
      <point x="2549" y="860" type="qcurve" smooth="yes"/>
      <point x="2527" y="823"/>
      <point x="2493" y="781" type="qcurve"/>
      <point x="2528" y="741"/>
      <point x="2574" y="692" type="qcurve" smooth="yes"/>
      <point x="2618" y="644"/>
      <point x="2653" y="601" type="qcurve"/>
      <point x="2699" y="640"/>
      <point x="2758" y="682" type="qcurve" smooth="yes"/>
      <point x="2832" y="734"/>
      <point x="2883" y="772" type="qcurve"/>
      <point x="2860" y="811"/>
      <point x="2849" y="844" type="qcurve" smooth="yes"/>
      <point x="2840" y="872"/>
      <point x="2840" y="895" type="qcurve" smooth="yes"/>
      <point x="2840" y="946"/>
      <point x="2886" y="977" type="qcurve" smooth="yes"/>
      <point x="2942" y="1013"/>
      <point x="2994" y="1013" type="qcurve" smooth="yes"/>
      <point x="3003" y="1013"/>
      <point x="3012" y="1012" type="qcurve" smooth="yes"/>
      <point x="3072" y="1005"/>
      <point x="3126" y="947" type="qcurve" smooth="yes"/>
      <point x="3150" y="921"/>
      <point x="3150" y="887" type="qcurve" smooth="yes"/>
      <point x="3150" y="848"/>
      <point x="3115" y="797" type="qcurve" smooth="yes"/>
      <point x="3096" y="770"/>
      <point x="3067" y="740" type="qcurve"/>
      <point x="3088" y="717"/>
      <point x="3114" y="688" type="qcurve" smooth="yes"/>
      <point x="3137" y="663"/>
    </contour>
  </outline>
</glyph>
<glyph name="uni17DB" format="1">
  <advance width="650"/>
  <unicode hex="17DB"/>
  <outline>
    <contour>
      <point x="225" y="313" type="qcurve" smooth="yes"/>
      <point x="200" y="313"/>
      <point x="200" y="217" type="qcurve" smooth="yes"/>
      <point x="200" y="143"/>
      <point x="225" y="143" type="qcurve" smooth="yes"/>
      <point x="250" y="143"/>
      <point x="250" y="248" type="qcurve" smooth="yes"/>
      <point x="250" y="313"/>
    </contour>
    <contour>
      <point x="450" y="725" type="line"/>
      <point x="550" y="725" type="line"/>
      <point x="550" y="575" type="line"/>
      <point x="450" y="575" type="line"/>
      <point x="450" y="248" type="line" smooth="yes"/>
      <point x="450" y="0"/>
      <point x="280" y="0" type="qcurve" smooth="yes"/>
      <point x="100" y="0"/>
      <point x="100" y="217" type="qcurve" smooth="yes"/>
      <point x="100" y="393"/>
      <point x="200" y="426" type="qcurve"/>
      <point x="200" y="575" type="line"/>
      <point x="100" y="575" type="line"/>
      <point x="100" y="725" type="line"/>
      <point x="200" y="725" type="line"/>
      <point x="200" y="891" type="line"/>
      <point x="100" y="942" type="line"/>
      <point x="100" y="1084" type="line"/>
      <point x="182" y="1192" type="line" smooth="yes"/>
      <point x="263" y="1300"/>
      <point x="293" y="1300" type="qcurve" smooth="yes"/>
      <point x="312" y="1300"/>
      <point x="355" y="1268" type="qcurve"/>
      <point x="446" y="1212" type="line" smooth="yes"/>
      <point x="482" y="1192"/>
      <point x="502" y="1192" type="qcurve" smooth="yes"/>
      <point x="522" y="1192"/>
      <point x="550" y="1201" type="qcurve"/>
      <point x="522" y="1053"/>
      <point x="437" y="1036" type="qcurve" smooth="yes"/>
      <point x="423" y="1035"/>
      <point x="410" y="1035" type="qcurve" smooth="yes"/>
      <point x="373" y="1035"/>
      <point x="338" y="1050" type="qcurve" smooth="yes"/>
      <point x="266" y="1080" type="line"/>
      <point x="238" y="1043" type="line" smooth="yes"/>
      <point x="228" y="1032"/>
      <point x="228" y="1022" type="qcurve" smooth="yes"/>
      <point x="228" y="1010"/>
      <point x="243" y="1000" type="qcurve" smooth="yes"/>
      <point x="414" y="922" type="line" smooth="yes"/>
      <point x="450" y="904"/>
      <point x="450" y="860" type="qcurve" smooth="yes"/>
    </contour>
  </outline>
</glyph>
<glyph name="uni17DC" format="1">
  <advance width="1350"/>
  <unicode hex="17DC"/>
  <outline>
    <contour>
      <point x="388" y="822" type="qcurve" smooth="yes"/>
      <point x="388" y="740"/>
      <point x="497" y="658"/>
      <point x="675" y="658" type="qcurve" smooth="yes"/>
      <point x="912" y="658"/>
      <point x="1150" y="519"/>
      <point x="1150" y="379" type="qcurve" smooth="yes"/>
      <point x="1150" y="190"/>
      <point x="1031" y="95" type="qcurve" smooth="yes"/>
      <point x="912" y="0"/>
      <point x="675" y="0" type="qcurve" smooth="yes"/>
      <point x="438" y="0"/>
      <point x="319" y="73" type="qcurve" smooth="yes"/>
      <point x="200" y="146"/>
      <point x="200" y="293" type="qcurve" smooth="yes"/>
      <point x="200" y="380"/>
      <point x="245" y="424" type="qcurve" smooth="yes"/>
      <point x="290" y="467"/>
      <point x="429" y="468" type="qcurve" smooth="yes"/>
      <point x="459" y="468"/>
      <point x="474" y="453" type="qcurve" smooth="yes"/>
      <point x="489" y="438"/>
      <point x="489" y="408" type="qcurve" smooth="yes"/>
      <point x="489" y="379"/>
      <point x="474" y="365" type="qcurve" smooth="yes"/>
      <point x="459" y="350"/>
      <point x="429" y="350" type="qcurve" smooth="yes"/>
      <point x="388" y="350"/>
      <point x="388" y="292" type="qcurve" smooth="yes"/>
      <point x="388" y="205"/>
      <point x="497" y="156"/>
      <point x="675" y="156" type="qcurve" smooth="yes"/>
      <point x="853" y="156"/>
      <point x="963" y="249"/>
      <point x="963" y="380" type="qcurve" smooth="yes"/>
      <point x="963" y="462"/>
      <point x="853" y="543"/>
      <point x="675" y="543" type="qcurve" smooth="yes"/>
      <point x="438" y="543"/>
      <point x="201" y="682"/>
      <point x="200" y="822" type="qcurve" smooth="yes"/>
      <point x="200" y="1011"/>
      <point x="319" y="1106" type="qcurve" smooth="yes"/>
      <point x="438" y="1200"/>
      <point x="675" y="1200" type="qcurve" smooth="yes"/>
      <point x="912" y="1200"/>
      <point x="1031" y="1127" type="qcurve" smooth="yes"/>
      <point x="1150" y="1055"/>
      <point x="1150" y="910" type="qcurve" smooth="yes"/>
      <point x="1150" y="822"/>
      <point x="1105" y="778" type="qcurve" smooth="yes"/>
      <point x="1061" y="734"/>
      <point x="922" y="734" type="qcurve" smooth="yes"/>
      <point x="892" y="734"/>
      <point x="877" y="749" type="qcurve" smooth="yes"/>
      <point x="862" y="764"/>
      <point x="862" y="793" type="qcurve" smooth="yes"/>
      <point x="862" y="822"/>
      <point x="877" y="837" type="qcurve" smooth="yes"/>
      <point x="892" y="851"/>
      <point x="922" y="851" type="qcurve" smooth="yes"/>
      <point x="963" y="851"/>
      <point x="963" y="910" type="qcurve" smooth="yes"/>
      <point x="963" y="997"/>
      <point x="853" y="1045"/>
      <point x="675" y="1045" type="qcurve" smooth="yes"/>
      <point x="497" y="1045"/>
      <point x="388" y="953"/>
    </contour>
  </outline>
</glyph>
<glyph name="uni17DD" format="1">
  <advance width="0"/>
  <unicode hex="17DD"/>
  <outline>
    <contour>
      <point x="-199" y="1650" type="qcurve"/>
      <point x="-393" y="1650" type="line"/>
      <point x="-393" y="1755"/>
      <point x="-476" y="1807" type="qcurve" smooth="yes"/>
      <point x="-558" y="1861"/>
      <point x="-724" y="1861" type="qcurve" smooth="yes"/>
      <point x="-891" y="1861"/>
      <point x="-974" y="1807" type="qcurve" smooth="yes"/>
      <point x="-1058" y="1755"/>
      <point x="-1058" y="1650" type="qcurve"/>
      <point x="-1249" y="1650" type="line"/>
      <point x="-1249" y="1826"/>
      <point x="-1118" y="1914" type="qcurve" smooth="yes"/>
      <point x="-986" y="2001"/>
      <point x="-724" y="2001" type="qcurve" smooth="yes"/>
      <point x="-462" y="2001"/>
      <point x="-330" y="1914" type="qcurve" smooth="yes"/>
      <point x="-199" y="1826"/>
    </contour>
  </outline>
</glyph>
<glyph name="uni17E0" format="1">
  <advance width="1450"/>
  <unicode hex="17E0"/>
  <outline>
    <contour>
      <point x="1000" y="780" type="line" smooth="yes"/>
      <point x="1000" y="975"/>
      <point x="863" y="1150"/>
      <point x="725" y="1150" type="qcurve" smooth="yes"/>
      <point x="588" y="1150"/>
      <point x="450" y="975"/>
      <point x="450" y="780" type="qcurve" smooth="yes"/>
      <point x="450" y="520" type="line" smooth="yes"/>
      <point x="450" y="325"/>
      <point x="588" y="150"/>
      <point x="725" y="150" type="qcurve" smooth="yes"/>
      <point x="863" y="150"/>
      <point x="1000" y="325"/>
      <point x="1000" y="520" type="qcurve" smooth="yes"/>
    </contour>
    <contour>
      <point x="1250" y="520" type="line" smooth="yes"/>
      <point x="1250" y="260"/>
      <point x="1119" y="130" type="qcurve" smooth="yes"/>
      <point x="988" y="0"/>
      <point x="725" y="0" type="qcurve" smooth="yes"/>
      <point x="463" y="0"/>
      <point x="331" y="130" type="qcurve" smooth="yes"/>
      <point x="200" y="260"/>
      <point x="200" y="520" type="qcurve" smooth="yes"/>
      <point x="200" y="780" type="line" smooth="yes"/>
      <point x="200" y="1040"/>
      <point x="331" y="1170" type="qcurve" smooth="yes"/>
      <point x="463" y="1300"/>
      <point x="725" y="1300" type="qcurve" smooth="yes"/>
      <point x="988" y="1300"/>
      <point x="1119" y="1170" type="qcurve" smooth="yes"/>
      <point x="1250" y="1040"/>
      <point x="1250" y="780" type="qcurve" smooth="yes"/>
    </contour>
  </outline>
</glyph>
<glyph name="uni17E1" format="1">
  <advance width="1600"/>
  <unicode hex="17E1"/>
  <outline>
    <contour>
      <point x="1197" y="202" type="qcurve" smooth="yes"/>
      <point x="992" y="0"/>
      <point x="600" y="0" type="qcurve"/>
      <point x="600" y="127" type="line"/>
      <point x="870" y="127"/>
      <point x="1150" y="457"/>
      <point x="1150" y="780" type="qcurve" smooth="yes"/>
      <point x="1150" y="1017"/>
      <point x="903" y="1150"/>
      <point x="778" y="1150" type="qcurve" smooth="yes"/>
      <point x="652" y="1150"/>
      <point x="450" y="1025"/>
      <point x="450" y="867" type="qcurve" smooth="yes"/>
      <point x="450" y="732"/>
      <point x="515" y="648"/>
      <point x="576" y="642" type="qcurve" smooth="yes"/>
      <point x="607" y="638"/>
      <point x="637" y="638" type="qcurve" smooth="yes"/>
      <point x="667" y="638"/>
      <point x="697" y="642" type="qcurve" smooth="yes"/>
      <point x="757" y="648"/>
      <point x="831" y="686"/>
      <point x="831" y="723" type="qcurve" smooth="yes"/>
      <point x="831" y="732" type="line"/>
      <point x="807" y="726"/>
      <point x="788" y="726" type="qcurve" smooth="yes"/>
      <point x="733" y="726"/>
      <point x="710" y="771" type="qcurve" smooth="yes"/>
      <point x="695" y="801"/>
      <point x="695" y="826" type="qcurve" smooth="yes"/>
      <point x="695" y="888"/>
      <point x="787" y="925" type="qcurve" smooth="yes"/>
      <point x="830" y="941"/>
      <point x="865" y="941" type="qcurve" smooth="yes"/>
      <point x="935" y="941"/>
      <point x="971" y="873" type="qcurve" smooth="yes"/>
      <point x="1004" y="809"/>
      <point x="1004" y="752" type="qcurve" smooth="yes"/>
      <point x="1004" y="712"/>
      <point x="987" y="674" type="qcurve" smooth="yes"/>
      <point x="946" y="583"/>
      <point x="812" y="492"/>
      <point x="725" y="481" type="qcurve" smooth="yes"/>
      <point x="692" y="476"/>
      <point x="653" y="476" type="qcurve" smooth="yes"/>
      <point x="590" y="476"/>
      <point x="511" y="489" type="qcurve" smooth="yes"/>
      <point x="385" y="508"/>
      <point x="293" y="602" type="qcurve" smooth="yes"/>
      <point x="200" y="696"/>
      <point x="200" y="867" type="qcurve" smooth="yes"/>
      <point x="200" y="1062"/>
      <point x="347" y="1181" type="qcurve" smooth="yes"/>
      <point x="495" y="1300"/>
      <point x="778" y="1300" type="qcurve" smooth="yes"/>
      <point x="1061" y="1300"/>
      <point x="1231" y="1177" type="qcurve" smooth="yes"/>
      <point x="1400" y="1053"/>
      <point x="1400" y="780" type="qcurve" smooth="yes"/>
      <point x="1400" y="403"/>
    </contour>
  </outline>
</glyph>
<glyph name="uni17E2" format="1">
  <advance width="1700"/>
  <unicode hex="17E2"/>
  <outline>
    <contour>
      <point x="200" y="1320" type="line" smooth="yes"/>
      <point x="200" y="1436"/>
      <point x="50" y="1436" type="qcurve"/>
      <point x="50" y="1570"/>
      <point x="180" y="1570" type="qcurve" smooth="yes"/>
      <point x="450" y="1570"/>
      <point x="450" y="1320" type="qcurve" smooth="yes"/>
      <point x="450" y="347" type="line" smooth="yes"/>
      <point x="450" y="236"/>
      <point x="674" y="150"/>
      <point x="850" y="150" type="qcurve" smooth="yes"/>
      <point x="1026" y="150"/>
      <point x="1250" y="236"/>
      <point x="1250" y="347" type="qcurve" smooth="yes"/>
      <point x="1250" y="1040" type="line" smooth="yes"/>
      <point x="1250" y="1095"/>
      <point x="1212" y="1104" type="qcurve" smooth="yes"/>
      <point x="1209" y="1105"/>
      <point x="1205" y="1105" type="qcurve" smooth="yes"/>
      <point x="1170" y="1105"/>
      <point x="1051" y="947" type="qcurve"/>
      <point x="934" y="1105"/>
      <point x="898" y="1105" type="qcurve" smooth="yes"/>
      <point x="894" y="1105"/>
      <point x="891" y="1104" type="qcurve" smooth="yes"/>
      <point x="850" y="1095"/>
      <point x="850" y="1040" type="qcurve" smooth="yes"/>
      <point x="850" y="672" type="line"/>
      <point x="882" y="672"/>
      <point x="919" y="645" type="qcurve" smooth="yes"/>
      <point x="956" y="617"/>
      <point x="956" y="563" type="qcurve" smooth="yes"/>
      <point x="956" y="433"/>
      <point x="850" y="433" type="qcurve" smooth="yes"/>
      <point x="725" y="433" type="line" smooth="yes"/>
      <point x="600" y="433"/>
      <point x="600" y="520" type="qcurve" smooth="yes"/>
      <point x="600" y="1040" type="line" smooth="yes"/>
      <point x="600" y="1146"/>
      <point x="709" y="1223" type="qcurve" smooth="yes"/>
      <point x="818" y="1300"/>
      <point x="898" y="1300" type="qcurve" smooth="yes"/>
      <point x="928" y="1300"/>
      <point x="1051" y="1184" type="qcurve"/>
      <point x="1174" y="1300"/>
      <point x="1203" y="1300" type="qcurve" smooth="yes"/>
      <point x="1283" y="1300"/>
      <point x="1391" y="1223" type="qcurve" smooth="yes"/>
      <point x="1500" y="1146"/>
      <point x="1500" y="1040" type="qcurve" smooth="yes"/>
      <point x="1500" y="347" type="line" smooth="yes"/>
      <point x="1500" y="149"/>
      <point x="1120" y="0"/>
      <point x="850" y="0" type="qcurve" smooth="yes"/>
      <point x="580" y="0"/>
      <point x="200" y="149"/>
      <point x="200" y="347" type="qcurve" smooth="yes"/>
    </contour>
  </outline>
</glyph>
<glyph name="uni17E3" format="1">
  <advance width="1850"/>
  <unicode hex="17E3"/>
  <outline>
    <contour>
      <point x="450" y="275" type="line"/>
      <point x="482" y="275"/>
      <point x="519" y="244" type="qcurve" smooth="yes"/>
      <point x="556" y="212"/>
      <point x="556" y="150" type="qcurve" smooth="yes"/>
      <point x="556" y="0"/>
      <point x="450" y="0" type="qcurve" smooth="yes"/>
      <point x="325" y="0" type="line" smooth="yes"/>
      <point x="200" y="0"/>
      <point x="200" y="100" type="qcurve" smooth="yes"/>
      <point x="200" y="997" type="line" smooth="yes"/>
      <point x="200" y="1300"/>
      <point x="625" y="1300" type="qcurve" smooth="yes"/>
      <point x="832" y="1300"/>
      <point x="925" y="1207" type="qcurve"/>
      <point x="1018" y="1300"/>
      <point x="1225" y="1300" type="qcurve" smooth="yes"/>
      <point x="1650" y="1300"/>
      <point x="1650" y="997" type="qcurve" smooth="yes"/>
      <point x="1650" y="0" type="line"/>
      <point x="1400" y="0" type="line"/>
      <point x="1400" y="997" type="line" smooth="yes"/>
      <point x="1400" y="1134"/>
      <point x="1225" y="1134" type="qcurve" smooth="yes"/>
      <point x="1050" y="1134"/>
      <point x="1050" y="997" type="qcurve" smooth="yes"/>
      <point x="1050" y="0" type="line"/>
      <point x="800" y="0" type="line"/>
      <point x="800" y="997" type="line" smooth="yes"/>
      <point x="800" y="1134"/>
      <point x="625" y="1134" type="qcurve" smooth="yes"/>
      <point x="450" y="1134"/>
      <point x="450" y="997" type="qcurve" smooth="yes"/>
    </contour>
  </outline>
</glyph>
<glyph name="uni17E4" format="1">
  <advance width="1450"/>
  <unicode hex="17E4"/>
  <outline>
    <contour>
      <point x="200" y="706" type="line" smooth="yes"/>
      <point x="200" y="1001"/>
      <point x="565" y="1098" type="qcurve"/>
      <point x="848" y="1178" type="line" smooth="yes"/>
      <point x="1050" y="1237"/>
      <point x="1050" y="1350" type="qcurve" smooth="yes"/>
      <point x="1050" y="1412"/>
      <point x="962" y="1412" type="qcurve"/>
      <point x="962" y="1500"/>
      <point x="1132" y="1500" type="qcurve" smooth="yes"/>
      <point x="1300" y="1500"/>
      <point x="1300" y="1350" type="qcurve" smooth="yes"/>
      <point x="1300" y="1135"/>
      <point x="908" y="1011" type="qcurve"/>
      <point x="604" y="927" type="line"/>
      <point x="450" y="876"/>
      <point x="450" y="706" type="qcurve" smooth="yes"/>
      <point x="450" y="315" type="line" smooth="yes"/>
      <point x="450" y="264"/>
      <point x="544" y="162"/>
      <point x="650" y="162" type="qcurve" smooth="yes"/>
      <point x="1022" y="162" type="line"/>
      <point x="870" y="327"/>
      <point x="870" y="397" type="qcurve" smooth="yes"/>
      <point x="870" y="618" type="line" smooth="yes"/>
      <point x="870" y="794"/>
      <point x="995" y="794" type="qcurve" smooth="yes"/>
      <point x="1120" y="794" type="line" smooth="yes"/>
      <point x="1170" y="794"/>
      <point x="1261" y="751"/>
      <point x="1300" y="672"/>
      <point x="1300" y="622" type="qcurve" smooth="yes"/>
      <point x="1300" y="574"/>
      <point x="1230" y="485"/>
      <point x="1120" y="485" type="qcurve"/>
      <point x="1120" y="397" type="line" smooth="yes"/>
      <point x="1120" y="308"/>
      <point x="1210" y="209" type="qcurve" smooth="yes"/>
      <point x="1300" y="110" type="line"/>
      <point x="1300" y="0" type="line"/>
      <point x="650" y="0" type="line" smooth="yes"/>
      <point x="450" y="0"/>
      <point x="200" y="150"/>
      <point x="200" y="315" type="qcurve" smooth="yes"/>
    </contour>
  </outline>
</glyph>
<glyph name="uni17E5" format="1">
  <advance width="1500"/>
  <unicode hex="17E5"/>
  <outline>
    <contour>
      <point x="622" y="1069" type="qcurve"/>
      <point x="656" y="1099"/>
      <point x="656" y="1128" type="qcurve" smooth="yes"/>
      <point x="656" y="1175"/>
      <point x="588" y="1175" type="qcurve" smooth="yes"/>
      <point x="540" y="1175"/>
      <point x="540" y="1128" type="qcurve" smooth="yes"/>
      <point x="540" y="1089"/>
    </contour>
    <contour>
      <point x="765" y="1047" type="qcurve"/>
      <point x="916" y="1024" type="line" smooth="yes"/>
      <point x="933" y="1022"/>
      <point x="947" y="1022" type="qcurve" smooth="yes"/>
      <point x="1050" y="1022"/>
      <point x="1050" y="1147" type="qcurve" smooth="yes"/>
      <point x="1050" y="1350" type="line" smooth="yes"/>
      <point x="1050" y="1500"/>
      <point x="1300" y="1500" type="qcurve" smooth="yes"/>
      <point x="1400" y="1500"/>
      <point x="1400" y="1412" type="qcurve"/>
      <point x="1300" y="1412"/>
      <point x="1300" y="1350" type="qcurve" smooth="yes"/>
      <point x="1300" y="1147" type="line" smooth="yes"/>
      <point x="1300" y="832"/>
      <point x="1025" y="832" type="qcurve"/>
      <point x="639" y="890" type="line"/>
      <point x="608" y="872"/>
      <point x="570" y="854" type="qcurve"/>
      <point x="450" y="817"/>
      <point x="450" y="626" type="qcurve" smooth="yes"/>
      <point x="450" y="315" type="line" smooth="yes"/>
      <point x="450" y="264"/>
      <point x="544" y="150"/>
      <point x="650" y="150" type="qcurve" smooth="yes"/>
      <point x="1042" y="150" type="line"/>
      <point x="880" y="283"/>
      <point x="880" y="353" type="qcurve" smooth="yes"/>
      <point x="880" y="529" type="line" smooth="yes"/>
      <point x="880" y="706"/>
      <point x="1096" y="706" type="qcurve" smooth="yes"/>
      <point x="1170" y="706"/>
      <point x="1261" y="663"/>
      <point x="1300" y="584"/>
      <point x="1300" y="534" type="qcurve" smooth="yes"/>
      <point x="1300" y="485"/>
      <point x="1230" y="397"/>
      <point x="1130" y="397" type="qcurve"/>
      <point x="1130" y="353" type="line" smooth="yes"/>
      <point x="1130" y="264"/>
      <point x="1300" y="110" type="qcurve"/>
      <point x="1300" y="0" type="line"/>
      <point x="650" y="0" type="line" smooth="yes"/>
      <point x="450" y="0"/>
      <point x="200" y="150"/>
      <point x="200" y="315" type="qcurve" smooth="yes"/>
      <point x="200" y="626" type="line" smooth="yes"/>
      <point x="200" y="874"/>
      <point x="456" y="956" type="qcurve"/>
      <point x="366" y="1004"/>
      <point x="366" y="1128" type="qcurve" smooth="yes"/>
      <point x="366" y="1324"/>
      <point x="588" y="1324" type="qcurve" smooth="yes"/>
      <point x="790" y="1324"/>
      <point x="790" y="1128" type="qcurve" smooth="yes"/>
      <point x="790" y="1086"/>
    </contour>
  </outline>
</glyph>
<glyph name="uni17E6" format="1">
  <advance width="1500"/>
  <unicode hex="17E6"/>
  <outline>
    <contour>
      <point x="612" y="580" type="qcurve" smooth="yes"/>
      <point x="588" y="584"/>
      <point x="566" y="584" type="qcurve" smooth="yes"/>
      <point x="526" y="584"/>
      <point x="450" y="492"/>
      <point x="450" y="407" type="qcurve" smooth="yes"/>
      <point x="450" y="283"/>
      <point x="572" y="150"/>
      <point x="726" y="150" type="qcurve" smooth="yes"/>
      <point x="905" y="150"/>
      <point x="1050" y="366"/>
      <point x="1050" y="598" type="qcurve" smooth="yes"/>
      <point x="1050" y="693" type="line" smooth="yes"/>
      <point x="1050" y="957"/>
      <point x="896" y="1150"/>
      <point x="771" y="1150" type="qcurve" smooth="yes"/>
      <point x="562" y="1150"/>
      <point x="450" y="954" type="qcurve"/>
      <point x="450" y="867"/>
      <point x="325" y="867" type="qcurve" smooth="yes"/>
      <point x="200" y="867"/>
      <point x="200" y="954" type="qcurve" smooth="yes"/>
      <point x="200" y="1300" type="line" smooth="yes"/>
      <point x="200" y="1401"/>
      <point x="50" y="1401" type="qcurve"/>
      <point x="50" y="1517"/>
      <point x="230" y="1517" type="qcurve" smooth="yes"/>
      <point x="450" y="1517"/>
      <point x="450" y="1300" type="qcurve" smooth="yes"/>
      <point x="450" y="1183" type="line"/>
      <point x="618" y="1300"/>
      <point x="771" y="1300" type="qcurve" smooth="yes"/>
      <point x="970" y="1300"/>
      <point x="1300" y="1020"/>
      <point x="1300" y="693" type="qcurve" smooth="yes"/>
      <point x="1300" y="598" type="line" smooth="yes"/>
      <point x="1300" y="251"/>
      <point x="980" y="0"/>
      <point x="726" y="0" type="qcurve" smooth="yes"/>
      <point x="438" y="0"/>
      <point x="319" y="123" type="qcurve" smooth="yes"/>
      <point x="200" y="247"/>
      <point x="200" y="407" type="qcurve" smooth="yes"/>
      <point x="200" y="540"/>
      <point x="416" y="750"/>
      <point x="564" y="750" type="qcurve" smooth="yes"/>
      <point x="593" y="750"/>
      <point x="623" y="747" type="qcurve" smooth="yes"/>
      <point x="768" y="728"/>
      <point x="873" y="570"/>
      <point x="873" y="501" type="qcurve" smooth="yes"/>
      <point x="873" y="453"/>
      <point x="847" y="400" type="qcurve" smooth="yes"/>
      <point x="820" y="344"/>
      <point x="746" y="344" type="qcurve" smooth="yes"/>
      <point x="723" y="344"/>
      <point x="696" y="355" type="qcurve" smooth="yes"/>
      <point x="631" y="378"/>
      <point x="631" y="425" type="qcurve" smooth="yes"/>
      <point x="631" y="445"/>
      <point x="643" y="468" type="qcurve" smooth="yes"/>
      <point x="664" y="512"/>
      <point x="702" y="521" type="qcurve"/>
      <point x="692" y="563"/>
    </contour>
  </outline>
</glyph>
<glyph name="uni17E7" format="1">
  <advance width="1850"/>
  <unicode hex="17E7"/>
  <outline>
    <contour>
      <point x="450" y="232" type="line"/>
      <point x="506" y="270"/>
      <point x="506" y="337" type="qcurve" smooth="yes"/>
      <point x="506" y="372"/>
      <point x="479" y="388" type="qcurve"/>
      <point x="462" y="404"/>
      <point x="450" y="404" type="qcurve"/>
    </contour>
    <contour>
      <point x="1400" y="1340" type="line" smooth="yes"/>
      <point x="1400" y="1456"/>
      <point x="1250" y="1456" type="qcurve"/>
      <point x="1250" y="1590"/>
      <point x="1380" y="1590" type="qcurve" smooth="yes"/>
      <point x="1650" y="1590"/>
      <point x="1650" y="1340" type="qcurve" smooth="yes"/>
      <point x="1650" y="203" type="line" smooth="yes"/>
      <point x="1650" y="0"/>
      <point x="1325" y="0" type="qcurve" smooth="yes"/>
      <point x="1000" y="0"/>
      <point x="1000" y="203" type="qcurve" smooth="yes"/>
      <point x="1000" y="990" type="line" smooth="yes"/>
      <point x="1000" y="1045"/>
      <point x="957" y="1100" type="qcurve"/>
      <point x="936" y="1112"/>
      <point x="912" y="1112" type="qcurve" smooth="yes"/>
      <point x="832" y="1112"/>
      <point x="726" y="972" type="qcurve"/>
      <point x="619" y="1112"/>
      <point x="539" y="1112" type="qcurve" smooth="yes"/>
      <point x="515" y="1112"/>
      <point x="494" y="1100" type="qcurve"/>
      <point x="450" y="1045"/>
      <point x="450" y="990" type="qcurve" smooth="yes"/>
      <point x="450" y="520" type="line"/>
      <point x="553" y="520"/>
      <point x="597" y="469" type="qcurve" smooth="yes"/>
      <point x="640" y="417"/>
      <point x="640" y="360" type="qcurve" smooth="yes"/>
      <point x="640" y="292"/>
      <point x="600" y="217" type="qcurve" smooth="yes"/>
      <point x="560" y="140"/>
      <point x="450" y="0"/>
      <point x="354" y="0" type="qcurve" smooth="yes"/>
      <point x="200" y="0"/>
      <point x="200" y="87" type="qcurve" smooth="yes"/>
      <point x="200" y="990" type="line" smooth="yes"/>
      <point x="200" y="1146"/>
      <point x="316" y="1223" type="qcurve" smooth="yes"/>
      <point x="432" y="1300"/>
      <point x="545" y="1300" type="qcurve" smooth="yes"/>
      <point x="597" y="1300"/>
      <point x="726" y="1184" type="qcurve"/>
      <point x="854" y="1300"/>
      <point x="907" y="1300" type="qcurve" smooth="yes"/>
      <point x="1019" y="1300"/>
      <point x="1134" y="1223" type="qcurve" smooth="yes"/>
      <point x="1250" y="1146"/>
      <point x="1250" y="990" type="qcurve" smooth="yes"/>
      <point x="1250" y="203" type="line" smooth="yes"/>
      <point x="1250" y="150"/>
      <point x="1325" y="150" type="qcurve" smooth="yes"/>
      <point x="1400" y="150"/>
      <point x="1400" y="203" type="qcurve" smooth="yes"/>
    </contour>
  </outline>
</glyph>
<glyph name="uni17E8" format="1">
  <advance width="1550"/>
  <unicode hex="17E8"/>
  <outline>
    <contour>
      <point x="1100" y="390" type="line"/>
      <point x="1052" y="390"/>
      <point x="982" y="477"/>
      <point x="982" y="524" type="qcurve" smooth="yes"/>
      <point x="982" y="574"/>
      <point x="1021" y="651"/>
      <point x="1062" y="693"/>
      <point x="1116" y="693" type="qcurve" smooth="yes"/>
      <point x="1350" y="693"/>
      <point x="1350" y="520" type="qcurve" smooth="yes"/>
      <point x="1350" y="260" type="line" smooth="yes"/>
      <point x="1350" y="0"/>
      <point x="1010" y="0" type="qcurve" smooth="yes"/>
      <point x="846" y="0"/>
      <point x="775" y="110" type="qcurve"/>
      <point x="704" y="0"/>
      <point x="540" y="0" type="qcurve" smooth="yes"/>
      <point x="200" y="0"/>
      <point x="200" y="260" type="qcurve" smooth="yes"/>
      <point x="200" y="867" type="line" smooth="yes"/>
      <point x="200" y="1053"/>
      <point x="487" y="1300"/>
      <point x="759" y="1300" type="qcurve" smooth="yes"/>
      <point x="932" y="1300"/>
      <point x="1100" y="1183" type="qcurve"/>
      <point x="1100" y="1300" type="line" smooth="yes"/>
      <point x="1100" y="1517"/>
      <point x="1370" y="1517" type="qcurve" smooth="yes"/>
      <point x="1500" y="1517"/>
      <point x="1500" y="1401" type="qcurve"/>
      <point x="1350" y="1401"/>
      <point x="1350" y="1300" type="qcurve" smooth="yes"/>
      <point x="1350" y="997" type="line" smooth="yes"/>
      <point x="1350" y="910"/>
      <point x="1206" y="910" type="qcurve" smooth="yes"/>
      <point x="1114" y="910"/>
      <point x="1092" y="954" type="qcurve"/>
      <point x="968" y="1150"/>
      <point x="759" y="1150" type="qcurve" smooth="yes"/>
      <point x="631" y="1150"/>
      <point x="450" y="1017"/>
      <point x="450" y="867" type="qcurve" smooth="yes"/>
      <point x="450" y="260" type="line" smooth="yes"/>
      <point x="450" y="150"/>
      <point x="540" y="150" type="qcurve" smooth="yes"/>
      <point x="597" y="150"/>
      <point x="683" y="236"/>
      <point x="683" y="291" type="qcurve" smooth="yes"/>
      <point x="683" y="347"/>
      <point x="775" y="347" type="qcurve" smooth="yes"/>
      <point x="867" y="347"/>
      <point x="867" y="291" type="qcurve" smooth="yes"/>
      <point x="867" y="236"/>
      <point x="954" y="150"/>
      <point x="1010" y="150" type="qcurve" smooth="yes"/>
      <point x="1100" y="150"/>
      <point x="1100" y="260" type="qcurve" smooth="yes"/>
    </contour>
  </outline>
</glyph>
<glyph name="uni17E9" format="1">
  <advance width="1450"/>
  <unicode hex="17E9"/>
  <outline>
    <contour>
      <point x="916" y="185" type="qcurve"/>
      <point x="881" y="245"/>
      <point x="881" y="285" type="qcurve" smooth="yes"/>
      <point x="881" y="304"/>
      <point x="889" y="318" type="qcurve" smooth="yes"/>
      <point x="913" y="362"/>
      <point x="964" y="379" type="qcurve" smooth="yes"/>
      <point x="1012" y="396"/>
      <point x="1057" y="396" type="qcurve" smooth="yes"/>
      <point x="1066" y="396" type="line" smooth="yes"/>
      <point x="1114" y="394"/>
      <point x="1157" y="365" type="qcurve" smooth="yes"/>
      <point x="1200" y="336"/>
      <point x="1200" y="246" type="qcurve" smooth="yes"/>
      <point x="1200" y="125"/>
      <point x="1054" y="62" type="qcurve" smooth="yes"/>
      <point x="907" y="0"/>
      <point x="700" y="0" type="qcurve" smooth="yes"/>
      <point x="452" y="0"/>
      <point x="334" y="90" type="qcurve" smooth="yes"/>
      <point x="200" y="192"/>
      <point x="200" y="400" type="qcurve" smooth="yes"/>
      <point x="200" y="537"/>
      <point x="274" y="634" type="qcurve" smooth="yes"/>
      <point x="349" y="731"/>
      <point x="498" y="777" type="qcurve"/>
      <point x="400" y="852"/>
      <point x="400" y="997" type="qcurve" smooth="yes"/>
      <point x="400" y="1159"/>
      <point x="503" y="1234" type="qcurve" smooth="yes"/>
      <point x="592" y="1300"/>
      <point x="779" y="1300" type="qcurve" smooth="yes"/>
      <point x="932" y="1300"/>
      <point x="1000" y="1223" type="qcurve"/>
      <point x="1000" y="1300" type="line" smooth="yes"/>
      <point x="1000" y="1401"/>
      <point x="912" y="1401" type="qcurve"/>
      <point x="912" y="1517"/>
      <point x="1042" y="1517" type="qcurve" smooth="yes"/>
      <point x="1250" y="1517"/>
      <point x="1250" y="1300" type="qcurve" smooth="yes"/>
      <point x="1250" y="1040" type="line" smooth="yes"/>
      <point x="1250" y="954"/>
      <point x="1156" y="954" type="qcurve" smooth="yes"/>
      <point x="1024" y="954"/>
      <point x="1002" y="997" type="qcurve" smooth="yes"/>
      <point x="938" y="1120"/>
      <point x="779" y="1120" type="qcurve" smooth="yes"/>
      <point x="712" y="1120"/>
      <point x="650" y="1052"/>
      <point x="650" y="981" type="qcurve" smooth="yes"/>
      <point x="650" y="910"/>
      <point x="719" y="838"/>
      <point x="830" y="838" type="qcurve" smooth="yes"/>
      <point x="1024" y="838"/>
      <point x="1194" y="720" type="qcurve" smooth="yes"/>
      <point x="1250" y="677"/>
      <point x="1250" y="579" type="qcurve" smooth="yes"/>
      <point x="1250" y="544"/>
      <point x="1224" y="529" type="qcurve" smooth="yes"/>
      <point x="1218" y="526"/>
      <point x="1211" y="526" type="qcurve" smooth="yes"/>
      <point x="1184" y="526"/>
      <point x="1135" y="567" type="qcurve" smooth="yes"/>
      <point x="1020" y="663"/>
      <point x="830" y="663" type="qcurve" smooth="yes"/>
      <point x="609" y="663"/>
      <point x="450" y="522"/>
      <point x="450" y="400" type="qcurve" smooth="yes"/>
      <point x="450" y="304"/>
      <point x="498" y="227" type="qcurve" smooth="yes"/>
      <point x="545" y="150"/>
      <point x="700" y="150" type="qcurve" smooth="yes"/>
      <point x="806" y="150"/>
    </contour>
  </outline>
</glyph>
<glyph name="uni17F0" format="1">
  <advance width="800"/>
  <unicode hex="17F0"/>
  <outline>
    <contour>
      <point x="550" y="350" type="qcurve" smooth="yes"/>
      <point x="550" y="600"/>
      <point x="400" y="600" type="qcurve" smooth="yes"/>
      <point x="250" y="600"/>
      <point x="250" y="350" type="qcurve" smooth="yes"/>
      <point x="250" y="100"/>
      <point x="400" y="100" type="qcurve" smooth="yes"/>
      <point x="550" y="100"/>
    </contour>
    <contour>
      <point x="150" y="350" type="qcurve" smooth="yes"/>
      <point x="150" y="700"/>
      <point x="400" y="700" type="qcurve" smooth="yes"/>
      <point x="650" y="700"/>
      <point x="650" y="350" type="qcurve" smooth="yes"/>
      <point x="650" y="0"/>
      <point x="400" y="0" type="qcurve" smooth="yes"/>
      <point x="150" y="0"/>
    </contour>
  </outline>
</glyph>
<glyph name="uni17F1" format="1">
  <advance width="800"/>
  <unicode hex="17F1"/>
  <outline>
    <contour>
      <point x="459" y="700" type="line"/>
      <point x="701" y="0" type="line"/>
      <point x="596" y="0" type="line"/>
      <point x="400" y="565" type="line"/>
      <point x="205" y="0" type="line"/>
      <point x="101" y="0" type="line"/>
      <point x="340" y="700" type="line"/>
    </contour>
  </outline>
</glyph>
<glyph name="uni17F2" format="1">
  <advance width="300"/>
  <unicode hex="17F2"/>
  <outline>
    <contour>
      <point x="200" y="700" type="line"/>
      <point x="200" y="0" type="line"/>
      <point x="100" y="0" type="line"/>
      <point x="100" y="700" type="line"/>
    </contour>
  </outline>
</glyph>
<glyph name="uni17F4" format="1">
  <advance width="800"/>
  <unicode hex="17F4"/>
  <outline>
    <contour>
      <point x="342" y="0" type="line"/>
      <point x="100" y="700" type="line"/>
      <point x="205" y="700" type="line"/>
      <point x="401" y="135" type="line"/>
      <point x="596" y="700" type="line"/>
      <point x="700" y="700" type="line"/>
      <point x="461" y="0" type="line"/>
    </contour>
  </outline>
</glyph>
<glyph name="uni17F6" format="1">
  <advance width="550"/>
  <unicode hex="17F6"/>
  <outline>
    <contour>
      <point x="209" y="700" type="line"/>
      <point x="450" y="0" type="line"/>
      <point x="344" y="0" type="line"/>
      <point x="100" y="700" type="line"/>
    </contour>
  </outline>
</glyph>
<glyph name="uni17F7" format="1">
  <advance width="1050"/>
  <unicode hex="17F7"/>
  <outline>
    <contour>
      <point x="458" y="700" type="line"/>
      <point x="647" y="151" type="line"/>
      <point x="835" y="700" type="line"/>
      <point x="950" y="700" type="line"/>
      <point x="700" y="0" type="line"/>
      <point x="595" y="0" type="line"/>
      <point x="399" y="565" type="line"/>
      <point x="204" y="0" type="line"/>
      <point x="100" y="0" type="line"/>
      <point x="339" y="700" type="line"/>
    </contour>
  </outline>
</glyph>
<glyph name="uni19E0" format="1">
  <advance width="1300"/>
  <unicode hex="19E0"/>
  <outline>
    <contour>
      <point x="650" y="972" type="qcurve" smooth="yes"/>
      <point x="912" y="972"/>
      <point x="912" y="1196" type="qcurve" smooth="yes"/>
      <point x="912" y="1636" type="line" smooth="yes"/>
      <point x="912" y="1860"/>
      <point x="650" y="1860" type="qcurve" smooth="yes"/>
      <point x="388" y="1860"/>
      <point x="388" y="1636" type="qcurve" smooth="yes"/>
      <point x="388" y="1196" type="line" smooth="yes"/>
      <point x="388" y="972"/>
    </contour>
    <contour>
      <point x="912" y="864" type="line"/>
      <point x="809" y="816"/>
      <point x="650" y="816" type="qcurve" smooth="yes"/>
      <point x="200" y="816"/>
      <point x="200" y="1196" type="qcurve" smooth="yes"/>
      <point x="200" y="1636" type="line" smooth="yes"/>
      <point x="200" y="2016"/>
      <point x="650" y="2016" type="qcurve" smooth="yes"/>
      <point x="1100" y="2016"/>
      <point x="1100" y="1636" type="qcurve" smooth="yes"/>
      <point x="1100" y="1196" type="line" smooth="yes"/>
      <point x="1100" y="1077"/>
      <point x="1056" y="995" type="qcurve"/>
      <point x="1100" y="995" type="line"/>
      <point x="1100" y="325" type="line"/>
      <point x="912" y="325" type="line"/>
      <point x="912" y="489"/>
      <point x="650" y="489" type="qcurve" smooth="yes"/>
      <point x="388" y="489"/>
      <point x="388" y="325" type="qcurve" smooth="yes"/>
      <point x="388" y="-380" type="line"/>
      <point x="585" y="-183" type="line"/>
      <point x="716" y="-183" type="line"/>
      <point x="912" y="-380" type="line"/>
      <point x="912" y="-35" type="line" smooth="yes"/>
      <point x="912" y="45"/>
      <point x="860" y="45" type="qcurve" smooth="yes"/>
      <point x="680" y="45" type="line"/>
      <point x="680" y="195" type="line"/>
      <point x="860" y="195" type="line" smooth="yes"/>
      <point x="1100" y="195"/>
      <point x="1100" y="-35" type="qcurve" smooth="yes"/>
      <point x="1100" y="-555" type="line"/>
      <point x="867" y="-555" type="line"/>
      <point x="650" y="-338" type="line"/>
      <point x="433" y="-555" type="line"/>
      <point x="200" y="-555" type="line"/>
      <point x="200" y="325" type="line" smooth="yes"/>
      <point x="200" y="645"/>
      <point x="650" y="645" type="qcurve" smooth="yes"/>
      <point x="784" y="645"/>
      <point x="912" y="591" type="qcurve"/>
    </contour>
  </outline>
</glyph>
<glyph name="uni19E1" format="1">
  <advance width="1300"/>
  <unicode hex="19E1"/>
  <outline>
    <contour>
      <point x="912" y="1136" type="qcurve" smooth="yes"/>
      <point x="912" y="1696" type="line" smooth="yes"/>
      <point x="912" y="1860"/>
      <point x="650" y="1860" type="qcurve" smooth="yes"/>
      <point x="388" y="1860"/>
      <point x="388" y="1696" type="qcurve" smooth="yes"/>
      <point x="388" y="1576" type="line" smooth="yes"/>
      <point x="388" y="1496"/>
      <point x="515" y="1496" type="qcurve" smooth="yes"/>
      <point x="650" y="1496" type="line"/>
      <point x="650" y="1336" type="line"/>
      <point x="515" y="1336" type="line" smooth="yes"/>
      <point x="200" y="1336"/>
      <point x="200" y="1576" type="qcurve" smooth="yes"/>
      <point x="200" y="1696" type="line" smooth="yes"/>
      <point x="200" y="2016"/>
      <point x="650" y="2016" type="qcurve" smooth="yes"/>
      <point x="1100" y="2016"/>
      <point x="1100" y="1696" type="qcurve" smooth="yes"/>
      <point x="1100" y="1136" type="line" smooth="yes"/>
      <point x="1100" y="816"/>
      <point x="650" y="816" type="qcurve" smooth="yes"/>
      <point x="200" y="816"/>
      <point x="200" y="1136" type="qcurve"/>
      <point x="388" y="1136" type="line"/>
      <point x="388" y="972"/>
      <point x="650" y="972" type="qcurve" smooth="yes"/>
      <point x="912" y="972"/>
    </contour>
    <contour>
      <point x="438" y="430" type="qcurve" smooth="yes"/>
      <point x="438" y="348"/>
      <point x="516" y="348" type="qcurve" smooth="yes"/>
      <point x="693" y="348"/>
      <point x="778" y="479" type="qcurve" smooth="yes"/>
      <point x="862" y="610" type="line"/>
      <point x="1050" y="610" type="line"/>
      <point x="1050" y="-555" type="line"/>
      <point x="862" y="-555" type="line"/>
      <point x="862" y="356" type="line"/>
      <point x="753" y="210"/>
      <point x="516" y="210" type="qcurve" smooth="yes"/>
      <point x="250" y="210"/>
      <point x="250" y="430" type="qcurve" smooth="yes"/>
      <point x="250" y="610"/>
      <point x="492" y="610" type="qcurve" smooth="yes"/>
      <point x="545" y="610" type="line"/>
      <point x="545" y="472" type="line"/>
      <point x="492" y="472" type="line" smooth="yes"/>
      <point x="438" y="472"/>
    </contour>
  </outline>
</glyph>
<glyph name="uni19E4" format="1">
  <advance width="1300"/>
  <unicode hex="19E4"/>
  <outline>
    <contour>
      <point x="1100" y="1754" type="line"/>
      <point x="1100" y="1598" type="line"/>
      <point x="888" y="1598" type="line"/>
      <point x="888" y="1314" type="line"/>
      <point x="1100" y="972" type="line"/>
      <point x="1050" y="816" type="line"/>
      <point x="650" y="816" type="line" smooth="yes"/>
      <point x="200" y="816"/>
      <point x="200" y="1216" type="qcurve" smooth="yes"/>
      <point x="200" y="2116" type="line"/>
      <point x="100" y="2116" type="line"/>
      <point x="100" y="2276" type="line"/>
      <point x="200" y="2276" type="line" smooth="yes"/>
      <point x="388" y="2276"/>
      <point x="388" y="2126" type="qcurve" smooth="yes"/>
      <point x="388" y="1216" type="line" smooth="yes"/>
      <point x="388" y="972"/>
      <point x="650" y="972" type="qcurve" smooth="yes"/>
      <point x="900" y="972" type="line"/>
      <point x="700" y="1264" type="line"/>
      <point x="700" y="1616" type="line" smooth="yes"/>
      <point x="700" y="1691"/>
      <point x="800" y="1754"/>
      <point x="900" y="1754" type="qcurve" smooth="yes"/>
    </contour>
    <contour>
      <point x="438" y="430" type="qcurve" smooth="yes"/>
      <point x="438" y="348"/>
      <point x="516" y="348" type="qcurve" smooth="yes"/>
      <point x="693" y="348"/>
      <point x="778" y="479" type="qcurve" smooth="yes"/>
      <point x="862" y="610" type="line"/>
      <point x="1050" y="610" type="line"/>
      <point x="1050" y="-555" type="line"/>
      <point x="862" y="-555" type="line"/>
      <point x="862" y="356" type="line"/>
      <point x="753" y="210"/>
      <point x="516" y="210" type="qcurve" smooth="yes"/>
      <point x="250" y="210"/>
      <point x="250" y="430" type="qcurve" smooth="yes"/>
      <point x="250" y="610"/>
      <point x="492" y="610" type="qcurve" smooth="yes"/>
      <point x="545" y="610" type="line"/>
      <point x="545" y="472" type="line"/>
      <point x="492" y="472" type="line" smooth="yes"/>
      <point x="438" y="472"/>
    </contour>
  </outline>
</glyph>
<glyph name="uni19E6" format="1">
  <advance width="1300"/>
  <unicode hex="19E6"/>
  <outline>
    <contour>
      <point x="200" y="2366" type="line"/>
      <point x="388" y="2366" type="line"/>
      <point x="388" y="1962" type="line"/>
      <point x="516" y="2016"/>
      <point x="650" y="2016" type="qcurve" smooth="yes"/>
      <point x="1100" y="2016"/>
      <point x="1100" y="1616" type="qcurve" smooth="yes"/>
      <point x="1100" y="1216" type="line" smooth="yes"/>
      <point x="1100" y="816"/>
      <point x="650" y="816" type="qcurve" smooth="yes"/>
      <point x="200" y="816"/>
      <point x="200" y="1166" type="qcurve" smooth="yes"/>
      <point x="200" y="1516"/>
      <point x="550" y="1516" type="qcurve" smooth="yes"/>
      <point x="700" y="1516" type="line"/>
      <point x="700" y="1378" type="line"/>
      <point x="550" y="1378" type="line" smooth="yes"/>
      <point x="388" y="1378"/>
      <point x="388" y="1166" type="qcurve" smooth="yes"/>
      <point x="388" y="972"/>
      <point x="650" y="972" type="qcurve" smooth="yes"/>
      <point x="912" y="972"/>
      <point x="912" y="1216" type="qcurve" smooth="yes"/>
      <point x="912" y="1616" type="line" smooth="yes"/>
      <point x="912" y="1860"/>
      <point x="650" y="1860" type="qcurve" smooth="yes"/>
      <point x="388" y="1860"/>
      <point x="388" y="1676" type="qcurve"/>
      <point x="200" y="1676" type="line"/>
    </contour>
    <contour>
      <point x="438" y="430" type="qcurve" smooth="yes"/>
      <point x="438" y="348"/>
      <point x="516" y="348" type="qcurve" smooth="yes"/>
      <point x="693" y="348"/>
      <point x="778" y="479" type="qcurve" smooth="yes"/>
      <point x="862" y="610" type="line"/>
      <point x="1050" y="610" type="line"/>
      <point x="1050" y="-555" type="line"/>
      <point x="862" y="-555" type="line"/>
      <point x="862" y="356" type="line"/>
      <point x="753" y="210"/>
      <point x="516" y="210" type="qcurve" smooth="yes"/>
      <point x="250" y="210"/>
      <point x="250" y="430" type="qcurve" smooth="yes"/>
      <point x="250" y="610"/>
      <point x="492" y="610" type="qcurve" smooth="yes"/>
      <point x="545" y="610" type="line"/>
      <point x="545" y="472" type="line"/>
      <point x="492" y="472" type="line" smooth="yes"/>
      <point x="438" y="472"/>
    </contour>
  </outline>
</glyph>
<glyph name="uni19E7" format="1">
  <advance width="1600"/>
  <unicode hex="19E7"/>
  <outline>
    <contour>
      <point x="1050" y="972" type="line"/>
      <point x="1212" y="972" type="line"/>
      <point x="1212" y="2316" type="line"/>
      <point x="1400" y="2316" type="line"/>
      <point x="1400" y="954" type="line" smooth="yes"/>
      <point x="1400" y="816"/>
      <point x="1125" y="816" type="qcurve" smooth="yes"/>
      <point x="862" y="816"/>
      <point x="862" y="954" type="qcurve" smooth="yes"/>
      <point x="862" y="1739" type="line" smooth="yes"/>
      <point x="862" y="1860"/>
      <point x="804" y="1860" type="qcurve" smooth="yes"/>
      <point x="758" y="1860"/>
      <point x="655" y="1741"/>
      <point x="625" y="1741" type="qcurve" smooth="yes"/>
      <point x="595" y="1741"/>
      <point x="493" y="1860"/>
      <point x="447" y="1860" type="qcurve" smooth="yes"/>
      <point x="388" y="1860"/>
      <point x="388" y="1739" type="qcurve" smooth="yes"/>
      <point x="388" y="972" type="line"/>
      <point x="550" y="972" type="line"/>
      <point x="550" y="816" type="line"/>
      <point x="200" y="816" type="line"/>
      <point x="200" y="1739" type="line" smooth="yes"/>
      <point x="200" y="1852"/>
      <point x="271" y="1934" type="qcurve" smooth="yes"/>
      <point x="342" y="2016"/>
      <point x="431" y="2016" type="qcurve" smooth="yes"/>
      <point x="520" y="2016"/>
      <point x="625" y="1892" type="qcurve"/>
      <point x="731" y="2016"/>
      <point x="821" y="2016" type="qcurve" smooth="yes"/>
      <point x="909" y="2016"/>
      <point x="980" y="1934" type="qcurve" smooth="yes"/>
      <point x="1050" y="1852"/>
      <point x="1050" y="1739" type="qcurve" smooth="yes"/>
    </contour>
    <contour>
      <point x="438" y="430" type="qcurve" smooth="yes"/>
      <point x="438" y="348"/>
      <point x="516" y="348" type="qcurve" smooth="yes"/>
      <point x="693" y="348"/>
      <point x="778" y="479" type="qcurve" smooth="yes"/>
      <point x="862" y="610" type="line"/>
      <point x="1050" y="610" type="line"/>
      <point x="1050" y="-555" type="line"/>
      <point x="862" y="-555" type="line"/>
      <point x="862" y="356" type="line"/>
      <point x="753" y="210"/>
      <point x="516" y="210" type="qcurve" smooth="yes"/>
      <point x="250" y="210"/>
      <point x="250" y="430" type="qcurve" smooth="yes"/>
      <point x="250" y="610"/>
      <point x="492" y="610" type="qcurve" smooth="yes"/>
      <point x="545" y="610" type="line"/>
      <point x="545" y="472" type="line"/>
      <point x="492" y="472" type="line" smooth="yes"/>
      <point x="438" y="472"/>
    </contour>
  </outline>
</glyph>
